SplineFontDB: 3.2
FontName: CommonSans-Thin
FullName: Common Sans Thin
FamilyName: Common Sans
Weight: Thin
Copyright: Copyright \\(c\\) 2015 by Stefan Peev, Context Ltd. All rights reserved.
Version: 1.0
ItalicAngle: 0
UnderlinePosition: -225
UnderlineWidth: 50
Ascent: 800
Descent: 200
InvalidEm: 0
UFOAscent: 800
UFODescent: -200
LayerCount: 2
Layer: 0 0 "Back" 1
Layer: 1 0 "public.default" 0 "glyphs"
StyleMap: 0x0040
FSType: 260
OS2Version: 0
OS2_WeightWidthSlopeOnly: 0
OS2_UseTypoMetrics: 0
CreationTime: 1677507604
ModificationTime: 1677672880
PfmFamily: 16
TTFWeight: 100
TTFWidth: 5
LineGap: 52
VLineGap: 0
Panose: 0 0 0 0 0 0 0 0 0 0
OS2TypoAscent: 800
OS2TypoAOffset: 0
OS2TypoDescent: -200
OS2TypoDOffset: 0
OS2TypoLinegap: 100
OS2WinAscent: 750
OS2WinAOffset: 0
OS2WinDescent: 250
OS2WinDOffset: 0
HheadAscent: 700
HheadAOffset: 0
HheadDescent: -200
HheadDOffset: 0
OS2SubXSize: 650
OS2SubYSize: 600
OS2SubXOff: 0
OS2SubYOff: 75
OS2SupXSize: 650
OS2SupYSize: 600
OS2SupXOff: 0
OS2SupYOff: 350
OS2StrikeYSize: 50
OS2StrikeYPos: 276
OS2CapHeight: 700
OS2XHeight: 460
OS2Vendor: 'CNTX'
OS2CodePages: 20000097.00000000
OS2UnicodeRanges: 8000027f.40000048.00000000.00000000
Lookup: 1 0 0 "aaltAccessAllAlternateslookup0" { "aaltAccessAllAlternateslookup0 subtable"  } ['aalt' ('latn' <'dflt' 'AZE ' 'CAT ' 'LTH ' 'MOL ' 'NLD ' 'ROM ' 'TRK ' > 'cyrl' <'dflt' 'BGR ' 'RUS ' 'SRB ' 'UKR ' > 'DFLT' <'dflt' > ) ]
Lookup: 3 0 0 "aaltAccessAllAlternateslookup1" { "aaltAccessAllAlternateslookup1 subtable"  } ['aalt' ('latn' <'dflt' 'AZE ' 'CAT ' 'LTH ' 'MOL ' 'NLD ' 'ROM ' 'TRK ' > 'cyrl' <'dflt' 'BGR ' 'RUS ' 'SRB ' 'UKR ' > 'DFLT' <'dflt' > ) ]
Lookup: 1 0 0 "loclLocalizedFormsinCyrilliclookup2" { "loclLocalizedFormsinCyrilliclookup2 subtable"  } ['locl' ('cyrl' <'dflt' 'BGR ' 'RUS ' 'SRB ' 'UKR ' > ) ]

StartChar: .notdef
Encoding: 256 -1 0
GlifName: _notdef
Width: 1000
VWidth: 0
Flags: W
LayerCount: 2
Fore
SplineSet
573 237 m 257
 573 319 l 257
 163 319 l 257
 163 237 l 257
 336 237 l 257
 163 121 l 257
 163 40 l 257
 573 40 l 257
 573 121 l 257
 321 121 l 257
 494 237 l 257
 573 237 l 257
678 165 m 257
 642 165 l 257
 642 40 l 257
 825 40 l 257
 825 165 l 257
 715 165 l 257
 715 103 l 257
 752 103 l 257
 752 128 l 257
 789 128 l 257
 789 76 l 257
 678 76 l 257
 678 165 l 257
789 227 m 257
 642 227 l 257
 642 189 l 257
 825 189 l 257
 825 299 l 257
 789 299 l 257
 789 227 l 257
715 288 m 257
 642 288 l 257
 642 252 l 257
 752 252 l 257
 752 329 l 257
 825 329 l 257
 825 366 l 257
 642 366 l 257
 642 329 l 257
 715 329 l 257
 715 288 l 257
573 654 m 257
 163 654 l 257
 163 375 l 257
 573 375 l 257
 573 654 l 257
752 510 m 257
 642 510 l 257
 642 396 l 257
 825 396 l 257
 825 433 l 257
 752 433 l 257
 752 510 l 257
715 576 m 257
 642 576 l 257
 642 539 l 257
 825 539 l 257
 825 576 l 257
 752 576 l 257
 752 617 l 257
 825 617 l 257
 825 653 l 257
 643 653 l 257
 643 617 l 257
 715 617 l 257
 715 576 l 257
491 573 m 257
 491 457 l 257
 245 457 l 257
 245 573 l 257
 491 573 l 257
900 752 m 257
 900 -50 l 257
 100 -50 l 257
 100 752 l 257
 900 752 l 257
715 473 m 257
 715 433 l 257
 678 433 l 257
 678 473 l 257
 715 473 l 257
EndSplineSet
PickledDataWithLists: "(dp0
Vpublic.postscript.hints\\u000d
p1
(dp2
VformatVersion\\u000d
p3
V1\\u000d
p4
sVhintSetList\\u000d
p5
(lp6
(dp7
Vstems\\u000d
p8
(lp9
Vhstem -50 90\\u000d
p10
aVhstem 76 27\\u000d
p11
aVhstem 121 116\\u000d
p12
aVhstem 319 56\\u000d
p13
aVhstem 433 40\\u000d
p14
aVhstem 510 29\\u000d
p15
aVhstem 576 41\\u000d
p16
aVhstem 654 98\\u000d
p17
aVvstem 100 63\\u000d
p18
aVvstem 245 246\\u000d
p19
aVvstem 573 69\\u000d
p20
aVvstem 678 37\\u000d
p21
aVvstem 752 37\\u000d
p22
aVvstem 825 75\\u000d
p23
asasVid\\u000d
p24
Vf219e68408fa344fb440ff86bc1183933123e92e99bfd7e3a26d32d9456625eb5ace516e5437279e50bf740b31f3c06efda6ee1e00647f5aa81167d5441fe281\\u000d
p25
ss."
EndChar

StartChar: A
Encoding: 65 65 1
GlifName: A_
Width: 480
VWidth: 0
Flags: W
AnchorPoint: "top" 240 740 basechar 0
LayerCount: 2
Fore
SplineSet
362 270 m 257
 240 650 l 257
 118 270 l 257
 362 270 l 257
448 0 m 257
 368 250 l 257
 112 250 l 257
 32 0 l 257
 10 0 l 257
 229 680 l 257
 251 680 l 257
 470 0 l 257
 448 0 l 257
EndSplineSet
PickledDataWithLists: "(dp0
Vpublic.postscript.hints\\u000d
p1
(dp2
VformatVersion\\u000d
p3
V1\\u000d
p4
sVhintSetList\\u000d
p5
(lp6
(dp7
Vstems\\u000d
p8
(lp9
Vhstem 250 20\\u000d
p10
aVhstem 650 30\\u000d
p11
aVvstem 10 460\\u000d
p12
asasVid\\u000d
p13
Vw480m362,270l240,650l118,270m448,0l368,250l112,250l32,0l10,0l229,680l251,680l470,0\\u000d
p14
ss."
Substitution2: "c2scCapitalstoSmallCapitalslookup23 subtable" a.sc
Substitution2: "SingleSubstitutionlookup28 subtable" ordfeminine
Substitution2: "aaltAccessAllAlternateslookup0 subtable" a.sc
EndChar

StartChar: AE
Encoding: 257 198 2
GlifName: A_E_
Width: 830
VWidth: 0
Flags: W
LayerCount: 2
Fore
SplineSet
390 610 m 257
 290 610 l 257
 220 372 l 257
 390 372 l 257
 390 610 l 257
200 282 m 257
 120 0 l 257
 30 0 l 257
 240 700 l 257
 800 700 l 257
 800 620 l 257
NamedP: ".hr01"
 480 620 l 257
 480 397 l 257
 760 397 l 257
 760 317 l 257
 480 317 l 257
 480 80 l 257
 800 80 l 257
 800 0 l 257
 390 0 l 257
 390 282 l 257
NamedP: ".hr02"
 200 282 l 257
EndSplineSet
PickledDataWithLists: "(dp0
Vpublic.postscript.hints\\u000d
p1
(dp2
VformatVersion\\u000d
p3
V1\\u000d
p4
sVhintSetList\\u000d
p5
(lp6
(dp7
Vstems\\u000d
p8
(lp9
Vhstem 610 90\\u000d
p10
aVvstem 390 90\\u000d
p11
aVhstem 282 90\\u000d
p12
aVhstem 0 80\\u000d
p13
asa(dp14
VpointTag\\u000d
p15
V.hr01\\u000d
p16
sg8
(lp17
Vhstem 620 80\\u000d
p18
aVvstem 390 90\\u000d
p19
aVhstem 317 80\\u000d
p20
aVhstem 0 80\\u000d
p21
asa(dp22
g15
V.hr02\\u000d
p23
sg8
(lp24
Vhstem 282 90\\u000d
p25
aVvstem 390 90\\u000d
p26
aVhstem 0 80\\u000d
p27
aVhstem 610 90\\u000d
p28
asasVid\\u000d
p29
Vf3b47975e2c62876af91e37c4a6e5a0955186204185dd607b899a70cfd6937f2423df76331ab350ab6c4c59fc40e9c961c9c8047b7e389a9405cb458ac897c78\\u000d
p30
ss."
EndChar

StartChar: Abreve
Encoding: 259 258 4
GlifName: A_breve
Width: 570
VWidth: 0
Flags: W
LayerCount: 2
Fore
SplineSet
382 270 m 257
 260 650 l 257
 138 270 l 257
 382 270 l 257
468 0 m 257
 388 250 l 257
 132 250 l 257
 52 0 l 257
 30 0 l 257
 249 680 l 257
 271 680 l 257
 490 0 l 257
 468 0 l 257
130 890 m 257
 210 890 l 257
 210 830 250 810 285 810 c 256
 320 810 360 830 360 890 c 257
 440 890 l 257
 440 790 365 750 285 750 c 256
 205 750 130 790 130 890 c 257
EndSplineSet
PickledDataWithLists: "(dp0
Vpublic.postscript.hints\\u000d
p1
(dp2
VformatVersion\\u000d
p3
V1\\u000d
p4
sVhintSetList\\u000d
p5
(lp6
(dp7
Vstems\\u000d
p8
(lp9
Vhstem 250 20\\u000d
p10
aVhstem 650 30\\u000d
p11
aVhstem 750 60\\u000d
p12
aVvstem 130 80\\u000d
p13
aVvstem 360 80\\u000d
p14
asasVid\\u000d
p15
Vc850587febd9b4f8db0dda75aafe7cc1be0fe69f662b488226270e27e29b2dbd43e1da6ce3cc6a0da96df52a121a891bd9efbd92b8f2d468ded1578d248abb1a\\u000d
p16
ss."
EndChar

StartChar: Aogonek
Encoding: 264 260 9
GlifName: A_ogonek
Width: 560
VWidth: 0
Flags: W
LayerCount: 2
Fore
SplineSet
350 372 m 257
 280 610 l 257
 210 372 l 257
 350 372 l 257
371 -124 m 256
 371 -70 408 -25 442 0 c 257
 450 0 l 257
 370 282 l 257
 190 282 l 257
 110 0 l 257
 20 0 l 257
 230 700 l 257
 330 700 l 257
 540 0 l 257
 500 0 l 257
 459 -31 432 -69 432 -108 c 256
 432 -135 452 -154 478 -154 c 256
 492 -154 507 -149 518 -141 c 257
 540 -182 l 257
 527 -191 l 257
 508 -202 481 -209 461 -209 c 256
 411 -209 371 -180 371 -124 c 256
EndSplineSet
PickledDataWithLists: "(dp0
Vpublic.postscript.hints\\u000d
p1
(dp2
VformatVersion\\u000d
p3
V1\\u000d
p4
sVhintSetList\\u000d
p5
(lp6
(dp7
Vstems\\u000d
p8
(lp9
Vhstem -209 55\\u000d
p10
aVhstem 282 90\\u000d
p11
aVhstem 610 90\\u000d
p12
aVvstem 371 61\\u000d
p13
asasVid\\u000d
p14
V0532dfcb188ba1206baee01577a5c03795b710b7334d4e993b7c46e54c1609447489edbc5e76e46faee9946d1a66664a7dc832e957ff30c0b43841768c7df905\\u000d
p15
ss."
EndChar

StartChar: Aring
Encoding: 265 197 10
GlifName: A_ring
Width: 480
VWidth: 0
Flags: W
LayerCount: 2
Fore
SplineSet
362 270 m 257
 240 650 l 257
 118 270 l 257
 362 270 l 257
209 859 m 256
 209 842 223 828 240 828 c 256
 257 828 271 842 271 859 c 256
 271 876 257 890 240 890 c 256
 223 890 209 876 209 859 c 256
448 0 m 257
 368 250 l 257
 112 250 l 257
 32 0 l 257
 10 0 l 257
 229 680 l 257
 251 680 l 257
 470 0 l 257
 448 0 l 257
162 859 m 256
 162 902 197 937 240 937 c 256
 283 937 318 902 318 859 c 256
 318 816 283 781 240 781 c 256
 197 781 162 816 162 859 c 256
EndSplineSet
PickledDataWithLists: "(dp0
Vpublic.postscript.hints\\u000d
p1
(dp2
VformatVersion\\u000d
p3
V1\\u000d
p4
sVhintSetList\\u000d
p5
(lp6
(dp7
Vstems\\u000d
p8
(lp9
Vhstem 250 20\\u000d
p10
aVhstem 650 30\\u000d
p11
aVhstem 781 47\\u000d
p12
aVhstem 890 47\\u000d
p13
aVvstem 162 47\\u000d
p14
aVvstem 271 47\\u000d
p15
asasVid\\u000d
p16
V2440c2265a1e650362f84ebd2996c5320cf801bb8fce2cc0d4b4addcfa93f0c59e8564d3dfb67593ed5e7b76877e86f5d249e696576a7743220b140718422359\\u000d
p17
ss."
EndChar

StartChar: Aringacute
Encoding: 266 506 11
GlifName: A_ringacute
Width: 480
VWidth: 0
Flags: W
LayerCount: 2
Fore
SplineSet
362 270 m 257
 240 650 l 257
 118 270 l 257
 362 270 l 257
267 845 m 257
 271 857 l 257
 271 875 259 890 240 890 c 256
 223 890 209 876 209 859 c 256
 209 842 223 828 240 828 c 256
 252 828 262 835 267 845 c 257
448 0 m 257
 368 250 l 257
 112 250 l 257
 32 0 l 257
 10 0 l 257
 229 680 l 257
 251 680 l 257
 470 0 l 257
 448 0 l 257
269 786 m 257
 244 710 l 257
 230 710 l 257
 250 782 l 257
 247 781 243 781 240 781 c 256
 197 781 162 816 162 859 c 256
 162 902 197 937 240 937 c 256
 283 937 318 902 318 859 c 256
 318 826 298 798 269 786 c 257
EndSplineSet
PickledDataWithLists: "(dp0
Vpublic.postscript.hints\\u000d
p1
(dp2
VformatVersion\\u000d
p3
V1\\u000d
p4
sVhintSetList\\u000d
p5
(lp6
(dp7
Vstems\\u000d
p8
(lp9
Vhstem 250 20\\u000d
p10
aVhstem 650 30\\u000d
p11
aVhstem 781 47\\u000d
p12
aVhstem 890 47\\u000d
p13
aVvstem 162 47\\u000d
p14
aVvstem 271 47\\u000d
p15
asasVid\\u000d
p16
V1eed545ec982428a87bf056ab8f0ca204e1988433f86b40cb0fb16ad8b322f5e8e98784e7c9387354f3f94736812377264cbf2771ec1e10eaeabb273606f885a\\u000d
p17
ss."
EndChar

StartChar: B
Encoding: 66 66 13
GlifName: B_
Width: 597
VWidth: 0
Flags: W
AnchorPoint: "top" 270 740 basechar 0
LayerCount: 2
Fore
SplineSet
324 360 m 258
 122 360 l 257
 122 20 l 257
 290 20 l 258
 444 20 495 80 495 187 c 256
 495 294 455 360 324 360 c 258
303 660 m 258
 122 660 l 257
 122 380 l 257
 324 380 l 258
 405 380 460 421 460 507 c 256
 460 605 417 660 303 660 c 258
290 0 m 258
 100 0 l 257
 100 680 l 257
 303 680 l 258
 440 680 482 615 482 507 c 256
 482 451 464 395 380 373 c 257
 458 359 517 310 517 187 c 256
 517 58 446 0 290 0 c 258
EndSplineSet
PickledDataWithLists: "(dp0
Vpublic.postscript.hints\\u000d
p1
(dp2
VformatVersion\\u000d
p3
V1\\u000d
p4
sVhintSetList\\u000d
p5
(lp6
(dp7
Vstems\\u000d
p8
(lp9
Vhstem 0 20\\u000d
p10
aVhstem 360 20\\u000d
p11
aVhstem 660 20\\u000d
p12
aVvstem 100 22\\u000d
p13
aVvstem 460 22\\u000d
p14
aVvstem 495 22\\u000d
p15
asasVid\\u000d
p16
V062d9c4aab32df27a85befa5a5de407e1235f6e6a169fc550542d4b02584bea1f868810deb12221acd6f80d3a0762edc785ae84ca5e90391f6157cad0bc8c9fd\\u000d
p17
ss."
Substitution2: "c2scCapitalstoSmallCapitalslookup23 subtable" b.sc
Substitution2: "aaltAccessAllAlternateslookup0 subtable" b.sc
EndChar

StartChar: C
Encoding: 67 67 14
GlifName: C_
Width: 705
VWidth: 0
Flags: W
AnchorPoint: "top" 360 740 basechar 0
LayerCount: 2
Fore
SplineSet
358 670 m 256
 199 670 102 544 102 340 c 256
 102 136 199 10 358 10 c 256
 475 10 565 75 590 184 c 257
 610 184 l 257
 584 70 491 -10 358 -10 c 256
 189 -10 80 127 80 340 c 256
 80 553 189 690 358 690 c 256
 496 690 593 606 625 454 c 257
 605 454 l 257
 574 589 484 670 358 670 c 256
EndSplineSet
PickledDataWithLists: "(dp0
Vpublic.postscript.hints\\u000d
p1
(dp2
VformatVersion\\u000d
p3
V1\\u000d
p4
sVhintSetList\\u000d
p5
(lp6
(dp7
Vstems\\u000d
p8
(lp9
Vhstem -10 20\\u000d
p10
aVhstem 670 20\\u000d
p11
aVvstem 80 22\\u000d
p12
asasVid\\u000d
p13
Vb7f5b4a9ce8e30d77b3d057ad850a0baf318b6d68f03c679b3ceda1fc8f11b117994a0f374807ea99a4509faff3f8baf7033bdea10084580c860d8cd3b70957a\\u000d
p14
ss."
Substitution2: "c2scCapitalstoSmallCapitalslookup23 subtable" c.sc
Substitution2: "aaltAccessAllAlternateslookup0 subtable" c.sc
EndChar

StartChar: Cacute
Encoding: 269 262 16
GlifName: C_acute
Width: 705
VWidth: 0
Flags: W
LayerCount: 2
Fore
SplineSet
358 670 m 256
 199 670 102 544 102 340 c 256
 102 136 199 10 358 10 c 256
 475 10 565 75 590 184 c 257
 610 184 l 257
 584 70 491 -10 358 -10 c 256
 189 -10 80 127 80 340 c 256
 80 553 189 690 358 690 c 256
 496 690 593 606 625 454 c 257
 605 454 l 257
 574 589 484 670 358 670 c 256
412 890 m 257
 354 710 l 257
 340 710 l 257
 390 890 l 257
 412 890 l 257
EndSplineSet
PickledDataWithLists: "(dp0
Vpublic.postscript.hints\\u000d
p1
(dp2
VformatVersion\\u000d
p3
V1\\u000d
p4
sVhintSetList\\u000d
p5
(lp6
(dp7
Vstems\\u000d
p8
(lp9
Vhstem -10 20\\u000d
p10
aVhstem 670 20\\u000d
p11
aVvstem 80 22\\u000d
p12
asasVid\\u000d
p13
V312d680718f1c54ff8dbc8505e0f15bb3cfc8d18ea2ae4a1a4638b64f7373aef24c5bf2dbb7de3a4c2d781035ba70087b01cd85afc1f34199fbba4d065edeef2\\u000d
p14
ss."
EndChar

StartChar: Ccaron
Encoding: 270 268 17
GlifName: C_caron
Width: 705
VWidth: 0
Flags: W
LayerCount: 2
Fore
SplineSet
358 670 m 256
 199 670 102 544 102 340 c 256
 102 136 199 10 358 10 c 256
 475 10 565 75 590 184 c 257
 610 184 l 257
 584 70 491 -10 358 -10 c 256
 189 -10 80 127 80 340 c 256
 80 553 189 690 358 690 c 256
 496 690 593 606 625 454 c 257
 605 454 l 257
 574 589 484 670 358 670 c 256
390 740 m 257
 310 740 l 257
 210 900 l 257
 274 900 l 257
 350 815 l 257
 426 900 l 257
 490 900 l 257
 390 740 l 257
EndSplineSet
PickledDataWithLists: "(dp0
Vpublic.postscript.hints\\u000d
p1
(dp2
VformatVersion\\u000d
p3
V1\\u000d
p4
sVhintSetList\\u000d
p5
(lp6
(dp7
Vstems\\u000d
p8
(lp9
Vhstem -10 20\\u000d
p10
aVhstem 670 20\\u000d
p11
aVhstem 740 160\\u000d
p12
aVvstem 80 22\\u000d
p13
asasVid\\u000d
p14
V20f437514e1af40be8c24dc21f8c2b5377f763935878751d0f916b0a24db79f93da161b94398d655b1f624ef80903586f6ee7de61cc5c3d777dfe45ae47eda40\\u000d
p15
ss."
EndChar

StartChar: Ccedilla
Encoding: 271 199 18
GlifName: C_cedilla
Width: 705
VWidth: 0
Flags: W
LayerCount: 2
Fore
SplineSet
268 -193 m 257
 268 -164 l 257
 281 -167 302 -170 322 -170 c 256
 363 -170 381 -148 381 -118 c 256
 381 -82 332 -70 302 -67 c 257
 329 -9 l 257
 177 6 80 139 80 340 c 256
 80 553 189 690 358 690 c 256
 496 690 593 606 625 454 c 257
 605 454 l 257
 574 589 484 670 358 670 c 256
 199 670 102 544 102 340 c 256
 102 136 199 10 358 10 c 256
 475 10 565 75 590 184 c 257
 610 184 l 257
 586 79 506 3 390 -8 c 257
 371 -46 l 257
 394 -54 438 -70 438 -123 c 256
 438 -177 393 -209 338 -209 c 256
 305 -209 282 -200 268 -193 c 257
EndSplineSet
PickledDataWithLists: "(dp0
Vpublic.postscript.hints\\u000d
p1
(dp2
VformatVersion\\u000d
p3
V1\\u000d
p4
sVhintSetList\\u000d
p5
(lp6
(dp7
Vstems\\u000d
p8
(lp9
Vhstem -209 39\\u000d
p10
aVhstem -9 19\\u000d
p11
aVhstem 670 20\\u000d
p12
aVvstem 80 22\\u000d
p13
aVvstem 381 57\\u000d
p14
asasVid\\u000d
p15
Vee07936dc474e6c76c98a790612b46833421eceaac68bd55b05eec4d7e8cd077f84bef37d3c58bab24c30e0211ffd48c96329f3ac0ecba46c7fdaad97dd398b1\\u000d
p16
ss."
EndChar

StartChar: Ccircumflex
Encoding: 272 264 19
GlifName: C_circumflex
Width: 705
VWidth: 0
Flags: W
LayerCount: 2
Fore
SplineSet
358 670 m 256
 199 670 102 544 102 340 c 256
 102 136 199 10 358 10 c 256
 475 10 565 75 590 184 c 257
 610 184 l 257
 584 70 491 -10 358 -10 c 256
 189 -10 80 127 80 340 c 256
 80 553 189 690 358 690 c 256
 496 690 593 606 625 454 c 257
 605 454 l 257
 574 589 484 670 358 670 c 256
350 876 m 257
 230 740 l 257
 210 740 l 257
 330 900 l 257
 370 900 l 257
 490 740 l 257
 470 740 l 257
 350 876 l 257
EndSplineSet
PickledDataWithLists: "(dp0
Vpublic.postscript.hints\\u000d
p1
(dp2
VformatVersion\\u000d
p3
V1\\u000d
p4
sVhintSetList\\u000d
p5
(lp6
(dp7
Vstems\\u000d
p8
(lp9
Vhstem -10 20\\u000d
p10
aVhstem 670 20\\u000d
p11
aVhstem 876 24\\u000d
p12
aVvstem 80 22\\u000d
p13
asasVid\\u000d
p14
V4f390ffa78aa9e50c270d2d377b1721e7f6ddb0c09ac0256e5b19eb06500bef9d8f85749756e0539830507a7625210e141dd3206348452d63a65a1460346f7b4\\u000d
p15
ss."
EndChar

StartChar: Cdotaccent
Encoding: 273 266 20
GlifName: C_dotaccent
Width: 705
VWidth: 0
Flags: W
LayerCount: 2
Fore
SplineSet
358 670 m 256
 199 670 102 544 102 340 c 256
 102 136 199 10 358 10 c 256
 475 10 565 75 590 184 c 257
 610 184 l 257
 584 70 491 -10 358 -10 c 256
 189 -10 80 127 80 340 c 256
 80 553 189 690 358 690 c 256
 496 690 593 606 625 454 c 257
 605 454 l 257
 574 589 484 670 358 670 c 256
360 820 m 257
 360 740 l 257
 340 740 l 257
 340 820 l 257
 360 820 l 257
EndSplineSet
PickledDataWithLists: "(dp0
Vpublic.postscript.hints\\u000d
p1
(dp2
VformatVersion\\u000d
p3
V1\\u000d
p4
sVhintSetList\\u000d
p5
(lp6
(dp7
Vstems\\u000d
p8
(lp9
Vhstem -10 20\\u000d
p10
aVhstem 670 20\\u000d
p11
aVhstem 740 80\\u000d
p12
aVvstem 80 22\\u000d
p13
aVvstem 340 20\\u000d
p14
asasVid\\u000d
p15
Vebaa02c052eed4ef0d157bae8b34fa222bb2d8aec77d880e25e64092f5daaecd57c2c9b6775c68be8af740ea84b8a80cfd9d208cba6e145fc0a1306cfab240eb\\u000d
p16
ss."
EndChar

StartChar: D
Encoding: 68 68 21
GlifName: D_
Width: 630
VWidth: 0
Flags: W
AnchorPoint: "top" 260 740 basechar 0
LayerCount: 2
Fore
SplineSet
122 660 m 257
 122 20 l 257
 288 20 l 258
 455 20 529 157 529 340 c 256
 529 523 457 660 288 660 c 258
 122 660 l 257
100 680 m 257
 288 680 l 258
 478 680 550 534 550 340 c 256
 550 146 478 0 288 0 c 258
 100 0 l 257
 100 680 l 257
EndSplineSet
PickledDataWithLists: "(dp0
Vpublic.postscript.hints\\u000d
p1
(dp2
VformatVersion\\u000d
p3
V1\\u000d
p4
sVhintSetList\\u000d
p5
(lp6
(dp7
Vstems\\u000d
p8
(lp9
Vhstem 0 20\\u000d
p10
aVhstem 660 20\\u000d
p11
aVvstem 100 22\\u000d
p12
aVvstem 529 21\\u000d
p13
asasVid\\u000d
p14
V9f114cb19d6bcc8fffba3379813a9acfb9ec46461bb4ee1e03fdb60f322dcd6a6a9dcd8c51a23a867893e2fa86e3821b09d5bab0b8255e77a214c1e286723cca\\u000d
p15
ss."
Substitution2: "c2scCapitalstoSmallCapitalslookup23 subtable" d.sc
Substitution2: "aaltAccessAllAlternateslookup0 subtable" d.sc
EndChar

StartChar: Dcaron
Encoding: 274 270 22
GlifName: D_caron
Width: 630
VWidth: 0
Flags: W
LayerCount: 2
Fore
SplineSet
122 660 m 257
 122 20 l 257
 288 20 l 258
 455 20 529 157 529 340 c 256
 529 523 457 660 288 660 c 258
 122 660 l 257
100 680 m 257
 288 680 l 258
 478 680 550 534 550 340 c 256
 550 146 478 0 288 0 c 258
 100 0 l 257
 100 680 l 257
355 760 m 257
 275 760 l 257
 175 920 l 257
 239 920 l 257
 315 835 l 257
 391 920 l 257
 455 920 l 257
 355 760 l 257
EndSplineSet
PickledDataWithLists: "(dp0
Vpublic.postscript.hints\\u000d
p1
(dp2
VformatVersion\\u000d
p3
V1\\u000d
p4
sVhintSetList\\u000d
p5
(lp6
(dp7
Vstems\\u000d
p8
(lp9
Vhstem 0 20\\u000d
p10
aVhstem 660 20\\u000d
p11
aVhstem 760 160\\u000d
p12
aVvstem 100 22\\u000d
p13
aVvstem 529 21\\u000d
p14
asasVid\\u000d
p15
V5b04d5fa09868a2f291e4e540612288e0be51bf6c245d916ee4251ecfe35488577fba182e1ec283b6472e9c9d428f4432869a0654b70b5fe8f61d17cb9e6c714\\u000d
p16
ss."
EndChar

StartChar: Dcroat
Encoding: 275 272 23
GlifName: D_croat
Width: 705
VWidth: 0
Flags: W
LayerCount: 2
Fore
SplineSet
240 320 m 257
 190 320 l 257
 190 80 l 257
 378 80 l 258
 528 80 570 241 570 350 c 256
 570 498 527 620 378 620 c 258
 190 620 l 257
 190 400 l 257
 240 400 l 257
 240 320 l 257
100 0 m 257
 100 320 l 257
 20 320 l 257
 20 400 l 257
 100 400 l 257
 100 700 l 257
 378 700 l 258
 568 700 660 550 660 350 c 256
 660 147 569 0 378 0 c 258
 100 0 l 257
EndSplineSet
PickledDataWithLists: "(dp0
Vpublic.postscript.hints\\u000d
p1
(dp2
VformatVersion\\u000d
p3
V1\\u000d
p4
sVhintSetList\\u000d
p5
(lp6
(dp7
Vstems\\u000d
p8
(lp9
Vhstem 0 80\\u000d
p10
aVhstem 320 80\\u000d
p11
aVhstem 620 80\\u000d
p12
aVvstem 100 90\\u000d
p13
aVvstem 570 90\\u000d
p14
asasVid\\u000d
p15
V68eaf287c1ec46256c0de6fe18ae9fb2a4b755654749c41151e583a1d3524ba839f7e1b44ef4c249dc19cd980bf33de20fe17af9762de1664f0aef2f41157d79\\u000d
p16
ss."
EndChar

StartChar: E
Encoding: 69 69 24
GlifName: E_
Width: 510
VWidth: 0
Flags: W
AnchorPoint: "top" 270 740 basechar 0
LayerCount: 2
Fore
SplineSet
420 340 m 257
 122 340 l 257
 122 20 l 257
 460 20 l 257
 460 0 l 257
 100 0 l 257
 100 680 l 257
 460 680 l 257
 460 660 l 257
 122 660 l 257
 122 360 l 257
 420 360 l 257
 420 340 l 257
EndSplineSet
PickledDataWithLists: "(dp0
Vpublic.postscript.hints\\u000d
p1
(dp2
VformatVersion\\u000d
p3
V1\\u000d
p4
sVhintSetList\\u000d
p5
(lp6
(dp7
Vstems\\u000d
p8
(lp9
Vhstem 0 20\\u000d
p10
aVhstem 340 20\\u000d
p11
aVhstem 660 20\\u000d
p12
aVvstem 100 22\\u000d
p13
asasVid\\u000d
p14
Vw510m420,340l122,340l122,20l460,20l460,0l100,0l100,680l460,680l460,660l122,660l122,360l420,360\\u000d
p15
ss."
Substitution2: "c2scCapitalstoSmallCapitalslookup23 subtable" e.sc
Substitution2: "aaltAccessAllAlternateslookup0 subtable" e.sc
EndChar

StartChar: Ebreve
Encoding: 277 276 26
GlifName: E_breve
Width: 510
VWidth: 0
Flags: W
LayerCount: 2
Fore
SplineSet
420 340 m 257
 122 340 l 257
 122 20 l 257
 460 20 l 257
 460 0 l 257
 100 0 l 257
 100 680 l 257
 460 680 l 257
 460 660 l 257
 122 660 l 257
 122 360 l 257
 420 360 l 257
 420 340 l 257
100 880 m 257
 180 880 l 257
NamedP: ".hr01"
 180 820 220 800 255 800 c 256
 290 800 330 820 330 880 c 257
 410 880 l 257
 410 780 335 740 255 740 c 256
 175 740 100 780 100 880 c 257
EndSplineSet
PickledDataWithLists: "(dp0
Vpublic.postscript.hints\\u000d
p1
(dp2
VformatVersion\\u000d
p3
V1\\u000d
p4
sVhintSetList\\u000d
p5
(lp6
(dp7
Vstems\\u000d
p8
(lp9
Vhstem 340 20\\u000d
p10
aVvstem 100 22\\u000d
p11
aVhstem 0 20\\u000d
p12
aVhstem 660 20\\u000d
p13
aVhstem 740 60\\u000d
p14
aVvstem 330 80\\u000d
p15
asa(dp16
VpointTag\\u000d
p17
V.hr01\\u000d
p18
sg8
(lp19
Vvstem 100 80\\u000d
p20
aVhstem 740 60\\u000d
p21
aVvstem 330 80\\u000d
p22
aVhstem 0 20\\u000d
p23
aVhstem 340 20\\u000d
p24
aVhstem 660 20\\u000d
p25
asasVid\\u000d
p26
V97f48b6218d1163d9ad2dca3ca454ebabfc0aa9b546f44ec8a2aaf6f87ef1539c80181426386251c38f8631ee4e8981ac6455f34575a0c07c4936ff55572392b\\u000d
p27
ss."
EndChar

StartChar: Ecaron
Encoding: 278 282 27
GlifName: E_caron
Width: 510
VWidth: 0
Flags: W
LayerCount: 2
Fore
SplineSet
420 340 m 257
 122 340 l 257
 122 20 l 257
 460 20 l 257
 460 0 l 257
 100 0 l 257
 100 680 l 257
 460 680 l 257
 460 660 l 257
 122 660 l 257
 122 360 l 257
 420 360 l 257
 420 340 l 257
295 740 m 257
 215 740 l 257
 115 900 l 257
 179 900 l 257
 255 815 l 257
 331 900 l 257
 395 900 l 257
 295 740 l 257
EndSplineSet
PickledDataWithLists: "(dp0
Vpublic.postscript.hints\\u000d
p1
(dp2
VformatVersion\\u000d
p3
V1\\u000d
p4
sVhintSetList\\u000d
p5
(lp6
(dp7
Vstems\\u000d
p8
(lp9
Vhstem 0 20\\u000d
p10
aVhstem 340 20\\u000d
p11
aVhstem 660 20\\u000d
p12
aVhstem 740 160\\u000d
p13
aVvstem 100 22\\u000d
p14
asasVid\\u000d
p15
V0486aea0bc5957fb96054fa1d20dd2ec96d5b741cf030d78333514b68f4c936806180315221e680a567f45bc6c15222c97ff08dbacb33af468b046e981054459\\u000d
p16
ss."
EndChar

StartChar: Edotaccent
Encoding: 281 278 30
GlifName: E_dotaccent
Width: 510
VWidth: 0
Flags: W
LayerCount: 2
Fore
SplineSet
420 340 m 257
 122 340 l 257
 122 20 l 257
 460 20 l 257
 460 0 l 257
 100 0 l 257
 100 680 l 257
 460 680 l 257
 460 660 l 257
 122 660 l 257
 122 360 l 257
 420 360 l 257
 420 340 l 257
265 820 m 257
 265 740 l 257
 245 740 l 257
 245 820 l 257
 265 820 l 257
EndSplineSet
PickledDataWithLists: "(dp0
Vpublic.postscript.hints\\u000d
p1
(dp2
VformatVersion\\u000d
p3
V1\\u000d
p4
sVhintSetList\\u000d
p5
(lp6
(dp7
Vstems\\u000d
p8
(lp9
Vhstem 0 20\\u000d
p10
aVhstem 340 20\\u000d
p11
aVhstem 660 20\\u000d
p12
aVhstem 740 80\\u000d
p13
aVvstem 100 22\\u000d
p14
aVvstem 245 20\\u000d
p15
asasVid\\u000d
p16
Vw510m420,340l122,340l122,20l460,20l460,0l100,0l100,680l460,680l460,660l122,660l122,360l420,360m265,820l265,740l245,740l245,820\\u000d
p17
ss."
EndChar

StartChar: Emacron
Encoding: 283 274 32
GlifName: E_macron
Width: 510
VWidth: 0
Flags: W
LayerCount: 2
Fore
SplineSet
420 340 m 257
 122 340 l 257
 122 20 l 257
 460 20 l 257
 460 0 l 257
 100 0 l 257
 100 680 l 257
 460 680 l 257
 460 660 l 257
 122 660 l 257
 122 360 l 257
 420 360 l 257
 420 340 l 257
390 860 m 257
NamedP: ".hr01"
 390 790 l 257
 120 790 l 257
 120 860 l 257
 390 860 l 257
NamedP: ".hr01"
EndSplineSet
PickledDataWithLists: "(dp0
Vpublic.postscript.hints\\u000d
p1
(dp2
VformatVersion\\u000d
p3
V1\\u000d
p4
sVhintSetList\\u000d
p5
(lp6
(dp7
Vstems\\u000d
p8
(lp9
Vhstem 340 20\\u000d
p10
aVvstem 100 22\\u000d
p11
aVhstem 0 20\\u000d
p12
aVhstem 660 20\\u000d
p13
aVhstem 790 70\\u000d
p14
asa(dp15
VpointTag\\u000d
p16
V.hr01\\u000d
p17
sg8
(lp18
Vhstem 790 70\\u000d
p19
aVvstem 120 270\\u000d
p20
aVhstem 0 20\\u000d
p21
aVhstem 340 20\\u000d
p22
aVhstem 660 20\\u000d
p23
asasVid\\u000d
p24
Vw510m420,340l122,340l122,20l460,20l460,0l100,0l100,680l460,680l460,660l122,660l122,360l420,360m390,860l390,790l120,790l120,860\\u000d
p25
ss."
EndChar

StartChar: Eogonek
Encoding: 284 280 33
GlifName: E_ogonek
Width: 510
VWidth: 0
Flags: W
LayerCount: 2
Fore
SplineSet
460 80 m 257
 460 0 l 257
 308 0 l 257
 268 -31 245 -67 245 -104 c 256
 245 -135 267 -150 291 -150 c 256
 307 -150 320 -145 331 -137 c 257
 353 -178 l 257
 334 -193 299 -205 274 -205 c 256
 224 -205 184 -176 184 -120 c 256
 184 -69 218 -26 250 0 c 257
 50 0 l 257
 50 700 l 257
 460 700 l 257
 460 620 l 257
 140 620 l 257
 140 397 l 257
 420 397 l 257
 420 317 l 257
 140 317 l 257
 140 80 l 257
 460 80 l 257
EndSplineSet
PickledDataWithLists: "(dp0
Vpublic.postscript.hints\\u000d
p1
(dp2
VformatVersion\\u000d
p3
V1\\u000d
p4
sVhintSetList\\u000d
p5
(lp6
(dp7
Vstems\\u000d
p8
(lp9
Vhstem -205 55\\u000d
p10
aVhstem 0 80\\u000d
p11
aVhstem 317 80\\u000d
p12
aVhstem 620 80\\u000d
p13
aVvstem 50 90\\u000d
p14
aVvstem 184 61\\u000d
p15
asasVid\\u000d
p16
Vfc9ab77d562256b1048dab1d948346bccb5722ee4854eddedc60b719704469b8b4e95281d9dc16854ee27754d64dbe6441e6706eb8356f400f95a0aa738d6bc2\\u000d
p17
ss."
EndChar

StartChar: Eth
Encoding: 285 208 34
GlifName: E_th
Width: 660
VWidth: 0
Flags: W
LayerCount: 2
Fore
SplineSet
290 320 m 257
 140 320 l 257
 140 80 l 257
 328 80 l 258
 478 80 520 241 520 350 c 256
 520 498 477 620 328 620 c 258
 140 620 l 257
 140 400 l 257
 290 400 l 257
 290 320 l 257
50 0 m 257
 50 320 l 257
 10 320 l 257
 10 400 l 257
 50 400 l 257
 50 700 l 257
 328 700 l 258
 528 700 610 534 610 350 c 256
 610 147 519 0 328 0 c 258
 50 0 l 257
EndSplineSet
PickledDataWithLists: "(dp0
Vpublic.postscript.hints\\u000d
p1
(dp2
VformatVersion\\u000d
p3
V1\\u000d
p4
sVhintSetList\\u000d
p5
(lp6
(dp7
Vstems\\u000d
p8
(lp9
Vhstem 0 80\\u000d
p10
aVhstem 320 80\\u000d
p11
aVhstem 620 80\\u000d
p12
aVvstem 50 90\\u000d
p13
aVvstem 520 90\\u000d
p14
asasVid\\u000d
p15
Vd34929c7aa7d21450cba22700ec6921c33acbb2748baf898d92e8df8e27f9c9e277d0bfd8262b08c7462cefd1be9949d912feb66788ca0d1f10b8db0ddd077b5\\u000d
p16
ss."
EndChar

StartChar: F
Encoding: 70 70 35
GlifName: F_
Width: 510
VWidth: 0
Flags: W
AnchorPoint: "top" 270 740 basechar 0
LayerCount: 2
Fore
SplineSet
420 340 m 257
 122 340 l 257
 122 0 l 257
 100 0 l 257
 100 680 l 257
 460 680 l 257
 460 660 l 257
 122 660 l 257
 122 360 l 257
 420 360 l 257
 420 340 l 257
EndSplineSet
PickledDataWithLists: "(dp0
Vpublic.postscript.hints\\u000d
p1
(dp2
VformatVersion\\u000d
p3
V1\\u000d
p4
sVhintSetList\\u000d
p5
(lp6
(dp7
Vstems\\u000d
p8
(lp9
Vhstem 340 20\\u000d
p10
aVhstem 660 20\\u000d
p11
aVvstem 100 22\\u000d
p12
asasVid\\u000d
p13
Vw510m420,340l122,340l122,0l100,0l100,680l460,680l460,660l122,660l122,360l420,360\\u000d
p14
ss."
Substitution2: "c2scCapitalstoSmallCapitalslookup23 subtable" f.sc
Substitution2: "aaltAccessAllAlternateslookup0 subtable" f.sc
EndChar

StartChar: G
Encoding: 71 71 36
GlifName: G_
Width: 707
VWidth: 0
Flags: W
AnchorPoint: "top" 350 740 basechar 0
LayerCount: 2
Fore
SplineSet
358 670 m 256
 199 670 102 544 102 340 c 256
 102 136 199 10 358 10 c 256
 453 10 548 73 595 151 c 257
 595 280 l 257
 388 280 l 257
 388 300 l 257
 617 300 l 257
 617 0 l 257
 595 0 l 257
 595 113 l 257
 549 44 450 -10 358 -10 c 256
 189 -10 80 127 80 340 c 256
 80 553 189 690 358 690 c 256
 496 690 593 606 625 454 c 257
 605 454 l 257
 574 589 484 670 358 670 c 256
EndSplineSet
PickledDataWithLists: "(dp0
Vpublic.postscript.hints\\u000d
p1
(dp2
VformatVersion\\u000d
p3
V1\\u000d
p4
sVhintSetList\\u000d
p5
(lp6
(dp7
Vstems\\u000d
p8
(lp9
Vhstem -10 20\\u000d
p10
aVhstem 280 20\\u000d
p11
aVhstem 670 20\\u000d
p12
aVvstem 80 22\\u000d
p13
aVvstem 595 22\\u000d
p14
asasVid\\u000d
p15
V4a5869cf116fa575701c21f92ce82cf3b380ac13031484c71ba048c19e195418bb2e9362fd535a15816a102b61ee28a6a0e771daefba08df453f05b5b66a4d2b\\u000d
p16
ss."
Substitution2: "c2scCapitalstoSmallCapitalslookup23 subtable" g.sc
Substitution2: "aaltAccessAllAlternateslookup0 subtable" g.sc
EndChar

StartChar: Gbreve
Encoding: 286 286 37
GlifName: G_breve
Width: 707
VWidth: 0
Flags: W
LayerCount: 2
Fore
SplineSet
358 670 m 256
 199 670 102 544 102 340 c 256
 102 136 199 10 358 10 c 256
 453 10 548 73 595 151 c 257
 595 280 l 257
 388 280 l 257
 388 300 l 257
 617 300 l 257
 617 0 l 257
 595 0 l 257
 595 113 l 257
 549 44 450 -10 358 -10 c 256
 189 -10 80 127 80 340 c 256
 80 553 189 690 358 690 c 256
 496 690 593 606 625 454 c 257
 605 454 l 257
 574 589 484 670 358 670 c 256
203 880 m 257
 283 880 l 257
 283 820 323 800 358 800 c 256
 393 800 433 820 433 880 c 257
 513 880 l 257
 513 780 438 740 358 740 c 256
 278 740 203 780 203 880 c 257
EndSplineSet
PickledDataWithLists: "(dp0
Vpublic.postscript.hints\\u000d
p1
(dp2
VformatVersion\\u000d
p3
V1\\u000d
p4
sVhintSetList\\u000d
p5
(lp6
(dp7
Vstems\\u000d
p8
(lp9
Vhstem -10 20\\u000d
p10
aVhstem 280 20\\u000d
p11
aVhstem 670 20\\u000d
p12
aVhstem 740 60\\u000d
p13
aVvstem 80 22\\u000d
p14
aVvstem 203 80\\u000d
p15
aVvstem 433 80\\u000d
p16
aVvstem 595 22\\u000d
p17
asasVid\\u000d
p18
Vd2094877ad7f00f3d92b8b7686fc98930f4937c4947c7ee0e689f56de700460576f053ca5d864650e80565692bc3184faa44b8b2ed75379faa16f05510192ab0\\u000d
p19
ss."
EndChar

StartChar: Gcaron
Encoding: 287 486 38
GlifName: G_caron
Width: 647
VWidth: 0
Flags: W
LayerCount: 2
Fore
SplineSet
288 770 m 257
 168 950 l 257
 232 950 l 257
 328 823 l 257
 424 950 l 257
 488 950 l 257
 368 770 l 257
 288 770 l 257
50 350 m 256
 50 560 146 710 328 710 c 256
 477 710 566 615 597 474 c 257
 508 474 l 257
 484 567 434 630 328 630 c 256
 189 630 140 502 140 350 c 256
 140 200 187 70 328 70 c 256
 415 70 468 120 498 184 c 257
 498 240 l 257
 327 240 l 257
 327 320 l 257
 587 320 l 257
 587 0 l 257
 498 0 l 257
 498 85 l 257
 456 24 401 -10 334 -10 c 256
 141 -10 50 138 50 350 c 256
EndSplineSet
PickledDataWithLists: "(dp0
Vpublic.postscript.hints\\u000d
p1
(dp2
VformatVersion\\u000d
p3
V1\\u000d
p4
sVhintSetList\\u000d
p5
(lp6
(dp7
Vstems\\u000d
p8
(lp9
Vhstem -10 80\\u000d
p10
aVhstem 240 80\\u000d
p11
aVhstem 630 80\\u000d
p12
aVhstem 770 180\\u000d
p13
aVvstem 50 90\\u000d
p14
aVvstem 498 89\\u000d
p15
asasVid\\u000d
p16
V926435efa30edcbd5152fdc4a5b138d2db7e5f98befdd2448dbaa13fd60d3efadec97f72dfa8fc7b5bcee68f6d6e687ab4c3d2d56765257b21ad7bde1067e3b0\\u000d
p17
ss."
EndChar

StartChar: Gcircumflex
Encoding: 288 284 39
GlifName: G_circumflex
Width: 707
VWidth: 0
Flags: W
LayerCount: 2
Fore
SplineSet
358 670 m 256
 199 670 102 544 102 340 c 256
 102 136 199 10 358 10 c 256
 453 10 548 73 595 151 c 257
 595 280 l 257
 388 280 l 257
 388 300 l 257
 617 300 l 257
 617 0 l 257
 595 0 l 257
 595 113 l 257
 549 44 450 -10 358 -10 c 256
 189 -10 80 127 80 340 c 256
 80 553 189 690 358 690 c 256
 496 690 593 606 625 454 c 257
 605 454 l 257
 574 589 484 670 358 670 c 256
358 876 m 257
 238 740 l 257
 218 740 l 257
 338 900 l 257
 378 900 l 257
 498 740 l 257
 478 740 l 257
 358 876 l 257
EndSplineSet
PickledDataWithLists: "(dp0
Vpublic.postscript.hints\\u000d
p1
(dp2
VformatVersion\\u000d
p3
V1\\u000d
p4
sVhintSetList\\u000d
p5
(lp6
(dp7
Vstems\\u000d
p8
(lp9
Vhstem -10 20\\u000d
p10
aVhstem 280 20\\u000d
p11
aVhstem 670 20\\u000d
p12
aVhstem 876 24\\u000d
p13
aVvstem 80 22\\u000d
p14
aVvstem 595 22\\u000d
p15
asasVid\\u000d
p16
Vdb62e4fef56bb0982059f49e7514985220b7862a6b6f179a01a0d379778133b0b88e99aa330099eac56d007ab57ba8ca61d6ca4105afeb7cd06c3ab452de5b0e\\u000d
p17
ss."
EndChar

StartChar: Gdotaccent
Encoding: 289 288 40
GlifName: G_dotaccent
Width: 707
VWidth: 0
Flags: W
LayerCount: 2
Fore
SplineSet
358 670 m 256
 199 670 102 544 102 340 c 256
 102 136 199 10 358 10 c 256
 453 10 548 73 595 151 c 257
 595 280 l 257
 388 280 l 257
 388 300 l 257
 617 300 l 257
 617 0 l 257
 595 0 l 257
 595 113 l 257
 549 44 450 -10 358 -10 c 256
 189 -10 80 127 80 340 c 256
 80 553 189 690 358 690 c 256
 496 690 593 606 625 454 c 257
 605 454 l 257
 574 589 484 670 358 670 c 256
368 820 m 257
 368 740 l 257
 348 740 l 257
 348 820 l 257
 368 820 l 257
EndSplineSet
PickledDataWithLists: "(dp0
Vpublic.postscript.hints\\u000d
p1
(dp2
VformatVersion\\u000d
p3
V1\\u000d
p4
sVhintSetList\\u000d
p5
(lp6
(dp7
Vstems\\u000d
p8
(lp9
Vhstem -10 20\\u000d
p10
aVhstem 280 20\\u000d
p11
aVhstem 670 20\\u000d
p12
aVhstem 740 80\\u000d
p13
aVvstem 80 22\\u000d
p14
aVvstem 348 20\\u000d
p15
aVvstem 595 22\\u000d
p16
asasVid\\u000d
p17
V90c872d2e4f422bd56ef245f2903c7297d1c7063dc3bbc5c407d921f54d06703b46963e5d930b19b6ee2c0d46cd1fb8fcf5c5fa76d6f7a3abca793850bc90213\\u000d
p18
ss."
EndChar

StartChar: H
Encoding: 72 72 41
GlifName: H_
Width: 602
VWidth: 0
Flags: W
AnchorPoint: "top" 300 740 basechar 0
LayerCount: 2
Fore
SplineSet
502 680 m 257
 502 0 l 257
 480 0 l 257
 480 337 l 257
 122 337 l 257
 122 0 l 257
 100 0 l 257
 100 680 l 257
 122 680 l 257
 122 357 l 257
 480 357 l 257
 480 680 l 257
 502 680 l 257
EndSplineSet
PickledDataWithLists: "(dp0
Vpublic.postscript.hints\\u000d
p1
(dp2
VformatVersion\\u000d
p3
V1\\u000d
p4
sVhintSetList\\u000d
p5
(lp6
(dp7
Vstems\\u000d
p8
(lp9
Vhstem 337 20\\u000d
p10
aVvstem 100 22\\u000d
p11
aVvstem 480 22\\u000d
p12
asasVid\\u000d
p13
Vw602m502,680l502,0l480,0l480,337l122,337l122,0l100,0l100,680l122,680l122,357l480,357l480,680\\u000d
p14
ss."
Substitution2: "c2scCapitalstoSmallCapitalslookup23 subtable" h.sc
Substitution2: "aaltAccessAllAlternateslookup0 subtable" h.sc
EndChar

StartChar: Hcircumflex
Encoding: 290 292 42
GlifName: H_circumflex
Width: 602
VWidth: 0
Flags: W
LayerCount: 2
Fore
SplineSet
502 680 m 257
 502 0 l 257
 480 0 l 257
 480 337 l 257
 122 337 l 257
 122 0 l 257
 100 0 l 257
 100 680 l 257
 122 680 l 257
 122 357 l 257
 480 357 l 257
 480 680 l 257
 502 680 l 257
301 896 m 257
 181 760 l 257
 161 760 l 257
 281 920 l 257
 321 920 l 257
 441 760 l 257
 421 760 l 257
 301 896 l 257
EndSplineSet
PickledDataWithLists: "(dp0
Vpublic.postscript.hints\\u000d
p1
(dp2
VformatVersion\\u000d
p3
V1\\u000d
p4
sVhintSetList\\u000d
p5
(lp6
(dp7
Vstems\\u000d
p8
(lp9
Vhstem 337 20\\u000d
p10
aVhstem 896 24\\u000d
p11
aVvstem 100 22\\u000d
p12
aVvstem 480 22\\u000d
p13
asasVid\\u000d
p14
V88c458292b7076273cada6f10f83afb37e35d19fcc3c3f4fed8e5dcf8017885e85536f522bf5749a64f7fa560a7c2ce21d5dbb00db42cf48a99e3a25c67260b8\\u000d
p15
ss."
EndChar

StartChar: I
Encoding: 73 73 43
GlifName: I_
Width: 222
VWidth: 0
Flags: W
AnchorPoint: "top" 110 740 basechar 0
LayerCount: 2
Fore
SplineSet
122 0 m 257
 100 0 l 257
 100 680 l 257
 122 680 l 257
 122 0 l 257
EndSplineSet
PickledDataWithLists: "(dp0
Vpublic.postscript.hints\\u000d
p1
(dp2
VformatVersion\\u000d
p3
V1\\u000d
p4
sVhintSetList\\u000d
p5
(lp6
(dp7
Vstems\\u000d
p8
(lp9
Vvstem 100 22\\u000d
p10
asasVid\\u000d
p11
Vw222m122,0l100,0l100,680l122,680\\u000d
p12
ss."
Substitution2: "c2scCapitalstoSmallCapitalslookup23 subtable" i.sc
Substitution2: "aaltAccessAllAlternateslookup0 subtable" i.sc
EndChar

StartChar: Ibreve
Encoding: 293 300 46
GlifName: I_breve
Width: 222
VWidth: 0
Flags: W
LayerCount: 2
Fore
SplineSet
122 0 m 257
 100 0 l 257
 100 680 l 257
 122 680 l 257
 122 0 l 257
-44 880 m 257
 36 880 l 257
 36 820 76 800 111 800 c 256
 146 800 186 820 186 880 c 257
 266 880 l 257
 266 780 191 740 111 740 c 256
 31 740 -44 780 -44 880 c 257
EndSplineSet
PickledDataWithLists: "(dp0
Vpublic.postscript.hints\\u000d
p1
(dp2
VformatVersion\\u000d
p3
V1\\u000d
p4
sVhintSetList\\u000d
p5
(lp6
(dp7
Vstems\\u000d
p8
(lp9
Vhstem 740 60\\u000d
p10
aVvstem -44 80\\u000d
p11
aVvstem 100 22\\u000d
p12
aVvstem 186 80\\u000d
p13
asasVid\\u000d
p14
V5b72c3d30f860819796c2c622be15714a0ff5393edc00f9db40503da2a35638873d576f691a90e13f6ce4b7c0296bbe8773f2f0e5acc474bf6428784627b814f\\u000d
p15
ss."
EndChar

StartChar: Idotaccent
Encoding: 296 304 49
GlifName: I_dotaccent
Width: 222
VWidth: 0
Flags: W
LayerCount: 2
Fore
SplineSet
122 0 m 257
 100 0 l 257
 100 680 l 257
 122 680 l 257
 122 0 l 257
121 740 m 257
 101 740 l 257
 101 820 l 257
 121 820 l 257
 121 740 l 257
EndSplineSet
PickledDataWithLists: "(dp0
Vpublic.postscript.hints\\u000d
p1
(dp2
VformatVersion\\u000d
p3
V1\\u000d
p4
sVhintSetList\\u000d
p5
(lp6
(dp7
Vstems\\u000d
p8
(lp9
Vhstem 740 80\\u000d
p10
aVvstem 100 22\\u000d
p11
asasVid\\u000d
p12
Vw222m122,0l100,0l100,680l122,680m121,740l101,740l101,820l121,820\\u000d
p13
ss."
EndChar

StartChar: Imacron
Encoding: 298 298 51
GlifName: I_macron
Width: 190
VWidth: 0
Flags: W
LayerCount: 2
Fore
SplineSet
230 750 m 257
 -40 750 l 257
 -40 820 l 257
 230 820 l 257
 230 750 l 257
72 0 m 257
 50 0 l 257
 50 680 l 257
 72 680 l 257
 72 0 l 257
EndSplineSet
PickledDataWithLists: "(dp0
Vpublic.postscript.hints\\u000d
p1
(dp2
VformatVersion\\u000d
p3
V1\\u000d
p4
sVhintSetList\\u000d
p5
(lp6
(dp7
Vstems\\u000d
p8
(lp9
Vhstem 750 70\\u000d
p10
aVvstem 50 22\\u000d
p11
asasVid\\u000d
p12
Vw190m230,750l-40,750l-40,820l230,820m72,0l50,0l50,680l72,680\\u000d
p13
ss."
EndChar

StartChar: Iogonek
Encoding: 299 302 52
GlifName: I_ogonek
Width: 222
VWidth: 0
Flags: W
LayerCount: 2
Fore
SplineSet
48 -143 m 256
 48 -96 67 -56 114 0 c 257
 100 0 l 257
 100 680 l 257
 122 680 l 257
 122 0 l 257
 134 0 l 257
 85 -59 68 -93 68 -137 c 256
 68 -172 84 -190 121 -190 c 256
 138 -190 154 -182 164 -172 c 257
 174 -189 l 257
 154 -205 139 -210 117 -210 c 256
 72 -210 48 -185 48 -143 c 256
EndSplineSet
PickledDataWithLists: "(dp0
Vpublic.postscript.hints\\u000d
p1
(dp2
VformatVersion\\u000d
p3
V1\\u000d
p4
sVhintSetList\\u000d
p5
(lp6
(dp7
Vstems\\u000d
p8
(lp9
Vhstem -210 20\\u000d
p10
aVvstem 48 20\\u000d
p11
aVvstem 100 22\\u000d
p12
asasVid\\u000d
p13
Ve1425baa74c9c4e637dcb518042ff9abc79739a2657dd48840510ba97df44b41cae4d3e85a7a562fdb53c7f98577a9506d23e03c962b1604657aa6d06089d124\\u000d
p14
ss."
EndChar

StartChar: Itilde
Encoding: 300 296 53
GlifName: I_tilde
Width: 222
VWidth: 0
Flags: W
LayerCount: 2
Fore
SplineSet
122 0 m 257
 100 0 l 257
 100 680 l 257
 122 680 l 257
 122 0 l 257
8 760 m 257
 -42 760 l 257
 -28 847 8 880 48 880 c 256
 73 880 95 870 117 859 c 257
 133 850 154 840 174 840 c 256
 194 840 209 852 214 880 c 257
NamedP: ".hr03"
 264 880 l 257
 250 793 214 760 174 760 c 256
 149 760 128 769 107 780 c 256
 90 789 68 800 48 800 c 256
 28 800 13 788 8 760 c 257
EndSplineSet
PickledDataWithLists: "(dp0
Vpublic.postscript.hints\\u000d
p1
(dp2
VformatVersion\\u000d
p3
V1\\u000d
p4
sVhintSetList\\u000d
p5
(lp6
(dp7
Vstems\\u000d
p8
(lp9
Vvstem 100 22\\u000d
p10
aVhstem 760 80\\u000d
p11
asa(dp12
VpointTag\\u000d
p13
V.hr01\\u000d
p14
sg8
(lp15
Vhstem 800 80\\u000d
p16
aVvstem 100 22\\u000d
p17
asa(dp18
g13
V.hr02\\u000d
p19
sg8
(lp20
Vhstem 760 80\\u000d
p21
aVvstem 100 22\\u000d
p22
asa(dp23
g13
V.hr03\\u000d
p24
sg8
(lp25
Vhstem 800 80\\u000d
p26
aVvstem 100 22\\u000d
p27
asa(dp28
g13
V.hr04\\u000d
p29
sg8
(lp30
Vhstem 760 80\\u000d
p31
aVvstem 100 22\\u000d
p32
asa(dp33
g13
V.hr05\\u000d
p34
sg8
(lp35
Vhstem 800 80\\u000d
p36
aVvstem 100 22\\u000d
p37
asa(dp38
g13
Vlsb\\u000d
p39
sg8
(lp40
Vhstem 760 80\\u000d
p41
aVvstem 100 22\\u000d
p42
asasVid\\u000d
p43
V7c491153153f0c3d01d43378f53a49400f63ae1c1e5449de9633701f6557daf93320a2c13fa4ca9559b36b4806deb0d3373a10f3afc5886c923cbfce24fac1e2\\u000d
p44
ss."
EndChar

StartChar: J
Encoding: 74 74 54
GlifName: J_
Width: 270
VWidth: 0
Flags: W
AnchorPoint: "top" 158 740 basechar 0
LayerCount: 2
Fore
SplineSet
74 0 m 258
 50 0 l 257
 50 20 l 257
 76 20 l 258
 116 20 148 86 148 150 c 258
 148 680 l 257
 170 680 l 257
 170 164 l 258
 170 60 128 0 74 0 c 258
EndSplineSet
PickledDataWithLists: "(dp0
Vpublic.postscript.hints\\u000d
p1
(dp2
VformatVersion\\u000d
p3
V1\\u000d
p4
sVhintSetList\\u000d
p5
(lp6
(dp7
Vstems\\u000d
p8
(lp9
Vhstem 0 20\\u000d
p10
aVvstem 148 22\\u000d
p11
asasVid\\u000d
p12
Vw270m74,0l50,0l50,20l76,20c116,20 148,86 148,150l148,680l170,680l170,164c170,60 128,0 74,0\\u000d
p13
ss."
Substitution2: "c2scCapitalstoSmallCapitalslookup23 subtable" j.sc
Substitution2: "aaltAccessAllAlternateslookup0 subtable" j.sc
EndChar

StartChar: Jcircumflex
Encoding: 301 308 55
GlifName: J_circumflex
Width: 286
VWidth: 0
Flags: W
LayerCount: 2
Fore
SplineSet
74 0 m 258
 50 0 l 257
 50 20 l 257
 76 20 l 258
 116 20 148 86 148 150 c 258
 148 680 l 257
 170 680 l 257
 170 164 l 258
 170 60 128 0 74 0 c 258
193 886 m 257
 73 750 l 257
 53 750 l 257
 173 910 l 257
 213 910 l 257
 333 750 l 257
 313 750 l 257
 193 886 l 257
EndSplineSet
PickledDataWithLists: "(dp0
Vpublic.postscript.hints\\u000d
p1
(dp2
VformatVersion\\u000d
p3
V1\\u000d
p4
sVhintSetList\\u000d
p5
(lp6
(dp7
Vstems\\u000d
p8
(lp9
Vhstem 0 20\\u000d
p10
aVhstem 886 24\\u000d
p11
aVvstem 148 22\\u000d
p12
asasVid\\u000d
p13
V28e03f9eef804631a3a941b9a97fbf0c639104ec14e31883a6bcf465e4efbd04be4a11f9448905a97d11d138ef5696de1b86bfcafc51f682863d8d06f7cf90ba\\u000d
p14
ss."
EndChar

StartChar: K
Encoding: 75 75 56
GlifName: K_
Width: 496
VWidth: 0
Flags: W
AnchorPoint: "top" 250 740 basechar 0
LayerCount: 2
Fore
SplineSet
122 314 m 257
 122 0 l 257
 100 0 l 257
 100 680 l 257
 122 680 l 257
 122 337 l 257
 225 354 l 257
 420 680 l 257
 446 680 l 257
 246 350 l 257
 486 0 l 257
 460 0 l 257
 230 334 l 257
 122 314 l 257
EndSplineSet
PickledDataWithLists: "(dp0
Vpublic.postscript.hints\\u000d
p1
(dp2
VformatVersion\\u000d
p3
V1\\u000d
p4
sVhintSetList\\u000d
p5
(lp6
(dp7
Vstems\\u000d
p8
(lp9
Vvstem 100 22\\u000d
p10
asasVid\\u000d
p11
Vw496m122,314l122,0l100,0l100,680l122,680l122,337l225,354l420,680l446,680l246,350l486,0l460,0l230,334\\u000d
p12
ss."
Substitution2: "c2scCapitalstoSmallCapitalslookup23 subtable" k.sc
Substitution2: "aaltAccessAllAlternateslookup0 subtable" k.sc
EndChar

StartChar: L
Encoding: 76 76 57
GlifName: L_
Width: 560
VWidth: 0
Flags: W
AnchorPoint: "top" 110 740 basechar 0
LayerCount: 2
Fore
SplineSet
122 680 m 257
 122 20 l 257
 451 20 l 257
 451 0 l 257
 100 0 l 257
 100 680 l 257
 122 680 l 257
EndSplineSet
PickledDataWithLists: "(dp0
Vpublic.postscript.hints\\u000d
p1
(dp2
VformatVersion\\u000d
p3
V1\\u000d
p4
sVhintSetList\\u000d
p5
(lp6
(dp7
Vstems\\u000d
p8
(lp9
Vhstem 0 20\\u000d
p10
aVvstem 100 22\\u000d
p11
asasVid\\u000d
p12
Vw560m122,680l122,20l451,20l451,0l100,0l100,680\\u000d
p13
ss."
Substitution2: "c2scCapitalstoSmallCapitalslookup23 subtable" l.sc
Substitution2: "aaltAccessAllAlternateslookup0 subtable" l.sc
EndChar

StartChar: Lacute
Encoding: 302 313 58
GlifName: L_acute
Width: 560
VWidth: 0
Flags: W
LayerCount: 2
Fore
SplineSet
122 680 m 257
 122 20 l 257
 451 20 l 257
 451 0 l 257
 100 0 l 257
 100 680 l 257
 122 680 l 257
207 890 m 257
 149 710 l 257
 135 710 l 257
 185 890 l 257
 207 890 l 257
EndSplineSet
PickledDataWithLists: "(dp0
Vpublic.postscript.hints\\u000d
p1
(dp2
VformatVersion\\u000d
p3
V1\\u000d
p4
sVhintSetList\\u000d
p5
(lp6
(dp7
Vstems\\u000d
p8
(lp9
Vhstem 0 20\\u000d
p10
aVvstem 100 22\\u000d
p11
asasVid\\u000d
p12
Vw560m122,680l122,20l451,20l451,0l100,0l100,680m207,890l149,710l135,710l185,890\\u000d
p13
ss."
EndChar

StartChar: Lcaron
Encoding: 303 317 59
GlifName: L_caron
Width: 510
VWidth: 0
Flags: W
LayerCount: 2
Fore
SplineSet
304 490 m 257
 270 490 l 257
 292 620 l 257
 270 620 l 257
 270 700 l 257
 350 700 l 257
 350 620 l 257
 304 490 l 257
460 0 m 257
 50 0 l 257
 50 700 l 257
 140 700 l 257
 140 80 l 257
 460 80 l 257
 460 0 l 257
EndSplineSet
PickledDataWithLists: "(dp0
Vpublic.postscript.hints\\u000d
p1
(dp2
VformatVersion\\u000d
p3
V1\\u000d
p4
sVhintSetList\\u000d
p5
(lp6
(dp7
Vstems\\u000d
p8
(lp9
Vhstem 0 80\\u000d
p10
aVhstem 620 80\\u000d
p11
aVvstem 50 90\\u000d
p12
aVvstem 270 80\\u000d
p13
asasVid\\u000d
p14
Vw510m304,490l270,490l292,620l270,620l270,700l350,700l350,620m460,0l50,0l50,700l140,700l140,80l460,80\\u000d
p15
ss."
EndChar

StartChar: Ldot
Encoding: 304 319 60
GlifName: L_dot
Width: 510
VWidth: 0
Flags: W
LayerCount: 2
Fore
SplineSet
295 395 m 257
 295 315 l 257
 215 315 l 257
 215 395 l 257
 295 395 l 257
460 80 m 257
 460 0 l 257
 50 0 l 257
 50 700 l 257
 140 700 l 257
 140 80 l 257
 460 80 l 257
EndSplineSet
PickledDataWithLists: "(dp0
Vpublic.postscript.hints\\u000d
p1
(dp2
VformatVersion\\u000d
p3
V1\\u000d
p4
sVhintSetList\\u000d
p5
(lp6
(dp7
Vstems\\u000d
p8
(lp9
Vhstem 0 80\\u000d
p10
aVhstem 315 80\\u000d
p11
aVvstem 50 90\\u000d
p12
aVvstem 215 80\\u000d
p13
asasVid\\u000d
p14
Vw510m295,395l295,315l215,315l215,395m460,80l460,0l50,0l50,700l140,700l140,80\\u000d
p15
ss."
EndChar

StartChar: Lslash
Encoding: 305 321 61
GlifName: L_slash
Width: 610
VWidth: 0
Flags: W
LayerCount: 2
Fore
SplineSet
111 170 m 257
 20 170 l 257
 170 425 l 257
 170 700 l 257
 260 700 l 257
 260 579 l 257
 319 679 l 257
 348 679 378 679 407 679 c 257
 260 426 l 257
 260 80 l 257
 580 80 l 257
 580 0 l 257
 170 0 l 257
 170 271 l 257
 111 170 l 257
EndSplineSet
PickledDataWithLists: "(dp0
Vpublic.postscript.hints\\u000d
p1
(dp2
VformatVersion\\u000d
p3
V1\\u000d
p4
sVhintSetList\\u000d
p5
(lp6
(dp7
Vstems\\u000d
p8
(lp9
Vhstem 0 80\\u000d
p10
aVvstem 170 90\\u000d
p11
asasVid\\u000d
p12
Vw610m111,170l20,170l170,425l170,700l260,700l260,579l319,679c348,679 378,679 407,679l260,426l260,80l580,80l580,0l170,0l170,271\\u000d
p13
ss."
EndChar

StartChar: M
Encoding: 77 77 62
GlifName: M_
Width: 744
VWidth: 0
Flags: W
AnchorPoint: "top" 370 740 basechar 0
LayerCount: 2
Fore
SplineSet
644 680 m 257
 644 0 l 257
 622 0 l 257
 622 627 l 257
 383 0 l 257
 361 0 l 257
 122 627 l 257
 122 0 l 257
 100 0 l 257
 100 680 l 257
 124 680 l 257
 356 80 l 258
 362 64 368 46 372 31 c 257
 376 46 382 64 388 80 c 258
 620 680 l 257
 644 680 l 257
EndSplineSet
PickledDataWithLists: "(dp0
Vpublic.postscript.hints\\u000d
p1
(dp2
VformatVersion\\u000d
p3
V1\\u000d
p4
sVhintSetList\\u000d
p5
(lp6
(dp7
Vstems\\u000d
p8
(lp9
Vhstem 0 31\\u000d
p10
aVvstem 100 22\\u000d
p11
aVvstem 622 22\\u000d
p12
asasVid\\u000d
p13
V40deea5cd15e91c7157403c3df72d0f4371c44a8dcf1021c1ffe1aeaa80fb0decc427d2049053419f6c920c0ffd8ebf749b6daae9ff80a06e05915e179f4fc3a\\u000d
p14
ss."
Substitution2: "c2scCapitalstoSmallCapitalslookup23 subtable" m.sc
Substitution2: "aaltAccessAllAlternateslookup0 subtable" m.sc
EndChar

StartChar: N
Encoding: 78 78 63
GlifName: N_
Width: 618
VWidth: 0
Flags: W
AnchorPoint: "top" 302 740 basechar 0
LayerCount: 2
Fore
SplineSet
122 580 m 258
 122 0 l 257
 100 0 l 257
 100 680 l 257
 124 680 l 257
 498 37 l 257
 496 61 496 83 496 100 c 258
 496 680 l 257
 518 680 l 257
 518 0 l 257
 494 0 l 257
 120 643 l 257
 122 619 122 597 122 580 c 258
EndSplineSet
PickledDataWithLists: "(dp0
Vpublic.postscript.hints\\u000d
p1
(dp2
VformatVersion\\u000d
p3
V1\\u000d
p4
sVhintSetList\\u000d
p5
(lp6
(dp7
Vstems\\u000d
p8
(lp9
Vhstem 0 37\\u000d
p10
aVhstem 643 37\\u000d
p11
aVvstem 100 22\\u000d
p12
aVvstem 496 22\\u000d
p13
asasVid\\u000d
p14
Vaee9d83cf49ac841b470fbca7240b5abed3d2f90b589039c2e4479b9016221f77bbd63b1759728aec72f62903c548a50db6d425a8a46bdb841829eeec239c2c4\\u000d
p15
ss."
Substitution2: "c2scCapitalstoSmallCapitalslookup23 subtable" n.sc
Substitution2: "aaltAccessAllAlternateslookup0 subtable" n.sc
EndChar

StartChar: Ncaron
Encoding: 307 327 65
GlifName: N_caron
Width: 560
VWidth: 0
Flags: W
LayerCount: 2
Fore
SplineSet
240 770 m 257
 120 950 l 257
 184 950 l 257
 280 823 l 257
 376 950 l 257
 440 950 l 257
 320 770 l 257
 240 770 l 257
140 0 m 257
 50 0 l 257
 50 700 l 257
 190 700 l 257
 420 105 l 257
 420 700 l 257
 510 700 l 257
 510 0 l 257
 370 0 l 257
 140 597 l 257
 140 0 l 257
EndSplineSet
PickledDataWithLists: "(dp0
Vpublic.postscript.hints\\u000d
p1
(dp2
VformatVersion\\u000d
p3
V1\\u000d
p4
sVhintSetList\\u000d
p5
(lp6
(dp7
Vstems\\u000d
p8
(lp9
Vhstem 0 105\\u000d
p10
aVhstem 597 103\\u000d
p11
aVhstem 770 180\\u000d
p12
aVvstem 50 90\\u000d
p13
aVvstem 420 90\\u000d
p14
asasVid\\u000d
p15
V2c9831fffa013c76b4c41282e764efb76b4d54bdfa4e3563dbf6c91bab5402dfd17511fafad9c1d3e25fc85eea499abd0e7b2dbe5eb4b282e051227e1ededf50\\u000d
p16
ss."
EndChar

StartChar: Ntilde
Encoding: 308 209 66
GlifName: N_tilde
Width: 618
VWidth: 0
Flags: W
LayerCount: 2
Fore
SplineSet
122 580 m 258
 122 0 l 257
 100 0 l 257
 100 680 l 257
 124 680 l 257
 498 37 l 257
 496 61 496 83 496 100 c 258
 496 680 l 257
 518 680 l 257
 518 0 l 257
 494 0 l 257
 120 643 l 257
 122 619 122 597 122 580 c 258
198 760 m 257
 148 760 l 257
 162 847 198 880 238 880 c 256
NamedP: ".hr01"
 263 880 285 870 307 859 c 257
 323 850 344 840 364 840 c 256
NamedP: ".hr02"
 384 840 399 852 404 880 c 257
 454 880 l 257
NamedP: ".hr03"
 440 793 404 760 364 760 c 256
NamedP: ".hr04"
 339 760 318 769 297 780 c 256
 280 789 258 800 238 800 c 256
NamedP: ".hr05"
 218 800 203 788 198 760 c 257
EndSplineSet
PickledDataWithLists: "(dp0
Vpublic.postscript.hints\\u000d
p1
(dp2
VformatVersion\\u000d
p3
V1\\u000d
p4
sVhintSetList\\u000d
p5
(lp6
(dp7
Vstems\\u000d
p8
(lp9
Vvstem 100 22\\u000d
p10
aVhstem 0 37\\u000d
p11
aVhstem 643 37\\u000d
p12
aVvstem 496 22\\u000d
p13
aVhstem 760 80\\u000d
p14
asa(dp15
VpointTag\\u000d
p16
V.hr01\\u000d
p17
sg8
(lp18
Vhstem 800 80\\u000d
p19
aVhstem 0 37\\u000d
p20
aVhstem 643 37\\u000d
p21
aVvstem 100 22\\u000d
p22
aVvstem 496 22\\u000d
p23
asa(dp24
g16
V.hr02\\u000d
p25
sg8
(lp26
Vhstem 760 80\\u000d
p27
aVhstem 0 37\\u000d
p28
aVhstem 643 37\\u000d
p29
aVvstem 100 22\\u000d
p30
aVvstem 496 22\\u000d
p31
asa(dp32
g16
V.hr03\\u000d
p33
sg8
(lp34
Vhstem 800 80\\u000d
p35
aVhstem 0 37\\u000d
p36
aVhstem 643 37\\u000d
p37
aVvstem 100 22\\u000d
p38
aVvstem 496 22\\u000d
p39
asa(dp40
g16
V.hr04\\u000d
p41
sg8
(lp42
Vhstem 760 80\\u000d
p43
aVhstem 0 37\\u000d
p44
aVhstem 643 37\\u000d
p45
aVvstem 100 22\\u000d
p46
aVvstem 496 22\\u000d
p47
asa(dp48
g16
V.hr05\\u000d
p49
sg8
(lp50
Vhstem 800 80\\u000d
p51
aVhstem 0 37\\u000d
p52
aVhstem 643 37\\u000d
p53
aVvstem 100 22\\u000d
p54
aVvstem 496 22\\u000d
p55
asa(dp56
g16
Vrsb\\u000d
p57
sg8
(lp58
Vhstem 760 80\\u000d
p59
aVhstem 0 37\\u000d
p60
aVhstem 643 37\\u000d
p61
aVvstem 100 22\\u000d
p62
aVvstem 496 22\\u000d
p63
asasVid\\u000d
p64
V4b915fc9908e438955d87caa54d8b7795f66845e72018c945ed0a875be9e77119c2f8cfb6b4e4ab31f99191d1af620fb42be0ba4141927ab981d00e43910fd99\\u000d
p65
ss."
EndChar

StartChar: O
Encoding: 79 79 67
GlifName: O_
Width: 716
VWidth: 0
Flags: W
AnchorPoint: "top" 357 740 basechar 0
LayerCount: 2
Fore
SplineSet
358 670 m 256
 199 670 102 544 102 340 c 256
 102 136 199 10 358 10 c 256
 517 10 614 136 614 340 c 256
 614 544 517 670 358 670 c 256
358 -10 m 256
 189 -10 80 127 80 340 c 256
 80 553 189 690 358 690 c 256
 527 690 636 553 636 340 c 256
 636 127 527 -10 358 -10 c 256
EndSplineSet
PickledDataWithLists: "(dp0
Vpublic.postscript.hints\\u000d
p1
(dp2
VformatVersion\\u000d
p3
V1\\u000d
p4
sVhintSetList\\u000d
p5
(lp6
(dp7
Vstems\\u000d
p8
(lp9
Vhstem -10 20\\u000d
p10
aVhstem 670 20\\u000d
p11
aVvstem 80 22\\u000d
p12
aVvstem 614 22\\u000d
p13
asasVid\\u000d
p14
V624058a02821bde41959fb9289ac8b094a507fb519eb2e050740365349a1eba87dd59ae7a2e2030cf8a773222e64c922100a257d65f7d52c8f538e666dafd61a\\u000d
p15
ss."
Substitution2: "c2scCapitalstoSmallCapitalslookup23 subtable" o.sc
Substitution2: "SingleSubstitutionlookup28 subtable" ordmasculine
Substitution2: "aaltAccessAllAlternateslookup0 subtable" o.sc
EndChar

StartChar: OE
Encoding: 309 338 68
GlifName: O_E_
Width: 980
VWidth: 0
Flags: W
LayerCount: 2
Fore
SplineSet
140 350 m 256
 140 200 187 70 328 70 c 256
 478 70 520 237 520 350 c 256
 520 503 477 630 328 630 c 256
 189 630 140 502 140 350 c 256
50 350 m 256
 50 560 146 710 328 710 c 256
 410 710 474 681 520 632 c 257
 520 700 l 257
 930 700 l 257
NamedP: ".hr01"
 930 620 l 257
 610 620 l 257
 610 397 l 257
 890 397 l 257
 890 317 l 257
 610 317 l 257
 610 80 l 257
 930 80 l 257
 930 0 l 257
 520 0 l 257
 520 64 l 257
 475 17 413 -10 334 -10 c 256
NamedP: ".hr02"
 141 -10 50 138 50 350 c 256
EndSplineSet
PickledDataWithLists: "(dp0
Vpublic.postscript.hints\\u000d
p1
(dp2
VformatVersion\\u000d
p3
V1\\u000d
p4
sVhintSetList\\u000d
p5
(lp6
(dp7
Vstems\\u000d
p8
(lp9
Vvstem 50 90\\u000d
p10
aVhstem -10 80\\u000d
p11
aVvstem 520 90\\u000d
p12
aVhstem 630 80\\u000d
p13
aVhstem 317 80\\u000d
p14
asa(dp15
VpointTag\\u000d
p16
V.hr01\\u000d
p17
sg8
(lp18
Vhstem 620 80\\u000d
p19
aVvstem 520 90\\u000d
p20
aVhstem 317 80\\u000d
p21
aVhstem 0 80\\u000d
p22
aVvstem 50 90\\u000d
p23
asa(dp24
g16
V.hr02\\u000d
p25
sg8
(lp26
Vhstem -10 80\\u000d
p27
aVvstem 50 90\\u000d
p28
aVhstem 317 80\\u000d
p29
aVhstem 620 80\\u000d
p30
aVvstem 520 90\\u000d
p31
asasVid\\u000d
p32
V5d9af974a83d4b9a7d550d10f55422c1cb9a9485195d5ea5dad69a17e24a5f52025c0c43fe72dc474e529ab9f0e4ab88169c0f3f656c0cccd31fe41e47d48c01\\u000d
p33
ss."
EndChar

StartChar: Obreve
Encoding: 311 334 70
GlifName: O_breve
Width: 716
VWidth: 0
Flags: W
LayerCount: 2
Fore
SplineSet
358 670 m 256
 199 670 102 544 102 340 c 256
 102 136 199 10 358 10 c 256
 517 10 614 136 614 340 c 256
 614 544 517 670 358 670 c 256
358 -10 m 256
 189 -10 80 127 80 340 c 256
 80 553 189 690 358 690 c 256
 527 690 636 553 636 340 c 256
 636 127 527 -10 358 -10 c 256
203 880 m 257
 283 880 l 257
 283 820 323 800 358 800 c 256
 393 800 433 820 433 880 c 257
 513 880 l 257
 513 780 438 740 358 740 c 256
 278 740 203 780 203 880 c 257
EndSplineSet
PickledDataWithLists: "(dp0
Vpublic.postscript.hints\\u000d
p1
(dp2
VformatVersion\\u000d
p3
V1\\u000d
p4
sVhintSetList\\u000d
p5
(lp6
(dp7
Vstems\\u000d
p8
(lp9
Vhstem -10 20\\u000d
p10
aVhstem 670 20\\u000d
p11
aVhstem 740 60\\u000d
p12
aVvstem 80 22\\u000d
p13
aVvstem 203 80\\u000d
p14
aVvstem 433 80\\u000d
p15
aVvstem 614 22\\u000d
p16
asasVid\\u000d
p17
Vb0e87004222343554743942cd98d24b7ee6fbe8cbd1c2c63bf3134201cc47e07a657245fba410ee54f80e4bd19ea626f9ab8272162fcf30f386f21ed0272df38\\u000d
p18
ss."
EndChar

StartChar: Ohungarumlaut
Encoding: 315 336 74
GlifName: O_hungarumlaut
Width: 716
VWidth: 0
Flags: W
LayerCount: 2
Fore
SplineSet
358 670 m 256
 199 670 102 544 102 340 c 256
 102 136 199 10 358 10 c 256
 517 10 614 136 614 340 c 256
 614 544 517 670 358 670 c 256
358 -10 m 256
 189 -10 80 127 80 340 c 256
 80 553 189 690 358 690 c 256
 527 690 636 553 636 340 c 256
 636 127 527 -10 358 -10 c 256
366 910 m 257
 305 730 l 257
 241 730 l 257
 286 910 l 257
 366 910 l 257
476 910 m 257
 400 730 l 257
 336 730 l 257
 396 910 l 257
 476 910 l 257
EndSplineSet
PickledDataWithLists: "(dp0
Vpublic.postscript.hints\\u000d
p1
(dp2
VformatVersion\\u000d
p3
V1\\u000d
p4
sVhintSetList\\u000d
p5
(lp6
(dp7
Vstems\\u000d
p8
(lp9
Vhstem -10 20\\u000d
p10
aVhstem 670 20\\u000d
p11
aVhstem 730 180\\u000d
p12
aVvstem 80 22\\u000d
p13
aVvstem 614 22\\u000d
p14
asasVid\\u000d
p15
V4ff48d9b2fcd488926cbb08d70c8ad88898cacb6d2d0a7abc976498a4b42be3535b077804ae2a850383bf974cbd02b3e594276b6a20a5ef174918d6615db8f56\\u000d
p16
ss."
EndChar

StartChar: Omacron
Encoding: 316 332 75
GlifName: O_macron
Width: 716
VWidth: 0
Flags: W
LayerCount: 2
Fore
SplineSet
358 670 m 256
 199 670 102 544 102 340 c 256
 102 136 199 10 358 10 c 256
 517 10 614 136 614 340 c 256
 614 544 517 670 358 670 c 256
358 -10 m 256
 189 -10 80 127 80 340 c 256
 80 553 189 690 358 690 c 256
 527 690 636 553 636 340 c 256
 636 127 527 -10 358 -10 c 256
493 860 m 257
 493 790 l 257
 223 790 l 257
 223 860 l 257
 493 860 l 257
EndSplineSet
PickledDataWithLists: "(dp0
Vpublic.postscript.hints\\u000d
p1
(dp2
VformatVersion\\u000d
p3
V1\\u000d
p4
sVhintSetList\\u000d
p5
(lp6
(dp7
Vstems\\u000d
p8
(lp9
Vhstem -10 20\\u000d
p10
aVhstem 670 20\\u000d
p11
aVhstem 790 70\\u000d
p12
aVvstem 80 22\\u000d
p13
aVvstem 223 270\\u000d
p14
aVvstem 614 22\\u000d
p15
asasVid\\u000d
p16
Vab0d02a8ebbdb82cd7d9f140aa66959d42e30857729e75bc9d6e9317159301d94e7f5c9f6ab1e0b594d5f1fc2a51c9967c60819f695edd7e3e5f80773bdeb80f\\u000d
p17
ss."
EndChar

StartChar: Oslash
Encoding: 317 216 76
GlifName: O_slash
Width: 660
VWidth: 0
Flags: W
LayerCount: 2
Fore
SplineSet
148 349 m 256
 148 301 153 255 164 215 c 257
 467 576 l 257
 437 609 395 629 336 629 c 256
 197 629 148 501 148 349 c 256
509 501 m 257
 201 135 l 257
 231 94 275 69 337 69 c 256
 487 69 529 236 529 349 c 256
 529 405 523 457 509 501 c 257
147 69 m 257
 84 -6 l 257
 23 45 l 257
 101 138 l 257
 74 196 61 268 61 349 c 256
 61 559 157 709 339 709 c 256
 416 709 477 684 522 640 c 257
 576 705 l 257
 637 654 l 257
 571 575 l 257
 604 514 620 436 620 350 c 257
 619 349 l 257
 619 140 530 -11 343 -11 c 256
 258 -11 193 18 147 69 c 257
EndSplineSet
PickledDataWithLists: "(dp0
Vpublic.postscript.hints\\u000d
p1
(dp2
VformatVersion\\u000d
p3
V1\\u000d
p4
sVhintSetList\\u000d
p5
(lp6
(dp7
Vstems\\u000d
p8
(lp9
Vhstem -11 80\\u000d
p10
aVhstem 629 80\\u000d
p11
aVvstem 61 87\\u000d
p12
aVvstem 529 90\\u000d
p13
asasVid\\u000d
p14
Vdf06287a3be2506ca179807d1344ce99b2fd9732beaf999f0ae6eeefab26681b8f14d12babaa5b1b1d0461ba02647ac76c1671bcd43e5499007baba25a7167ae\\u000d
p15
ss."
EndChar

StartChar: P
Encoding: 80 80 78
GlifName: P_
Width: 580
VWidth: 0
Flags: W
AnchorPoint: "top" 270 740 basechar 0
LayerCount: 2
Fore
SplineSet
305 660 m 258
 122 660 l 257
 122 300 l 257
 305 300 l 258
 445 300 498 397 498 487 c 256
 498 591 433 660 305 660 c 258
275 280 m 258
 122 280 l 257
 122 0 l 257
 100 0 l 257
 100 680 l 257
 275 680 l 258
 415 680 520 637 520 487 c 256
 520 392 484 280 275 280 c 258
EndSplineSet
PickledDataWithLists: "(dp0
Vpublic.postscript.hints\\u000d
p1
(dp2
VformatVersion\\u000d
p3
V1\\u000d
p4
sVhintSetList\\u000d
p5
(lp6
(dp7
Vstems\\u000d
p8
(lp9
Vhstem 280 20\\u000d
p10
aVhstem 660 20\\u000d
p11
aVvstem 100 22\\u000d
p12
aVvstem 498 22\\u000d
p13
asasVid\\u000d
p14
V4258cad39cd5b073b0015d97102453e439f060f6a08800d6efa94f9f3380f481603707b0c40b03d1fc6b3d5300bbe37012bffd00943a8226e3a3f372adad55da\\u000d
p15
ss."
Substitution2: "c2scCapitalstoSmallCapitalslookup23 subtable" p.sc
Substitution2: "aaltAccessAllAlternateslookup0 subtable" p.sc
EndChar

StartChar: Q
Encoding: 81 81 79
GlifName: Q_
Width: 716
VWidth: 0
Flags: W
AnchorPoint: "top" 360 740 basechar 0
LayerCount: 2
Fore
SplineSet
544 -61 m 257
 531 -75 l 257
 399 57 l 257
 412 71 l 257
 544 -61 l 257
EndSplineSet
Refer: 67 79 N 1 0 0 1 0 0 2
Substitution2: "c2scCapitalstoSmallCapitalslookup23 subtable" q.sc
Substitution2: "aaltAccessAllAlternateslookup0 subtable" q.sc
EndChar

StartChar: R
Encoding: 82 82 80
GlifName: R_
Width: 530
VWidth: 0
Flags: W
AnchorPoint: "top" 280 740 basechar 0
LayerCount: 2
Fore
SplineSet
305 660 m 258
 122 660 l 257
 122 300 l 257
 305 300 l 258
 445 300 498 397 498 487 c 256
 498 591 433 660 305 660 c 258
275 280 m 258
 122 280 l 257
 122 0 l 257
 100 0 l 257
 100 680 l 257
 275 680 l 258
 415 680 520 637 520 487 c 256
 520 400 490 299 324 282 c 257
 506 0 l 257
 480 0 l 257
 299 281 l 257
 291 280 283 280 275 280 c 258
EndSplineSet
PickledDataWithLists: "(dp0
Vpublic.postscript.hints\\u000d
p1
(dp2
VformatVersion\\u000d
p3
V1\\u000d
p4
sVhintSetList\\u000d
p5
(lp6
(dp7
Vstems\\u000d
p8
(lp9
Vhstem 280 20\\u000d
p10
aVhstem 660 20\\u000d
p11
aVvstem 100 22\\u000d
p12
aVvstem 498 22\\u000d
p13
asasVid\\u000d
p14
V0833d7c6a7014f871639906cffd1437ce0a03a1be7d830a312d0151bad8efb1525412305341a44d7bbca88cd18c06968e444a234cd83ed48ef0e7717b881b509\\u000d
p15
ss."
Substitution2: "c2scCapitalstoSmallCapitalslookup23 subtable" r.sc
Substitution2: "aaltAccessAllAlternateslookup0 subtable" r.sc
EndChar

StartChar: S
Encoding: 83 83 83
GlifName: S_
Width: 641
VWidth: 0
Flags: W
AnchorPoint: "top" 305 740 basechar 0
LayerCount: 2
Fore
SplineSet
80 193 m 257
 102 193 l 257
 102 82 190 10 325 10 c 256
 454 10 539 76 539 177 c 256
 539 248 496 294 406 319 c 258
 222 371 l 258
 147 392 99 454 99 529 c 256
 99 627 182 690 313 690 c 256
 458 690 559 612 559 501 c 257
 537 501 l 257
 537 601 442 670 298 670 c 256
 190 670 121 615 121 529 c 256
 121 460 166 405 238 385 c 258
 429 332 l 258
 518 307 561 255 561 174 c 256
 561 59 474 -10 328 -10 c 256
 174 -10 80 67 80 193 c 257
EndSplineSet
PickledDataWithLists: "(dp0
Vpublic.postscript.hints\\u000d
p1
(dp2
VformatVersion\\u000d
p3
V1\\u000d
p4
sVhintSetList\\u000d
p5
(lp6
(dp7
Vstems\\u000d
p8
(lp9
Vvstem 80 22\\u000d
p10
aVhstem -10 20\\u000d
p11
aVvstem 539 22\\u000d
p12
aVhstem 670 20\\u000d
p13
asa(dp14
VpointTag\\u000d
p15
V.hr01\\u000d
p16
sg8
(lp17
Vvstem 99 22\\u000d
p18
aVhstem 670 20\\u000d
p19
aVvstem 539 22\\u000d
p20
aVhstem -10 20\\u000d
p21
asa(dp22
g15
V.hr02\\u000d
p23
sg8
(lp24
Vvstem 80 22\\u000d
p25
aVhstem -10 20\\u000d
p26
aVhstem 670 20\\u000d
p27
aVvstem 539 22\\u000d
p28
asasVid\\u000d
p29
Vfd52766f4264869ab02203770239dea3569d45259507fa38366344826d047802fe4f270e3ffdddbfdc482f9b74e320683b380aa346dcb6bbe28b5d95c100ecd6\\u000d
p30
ss."
Substitution2: "c2scCapitalstoSmallCapitalslookup23 subtable" s.sc
Substitution2: "aaltAccessAllAlternateslookup0 subtable" s.sc
EndChar

StartChar: Sacute
Encoding: 321 346 84
GlifName: S_acute
Width: 582
VWidth: 0
Flags: W
LayerCount: 2
Fore
SplineSet
322 750 m 257
 258 750 l 257
 308 910 l 257
 388 910 l 257
 322 750 l 257
51 193 m 257
 73 193 l 257
 73 82 161 10 296 10 c 256
 425 10 510 76 510 177 c 256
 510 248 467 294 377 319 c 258
 193 371 l 258
 118 392 70 454 70 529 c 256
 70 627 153 690 284 690 c 256
 429 690 530 612 530 501 c 257
 508 501 l 257
 508 601 413 670 269 670 c 256
 161 670 92 615 92 529 c 256
 92 460 137 405 209 385 c 258
 400 332 l 258
 489 307 532 255 532 174 c 256
 532 59 445 -10 299 -10 c 256
 145 -10 51 67 51 193 c 257
EndSplineSet
PickledDataWithLists: "(dp0
Vpublic.postscript.hints\\u000d
p1
(dp2
VformatVersion\\u000d
p3
V1\\u000d
p4
sVhintSetList\\u000d
p5
(lp6
(dp7
Vstems\\u000d
p8
(lp9
Vhstem 750 160\\u000d
p10
aVvstem 51 22\\u000d
p11
aVhstem -10 20\\u000d
p12
aVvstem 510 22\\u000d
p13
aVhstem 670 20\\u000d
p14
asa(dp15
VpointTag\\u000d
p16
V.hr01\\u000d
p17
sg8
(lp18
Vvstem 70 22\\u000d
p19
aVhstem 670 20\\u000d
p20
aVvstem 510 22\\u000d
p21
aVhstem -10 20\\u000d
p22
aVhstem 750 160\\u000d
p23
asa(dp24
g16
V.hr02\\u000d
p25
sg8
(lp26
Vvstem 51 22\\u000d
p27
aVhstem -10 20\\u000d
p28
aVhstem 670 20\\u000d
p29
aVhstem 750 160\\u000d
p30
aVvstem 510 22\\u000d
p31
asasVid\\u000d
p32
V27c64202859e3ad77e31668d682d74e1f7af9566baabe75c683dd43097fdf6616b7b7a77cba8f1f12f4d33ac058e4cdd8c6171c5f58233f41a9c3663e4c47f02\\u000d
p33
ss."
EndChar

StartChar: Scaron
Encoding: 322 352 85
GlifName: S_caron
Width: 582
VWidth: 0
Flags: W
LayerCount: 2
Fore
SplineSet
51 193 m 257
 73 193 l 257
 73 82 161 10 296 10 c 256
 425 10 510 76 510 177 c 256
 510 248 467 294 377 319 c 258
 193 371 l 258
 118 392 70 454 70 529 c 256
 70 627 153 690 284 690 c 256
 429 690 530 612 530 501 c 257
 508 501 l 257
 508 601 413 670 269 670 c 256
 161 670 92 615 92 529 c 256
 92 460 137 405 209 385 c 258
 400 332 l 258
 489 307 532 255 532 174 c 256
 532 59 445 -10 299 -10 c 256
 145 -10 51 67 51 193 c 257
330 750 m 257
 250 750 l 257
 150 910 l 257
 214 910 l 257
 290 825 l 257
 366 910 l 257
 430 910 l 257
 330 750 l 257
EndSplineSet
PickledDataWithLists: "(dp0
Vpublic.postscript.hints\\u000d
p1
(dp2
VformatVersion\\u000d
p3
V1\\u000d
p4
sVhintSetList\\u000d
p5
(lp6
(dp7
Vstems\\u000d
p8
(lp9
Vvstem 51 22\\u000d
p10
aVhstem -10 20\\u000d
p11
aVvstem 510 22\\u000d
p12
aVhstem 670 20\\u000d
p13
aVhstem 750 160\\u000d
p14
asa(dp15
VpointTag\\u000d
p16
V.hr01\\u000d
p17
sg8
(lp18
Vvstem 70 22\\u000d
p19
aVhstem 670 20\\u000d
p20
aVvstem 510 22\\u000d
p21
aVhstem -10 20\\u000d
p22
aVhstem 750 160\\u000d
p23
asa(dp24
g16
V.hr02\\u000d
p25
sg8
(lp26
Vvstem 51 22\\u000d
p27
aVhstem 750 160\\u000d
p28
aVhstem -10 20\\u000d
p29
aVhstem 670 20\\u000d
p30
aVvstem 510 22\\u000d
p31
asasVid\\u000d
p32
Vf98ce46a24a19f65645f92b3198259691a11fe584b0e26ae6c1c9c44691c2e291eded9301828a5273f47ab2e9aaa6441fc755785b5604ea3ff18fe594dfebf6b\\u000d
p33
ss."
EndChar

StartChar: Scedilla
Encoding: 323 350 86
GlifName: S_cedilla
Width: 582
VWidth: 0
Flags: W
LayerCount: 2
Fore
SplineSet
206 -193 m 257
 206 -164 l 257
 219 -167 240 -170 260 -170 c 256
 301 -170 319 -148 319 -118 c 256
 319 -82 270 -70 240 -67 c 257
 267 -9 l 257
NamedP: ".hr01"
 152 6 51 87 51 194 c 257
 65 194 80 193 95 193 c 258
 139 193 l 257
 139 86 246 79 303 79 c 256
 333 79 440 99 440 205 c 256
 440 368 69 290 69 527 c 256
 69 620 140 709 299 709 c 256
 408 709 489 643 518 573 c 256
 525 556 530 538 530 521 c 257
 440 521 l 257
 421 583 370 619 300 619 c 256
 220 619 161 591 161 527 c 256
 161 410 532 448 532 205 c 256
 532 33 420 -5 327 -10 c 257
 309 -46 l 257
 332 -54 376 -70 376 -123 c 256
 376 -177 331 -209 276 -209 c 256
 243 -209 220 -200 206 -193 c 257
EndSplineSet
PickledDataWithLists: "(dp0
Vpublic.postscript.hints\\u000d
p1
(dp2
VformatVersion\\u000d
p3
V1\\u000d
p4
sVhintSetList\\u000d
p5
(lp6
(dp7
Vstems\\u000d
p8
(lp9
Vhstem -209 39\\u000d
p10
aVvstem 319 57\\u000d
p11
aVhstem -67 146\\u000d
p12
aVhstem 619 90\\u000d
p13
aVvstem 51 88\\u000d
p14
aVvstem 440 92\\u000d
p15
asa(dp16
VpointTag\\u000d
p17
V.hr01\\u000d
p18
sg8
(lp19
Vhstem -9 88\\u000d
p20
aVvstem 51 88\\u000d
p21
aVvstem 440 92\\u000d
p22
aVhstem -209 39\\u000d
p23
aVhstem 619 90\\u000d
p24
aVvstem 319 57\\u000d
p25
asa(dp26
g17
V.hr02\\u000d
p27
sg8
(lp28
Vvstem 69 92\\u000d
p29
aVhstem 619 90\\u000d
p30
aVvstem 440 92\\u000d
p31
aVvstem 319 57\\u000d
p32
aVhstem -209 39\\u000d
p33
aVhstem -67 146\\u000d
p34
asasVid\\u000d
p35
V44b53191b7f5b66704ee12a3b31a32f4d7526f2a658e72345ac4eed0809ad51ef17f2dd07305445f11825e85139e594cd52773836f9f5d13807a18b613cd1d7b\\u000d
p36
ss."
EndChar

StartChar: Scircumflex
Encoding: 324 348 87
GlifName: S_circumflex
Width: 582
VWidth: 0
Flags: W
LayerCount: 2
Fore
SplineSet
51 193 m 257
 73 193 l 257
 73 82 161 10 296 10 c 256
 425 10 510 76 510 177 c 256
 510 248 467 294 377 319 c 258
 193 371 l 258
 118 392 70 454 70 529 c 256
 70 627 153 690 284 690 c 256
 429 690 530 612 530 501 c 257
 508 501 l 257
 508 601 413 670 269 670 c 256
 161 670 92 615 92 529 c 256
 92 460 137 405 209 385 c 258
 400 332 l 258
 489 307 532 255 532 174 c 256
 532 59 445 -10 299 -10 c 256
 145 -10 51 67 51 193 c 257
290 886 m 257
 170 750 l 257
 150 750 l 257
 270 910 l 257
 310 910 l 257
 430 750 l 257
 410 750 l 257
 290 886 l 257
EndSplineSet
PickledDataWithLists: "(dp0
Vpublic.postscript.hints\\u000d
p1
(dp2
VformatVersion\\u000d
p3
V1\\u000d
p4
sVhintSetList\\u000d
p5
(lp6
(dp7
Vstems\\u000d
p8
(lp9
Vvstem 51 22\\u000d
p10
aVhstem -10 20\\u000d
p11
aVvstem 510 22\\u000d
p12
aVhstem 670 20\\u000d
p13
aVhstem 886 24\\u000d
p14
asa(dp15
VpointTag\\u000d
p16
V.hr01\\u000d
p17
sg8
(lp18
Vvstem 70 22\\u000d
p19
aVhstem 670 20\\u000d
p20
aVvstem 510 22\\u000d
p21
aVhstem -10 20\\u000d
p22
aVhstem 886 24\\u000d
p23
asa(dp24
g16
V.hr02\\u000d
p25
sg8
(lp26
Vvstem 51 22\\u000d
p27
aVhstem 886 24\\u000d
p28
aVhstem -10 20\\u000d
p29
aVhstem 670 20\\u000d
p30
aVvstem 510 22\\u000d
p31
asasVid\\u000d
p32
Vb395b3ccaba096fcc5c3ea8ebc0cd15ecfe492224bad5cbc9917eb447ab889f4bccc6bd5c25f6ecf30c2194b64eda732dd942c279fd899b0536989e6d8b9c91b\\u000d
p33
ss."
EndChar

StartChar: T
Encoding: 84 84 88
GlifName: T_
Width: 480
VWidth: 0
Flags: W
AnchorPoint: "top" 239 740 basechar 0
LayerCount: 2
Fore
SplineSet
251 660 m 257
 251 0 l 257
 229 0 l 257
 229 660 l 257
 10 660 l 257
 10 680 l 257
 470 680 l 257
 470 660 l 257
 251 660 l 257
EndSplineSet
PickledDataWithLists: "(dp0
Vpublic.postscript.hints\\u000d
p1
(dp2
VformatVersion\\u000d
p3
V1\\u000d
p4
sVhintSetList\\u000d
p5
(lp6
(dp7
Vstems\\u000d
p8
(lp9
Vhstem 660 20\\u000d
p10
aVvstem 229 22\\u000d
p11
asasVid\\u000d
p12
Vw480m251,660l251,0l229,0l229,660l10,660l10,680l470,680l470,660\\u000d
p13
ss."
Substitution2: "c2scCapitalstoSmallCapitalslookup23 subtable" t.sc
Substitution2: "aaltAccessAllAlternateslookup0 subtable" t.sc
EndChar

StartChar: Tbar
Encoding: 325 358 89
GlifName: T_bar
Width: 560
VWidth: 0
Flags: W
LayerCount: 2
Fore
SplineSet
240 620 m 257
 50 620 l 257
 50 700 l 257
 510 700 l 257
 510 620 l 257
 330 620 l 257
 330 430 l 257
 490 430 l 257
 490 350 l 257
 330 350 l 257
 330 0 l 257
 240 0 l 257
 240 350 l 257
 70 350 l 257
 70 430 l 257
 240 430 l 257
 240 620 l 257
EndSplineSet
PickledDataWithLists: "(dp0
Vpublic.postscript.hints\\u000d
p1
(dp2
VformatVersion\\u000d
p3
V1\\u000d
p4
sVhintSetList\\u000d
p5
(lp6
(dp7
Vstems\\u000d
p8
(lp9
Vhstem 350 80\\u000d
p10
aVhstem 620 80\\u000d
p11
aVvstem 240 90\\u000d
p12
asasVid\\u000d
p13
Vw560m240,620l50,620l50,700l510,700l510,620l330,620l330,430l490,430l490,350l330,350l330,0l240,0l240,350l70,350l70,430l240,430\\u000d
p14
ss."
EndChar

StartChar: Tcaron
Encoding: 326 356 90
GlifName: T_caron
Width: 480
VWidth: 0
Flags: W
LayerCount: 2
Fore
SplineSet
251 660 m 257
 251 0 l 257
 229 0 l 257
 229 660 l 257
 10 660 l 257
 10 680 l 257
 470 680 l 257
 470 660 l 257
 251 660 l 257
280 740 m 257
 200 740 l 257
 100 900 l 257
 164 900 l 257
 240 815 l 257
 316 900 l 257
 380 900 l 257
 280 740 l 257
EndSplineSet
PickledDataWithLists: "(dp0
Vpublic.postscript.hints\\u000d
p1
(dp2
VformatVersion\\u000d
p3
V1\\u000d
p4
sVhintSetList\\u000d
p5
(lp6
(dp7
Vstems\\u000d
p8
(lp9
Vhstem 660 20\\u000d
p10
aVhstem 740 160\\u000d
p11
aVvstem 229 22\\u000d
p12
asasVid\\u000d
p13
Vw480m251,660l251,0l229,0l229,660l10,660l10,680l470,680l470,660m280,740l200,740l100,900l164,900l240,815l316,900l380,900\\u000d
p14
ss."
EndChar

StartChar: U
Encoding: 85 85 91
GlifName: U_
Width: 560
VWidth: 0
Flags: W
AnchorPoint: "top" 280 740 basechar 0
LayerCount: 2
Fore
SplineSet
50 230 m 258
 50 680 l 257
 70 680 l 257
 70 250 l 258
 70 80 150 10 280 10 c 256
 410 10 490 80 490 250 c 258
 490 680 l 257
 510 680 l 257
 510 230 l 258
 510 70 430 -10 280 -10 c 256
 130 -10 50 70 50 230 c 258
EndSplineSet
PickledDataWithLists: "(dp0
Vpublic.postscript.hints\\u000d
p1
(dp2
VformatVersion\\u000d
p3
V1\\u000d
p4
sVhintSetList\\u000d
p5
(lp6
(dp7
Vstems\\u000d
p8
(lp9
Vhstem -10 20\\u000d
p10
aVvstem 50 20\\u000d
p11
aVvstem 490 20\\u000d
p12
asasVid\\u000d
p13
V64ff81d47d3f7ca0194dc2b455942c57a82a9918c06fb97c92473ef055d65acdf636de10ebd620d26e5932a51479f6dfa176b974c722b45f1d8a533780da9f12\\u000d
p14
ss."
Substitution2: "c2scCapitalstoSmallCapitalslookup23 subtable" u.sc
Substitution2: "aaltAccessAllAlternateslookup0 subtable" u.sc
EndChar

StartChar: Ubreve
Encoding: 328 364 93
GlifName: U_breve
Width: 560
VWidth: 0
Flags: W
LayerCount: 2
Fore
SplineSet
125 890 m 257
 205 890 l 257
 205 830 245 810 280 810 c 256
 315 810 355 830 355 890 c 257
 435 890 l 257
 435 790 360 750 280 750 c 256
 200 750 125 790 125 890 c 257
50 230 m 258
 50 680 l 257
 70 680 l 257
 70 250 l 258
 70 80 150 10 280 10 c 256
 410 10 490 80 490 250 c 258
 490 680 l 257
 510 680 l 257
 510 230 l 258
 510 70 430 -10 280 -10 c 256
 130 -10 50 70 50 230 c 258
EndSplineSet
PickledDataWithLists: "(dp0
Vpublic.postscript.hints\\u000d
p1
(dp2
VformatVersion\\u000d
p3
V1\\u000d
p4
sVhintSetList\\u000d
p5
(lp6
(dp7
Vstems\\u000d
p8
(lp9
Vhstem -10 20\\u000d
p10
aVhstem 750 60\\u000d
p11
aVvstem 50 20\\u000d
p12
aVvstem 125 80\\u000d
p13
aVvstem 355 80\\u000d
p14
aVvstem 490 20\\u000d
p15
asasVid\\u000d
p16
Vf2f3845475aa2bebc6c8e464613755377011dc070129e7b7eecf863127c3a66187f869ae7ca1c37fa1acda43fe8c12fb2679b95fefa99abf7273b366fa8d0299\\u000d
p17
ss."
EndChar

StartChar: Uhungarumlaut
Encoding: 332 368 97
GlifName: U_hungarumlaut
Width: 560
VWidth: 0
Flags: W
LayerCount: 2
Fore
SplineSet
50 230 m 258
 50 680 l 257
 70 680 l 257
 70 250 l 258
 70 80 150 10 280 10 c 256
 410 10 490 80 490 250 c 258
 490 680 l 257
 510 680 l 257
 510 230 l 258
 510 70 430 -10 280 -10 c 256
 130 -10 50 70 50 230 c 258
322 730 m 257
 258 730 l 257
 318 910 l 257
 398 910 l 257
 322 730 l 257
227 730 m 257
 163 730 l 257
 208 910 l 257
 288 910 l 257
 227 730 l 257
EndSplineSet
PickledDataWithLists: "(dp0
Vpublic.postscript.hints\\u000d
p1
(dp2
VformatVersion\\u000d
p3
V1\\u000d
p4
sVhintSetList\\u000d
p5
(lp6
(dp7
Vstems\\u000d
p8
(lp9
Vhstem -10 20\\u000d
p10
aVhstem 730 180\\u000d
p11
aVvstem 50 20\\u000d
p12
aVvstem 490 20\\u000d
p13
asasVid\\u000d
p14
V9bb41011984afd90089cf135051d49c7e02635878a625e93881486e3770fcccac094310f8ad7fe4eef81fdbb2f1166a9440cf255f84626d6932ee2bda42780e0\\u000d
p15
ss."
EndChar

StartChar: Umacron
Encoding: 333 362 98
GlifName: U_macron
Width: 560
VWidth: 0
Flags: W
LayerCount: 2
Fore
SplineSet
415 750 m 257
 145 750 l 257
 145 820 l 257
 415 820 l 257
 415 750 l 257
50 230 m 258
 50 680 l 257
 70 680 l 257
 70 250 l 258
 70 80 150 10 280 10 c 256
 410 10 490 80 490 250 c 258
 490 680 l 257
 510 680 l 257
 510 230 l 258
 510 70 430 -10 280 -10 c 256
 130 -10 50 70 50 230 c 258
EndSplineSet
PickledDataWithLists: "(dp0
Vpublic.postscript.hints\\u000d
p1
(dp2
VformatVersion\\u000d
p3
V1\\u000d
p4
sVhintSetList\\u000d
p5
(lp6
(dp7
Vstems\\u000d
p8
(lp9
Vhstem -10 20\\u000d
p10
aVhstem 750 70\\u000d
p11
aVvstem 50 20\\u000d
p12
aVvstem 145 270\\u000d
p13
aVvstem 490 20\\u000d
p14
asasVid\\u000d
p15
V1f0c89f9c941af9a3b130f0becfc0ded2174b514bc3369f8df3422dd229264acb18bce9b218b0ae363ccc071824c38e2309112ac6e7be2dafdac7a9fcd5d2b36\\u000d
p16
ss."
EndChar

StartChar: Uogonek
Encoding: 334 370 99
GlifName: U_ogonek
Width: 560
VWidth: 0
Flags: W
LayerCount: 2
Fore
SplineSet
50 224 m 258
 50 700 l 257
 140 700 l 257
 140 274 l 258
 140 147 204 80 290 80 c 256
 378 80 420 145 420 274 c 258
 420 700 l 257
 510 700 l 257
 510 224 l 258
 510 100 465 -10 290 -10 c 256
 92 -10 50 106 50 224 c 258
341 -124 m 256
 341 -70 378 -25 412 0 c 257
 470 0 l 257
NamedP: ".hr01"
 429 -31 402 -69 402 -108 c 256
 402 -135 422 -154 448 -154 c 256
 462 -154 477 -149 488 -141 c 257
 510 -182 l 257
 497 -191 l 257
 478 -202 451 -209 431 -209 c 256
 381 -209 341 -180 341 -124 c 256
EndSplineSet
PickledDataWithLists: "(dp0
Vpublic.postscript.hints\\u000d
p1
(dp2
VformatVersion\\u000d
p3
V1\\u000d
p4
sVhintSetList\\u000d
p5
(lp6
(dp7
Vstems\\u000d
p8
(lp9
Vvstem 50 90\\u000d
p10
aVhstem -10 90\\u000d
p11
aVvstem 420 90\\u000d
p12
aVvstem 341 61\\u000d
p13
aVhstem -209 55\\u000d
p14
asa(dp15
VpointTag\\u000d
p16
V.hr01\\u000d
p17
sg8
(lp18
Vhstem -10 10\\u000d
p19
aVvstem 341 61\\u000d
p20
aVhstem -209 55\\u000d
p21
aVvstem 420 90\\u000d
p22
aVvstem 50 90\\u000d
p23
asasVid\\u000d
p24
Vc152c7db7b9578e8963f38c31caaa5a3e04283cc580725ee584358cb28abc5aff40035705633283aafa3b342b8c18ab87e6fd6b31b734dc7556285618f4c5d06\\u000d
p25
ss."
EndChar

StartChar: Uring
Encoding: 335 366 100
GlifName: U_ring
Width: 560
VWidth: 0
Flags: W
LayerCount: 2
Fore
SplineSet
240 819 m 256
 240 802 254 788 271 788 c 256
 288 788 302 802 302 819 c 256
 302 836 288 850 271 850 c 256
 254 850 240 836 240 819 c 256
50 230 m 258
 50 680 l 257
 70 680 l 257
 70 250 l 258
 70 80 150 10 280 10 c 256
 410 10 490 80 490 250 c 258
 490 680 l 257
 510 680 l 257
 510 230 l 258
 510 70 430 -10 280 -10 c 256
 130 -10 50 70 50 230 c 258
193 819 m 256
 193 862 228 897 271 897 c 256
 314 897 349 862 349 819 c 256
 349 776 314 741 271 741 c 256
 228 741 193 776 193 819 c 256
EndSplineSet
PickledDataWithLists: "(dp0
Vpublic.postscript.hints\\u000d
p1
(dp2
VformatVersion\\u000d
p3
V1\\u000d
p4
sVhintSetList\\u000d
p5
(lp6
(dp7
Vstems\\u000d
p8
(lp9
Vhstem -10 20\\u000d
p10
aVhstem 741 47\\u000d
p11
aVhstem 850 47\\u000d
p12
aVvstem 50 20\\u000d
p13
aVvstem 193 47\\u000d
p14
aVvstem 302 47\\u000d
p15
aVvstem 490 20\\u000d
p16
asasVid\\u000d
p17
V6fba5db2e9e873a5ecbc15d6de4e3dc61577abf222f880a3ad49faa3d46a8d7bde08099c4a467bd58d51867e4549a1db524acb8770e0550063c4b391f9f327cf\\u000d
p18
ss."
EndChar

StartChar: Utilde
Encoding: 336 360 101
GlifName: U_tilde
Width: 560
VWidth: 0
Flags: W
LayerCount: 2
Fore
SplineSet
50 230 m 258
 50 680 l 257
 70 680 l 257
 70 250 l 258
 70 80 150 10 280 10 c 256
 410 10 490 80 490 250 c 258
 490 680 l 257
 510 680 l 257
 510 230 l 258
 510 70 430 -10 280 -10 c 256
 130 -10 50 70 50 230 c 258
177 760 m 257
 127 760 l 257
 141 847 177 880 217 880 c 256
NamedP: ".hr01"
 242 880 264 870 286 859 c 257
 302 850 323 840 343 840 c 256
NamedP: ".hr02"
 363 840 378 852 383 880 c 257
 433 880 l 257
NamedP: ".hr03"
 419 793 383 760 343 760 c 256
NamedP: ".hr04"
 318 760 297 769 276 780 c 256
 259 789 237 800 217 800 c 256
NamedP: ".hr05"
 197 800 182 788 177 760 c 257
EndSplineSet
PickledDataWithLists: "(dp0
Vpublic.postscript.hints\\u000d
p1
(dp2
VformatVersion\\u000d
p3
V1\\u000d
p4
sVhintSetList\\u000d
p5
(lp6
(dp7
Vstems\\u000d
p8
(lp9
Vvstem 50 20\\u000d
p10
aVhstem -10 20\\u000d
p11
aVvstem 490 20\\u000d
p12
aVhstem 760 80\\u000d
p13
asa(dp14
VpointTag\\u000d
p15
V.hr01\\u000d
p16
sg8
(lp17
Vhstem 800 80\\u000d
p18
aVhstem -10 20\\u000d
p19
aVvstem 50 20\\u000d
p20
aVvstem 490 20\\u000d
p21
asa(dp22
g15
V.hr02\\u000d
p23
sg8
(lp24
Vhstem 760 80\\u000d
p25
aVhstem -10 20\\u000d
p26
aVvstem 50 20\\u000d
p27
aVvstem 490 20\\u000d
p28
asa(dp29
g15
V.hr03\\u000d
p30
sg8
(lp31
Vhstem 800 80\\u000d
p32
aVhstem -10 20\\u000d
p33
aVvstem 50 20\\u000d
p34
aVvstem 490 20\\u000d
p35
asa(dp36
g15
V.hr04\\u000d
p37
sg8
(lp38
Vhstem 760 80\\u000d
p39
aVhstem -10 20\\u000d
p40
aVvstem 50 20\\u000d
p41
aVvstem 490 20\\u000d
p42
asa(dp43
g15
V.hr05\\u000d
p44
sg8
(lp45
Vhstem 800 80\\u000d
p46
aVhstem -10 20\\u000d
p47
aVvstem 50 20\\u000d
p48
aVvstem 490 20\\u000d
p49
asa(dp50
g15
Vrsb\\u000d
p51
sg8
(lp52
Vhstem 760 80\\u000d
p53
aVhstem -10 20\\u000d
p54
aVvstem 50 20\\u000d
p55
aVvstem 490 20\\u000d
p56
asasVid\\u000d
p57
V862a3cb20082de70d675f3fd069a6a9de255629b37ec6482d196703500c21c7590f806cc925f1c2dcd193227ae04eab5b782af4dad78dbce6afe3c5d3fc08503\\u000d
p58
ss."
EndChar

StartChar: V
Encoding: 86 86 102
GlifName: V_
Width: 480
VWidth: 0
Flags: W
AnchorPoint: "top" 232 740 basechar 0
LayerCount: 2
Fore
SplineSet
256 80 m 257
 448 680 l 257
 470 680 l 257
 251 0 l 257
 229 0 l 257
 10 680 l 257
 32 680 l 257
 224 80 l 257
 230 63 236 44 240 28 c 257
 244 44 250 63 256 80 c 257
EndSplineSet
PickledDataWithLists: "(dp0
Vpublic.postscript.hints\\u000d
p1
(dp2
VformatVersion\\u000d
p3
V1\\u000d
p4
sVhintSetList\\u000d
p5
(lp6
(dp7
Vstems\\u000d
p8
(lp9
Vhstem 0 28\\u000d
p10
aVvstem 10 460\\u000d
p11
asasVid\\u000d
p12
Vw480m256,80l448,680l470,680l251,0l229,0l10,680l32,680l224,80c230,63 236,44 240,28c244,44 250,63 256,80\\u000d
p13
ss."
Substitution2: "c2scCapitalstoSmallCapitalslookup23 subtable" v.sc
Substitution2: "aaltAccessAllAlternateslookup0 subtable" v.sc
EndChar

StartChar: W
Encoding: 87 87 103
GlifName: W_
Width: 918
VWidth: 0
Flags: W
AnchorPoint: "top" 458 740 basechar 0
LayerCount: 2
Fore
SplineSet
694 80 m 257
 886 680 l 257
 908 680 l 257
 689 0 l 257
 667 0 l 257
 459 646 l 257
 251 0 l 257
 229 0 l 257
 10 680 l 257
 32 680 l 257
 224 80 l 257
 230 63 236 44 240 28 c 257
 244 44 250 63 256 80 c 257
 448 680 l 257
 470 680 l 257
 662 80 l 257
 668 63 674 44 678 28 c 257
 682 44 688 63 694 80 c 257
EndSplineSet
PickledDataWithLists: "(dp0
Vpublic.postscript.hints\\u000d
p1
(dp2
VformatVersion\\u000d
p3
V1\\u000d
p4
sVhintSetList\\u000d
p5
(lp6
(dp7
Vstems\\u000d
p8
(lp9
Vhstem 0 28\\u000d
p10
aVhstem 646 34\\u000d
p11
aVvstem 10 898\\u000d
p12
asasVid\\u000d
p13
V8dec1ae871d014326324fe9af032ea45cff38a843627b6353ac0b6504f9c8c3f4f8e70a437cd04d361112aacdaf1266a89453561c3070c01e079ee17f7d6cfb4\\u000d
p14
ss."
Substitution2: "c2scCapitalstoSmallCapitalslookup23 subtable" w.sc
Substitution2: "aaltAccessAllAlternateslookup0 subtable" w.sc
EndChar

StartChar: Wcircumflex
Encoding: 337 372 104
GlifName: W_circumflex
Width: 1061
VWidth: 0
Flags: W
LayerCount: 2
Fore
SplineSet
257 0 m 257
 50 700 l 257
 157 700 l 257
 317 97 l 257
 477 700 l 257
 584 700 l 257
 744 97 l 257
 904 700 l 257
 1011 700 l 257
 802 0 l 257
 684 0 l 257
 530 520 l 257
 375 0 l 257
 257 0 l 257
434 760 m 257
 370 760 l 257
 490 940 l 257
 570 940 l 257
 690 760 l 257
 626 760 l 257
 530 887 l 257
 434 760 l 257
EndSplineSet
PickledDataWithLists: "(dp0
Vpublic.postscript.hints\\u000d
p1
(dp2
VformatVersion\\u000d
p3
V1\\u000d
p4
sVhintSetList\\u000d
p5
(lp6
(dp7
Vstems\\u000d
p8
(lp9
Vhstem 0 97\\u000d
p10
aVhstem 760 180\\u000d
p11
aVvstem 50 961\\u000d
p12
asasVid\\u000d
p13
V2a88858edadffce8e77dc3151dc0eca350901e717a97b71aa35d4a36555aa5d6996e3bc8514a5fe44bcd5922098c76bd7576f025a4f0c613abb9e2d92dfc3b76\\u000d
p14
ss."
EndChar

StartChar: X
Encoding: 88 88 105
GlifName: X_
Width: 658
VWidth: 0
Flags: W
AnchorPoint: "top" 320 740 basechar 0
LayerCount: 2
Fore
SplineSet
518 680 m 257
 333 364 l 257
 546 0 l 257
 519 0 l 257
 319 341 l 257
 119 0 l 257
 92 0 l 257
 306 364 l 257
 120 680 l 257
 147 680 l 257
 319 387 l 257
 491 680 l 257
 518 680 l 257
EndSplineSet
PickledDataWithLists: "(dp0
Vpublic.postscript.hints\\u000d
p1
(dp2
VformatVersion\\u000d
p3
V1\\u000d
p4
sVhintSetList\\u000d
p5
(lp6
(dp7
Vstems\\u000d
p8
(lp9
Vvstem 92 454\\u000d
p10
asasVid\\u000d
p11
Vw658m518,680l333,364l546,0l519,0l319,341l119,0l92,0l306,364l120,680l147,680l319,387l491,680\\u000d
p12
ss."
Substitution2: "c2scCapitalstoSmallCapitalslookup23 subtable" x.sc
Substitution2: "aaltAccessAllAlternateslookup0 subtable" x.sc
EndChar

StartChar: Y
Encoding: 89 89 106
GlifName: Y_
Width: 594
VWidth: 0
Flags: W
AnchorPoint: "top" 300 740 basechar 0
LayerCount: 2
Fore
SplineSet
286 310 m 257
 74 680 l 257
 96 680 l 257
 296 328 l 257
 298 328 l 257
 499 680 l 257
 521 680 l 257
 308 310 l 257
 308 0 l 257
 286 0 l 257
 286 310 l 257
EndSplineSet
PickledDataWithLists: "(dp0
Vpublic.postscript.hints\\u000d
p1
(dp2
VformatVersion\\u000d
p3
V1\\u000d
p4
sVhintSetList\\u000d
p5
(lp6
(dp7
Vstems\\u000d
p8
(lp9
Vvstem 286 22\\u000d
p10
asasVid\\u000d
p11
Vw594m286,310l74,680l96,680l296,328l298,328l499,680l521,680l308,310l308,0l286,0\\u000d
p12
ss."
Substitution2: "c2scCapitalstoSmallCapitalslookup23 subtable" y.sc
Substitution2: "aaltAccessAllAlternateslookup0 subtable" y.sc
EndChar

StartChar: Ycircumflex
Encoding: 339 374 108
GlifName: Y_circumflex
Width: 594
VWidth: 0
Flags: W
LayerCount: 2
Fore
SplineSet
252 310 m 257
 40 700 l 257
 147 700 l 257
 297 388 l 257
 447 700 l 257
 554 700 l 257
 342 310 l 257
 342 0 l 257
 252 0 l 257
 252 310 l 257
201 760 m 257
 137 760 l 257
 257 940 l 257
 337 940 l 257
 457 760 l 257
 393 760 l 257
 297 887 l 257
 201 760 l 257
EndSplineSet
PickledDataWithLists: "(dp0
Vpublic.postscript.hints\\u000d
p1
(dp2
VformatVersion\\u000d
p3
V1\\u000d
p4
sVhintSetList\\u000d
p5
(lp6
(dp7
Vstems\\u000d
p8
(lp9
Vhstem 760 180\\u000d
p10
aVvstem 252 90\\u000d
p11
asasVid\\u000d
p12
Vw594m252,310l40,700l147,700l297,388l447,700l554,700l342,310l342,0l252,0m201,760l137,760l257,940l337,940l457,760l393,760l297,887\\u000d
p13
ss."
EndChar

StartChar: Ydieresis
Encoding: 340 376 109
GlifName: Y_dieresis
Width: 594
VWidth: 0
Flags: W
LayerCount: 2
Fore
SplineSet
252 310 m 257
 40 700 l 257
 147 700 l 257
 297 388 l 257
 447 700 l 257
 554 700 l 257
 342 310 l 257
 342 0 l 257
 252 0 l 257
 252 310 l 257
258 760 m 257
NamedP: ".hr01"
 178 760 l 257
 178 840 l 257
 258 840 l 257
 258 760 l 257
NamedP: ".hr01"
415 760 m 257
 335 760 l 257
 335 840 l 257
 415 840 l 257
 415 760 l 257
EndSplineSet
PickledDataWithLists: "(dp0
Vpublic.postscript.hints\\u000d
p1
(dp2
VformatVersion\\u000d
p3
V1\\u000d
p4
sVhintSetList\\u000d
p5
(lp6
(dp7
Vstems\\u000d
p8
(lp9
Vvstem 252 90\\u000d
p10
aVhstem 760 80\\u000d
p11
asa(dp12
VpointTag\\u000d
p13
V.hr01\\u000d
p14
sg8
(lp15
Vhstem 760 80\\u000d
p16
aVvstem 178 80\\u000d
p17
aVvstem 335 80\\u000d
p18
asasVid\\u000d
p19
V0b4cfb351ce502d781ad10e11a9fd43e209f94a36ca8d309efa7e119c1bb4af40080e82426ff22cf4e6e416cdee4d82fcd64e2e3072471d067f9b5bc9716cdea\\u000d
p20
ss."
EndChar

StartChar: Z
Encoding: 90 90 110
GlifName: Z_
Width: 510
VWidth: 0
Flags: W
AnchorPoint: "top" 220 740 basechar 0
LayerCount: 2
Fore
SplineSet
440 20 m 257
 440 0 l 257
 9 0 l 257
 9 14 l 257
 407 660 l 257
 20 660 l 257
 20 680 l 257
 434 680 l 257
 434 666 l 257
 37 20 l 257
 440 20 l 257
EndSplineSet
PickledDataWithLists: "(dp0
Vpublic.postscript.hints\\u000d
p1
(dp2
VformatVersion\\u000d
p3
V1\\u000d
p4
sVhintSetList\\u000d
p5
(lp6
(dp7
Vstems\\u000d
p8
(lp9
Vhstem 0 20\\u000d
p10
aVhstem 660 20\\u000d
p11
aVvstem 9 431\\u000d
p12
asasVid\\u000d
p13
Vw510m440,20l440,0l9,0l9,14l407,660l20,660l20,680l434,680l434,666l37,20\\u000d
p14
ss."
Substitution2: "c2scCapitalstoSmallCapitalslookup23 subtable" z.sc
Substitution2: "aaltAccessAllAlternateslookup0 subtable" z.sc
EndChar

StartChar: Zacute
Encoding: 341 377 111
GlifName: Z_acute
Width: 510
VWidth: 0
Flags: W
LayerCount: 2
Fore
SplineSet
460 0 m 257
 50 0 l 257
 50 80 l 257
 370 620 l 257
 50 620 l 257
 50 700 l 257
 460 700 l 257
 460 620 l 257
 140 80 l 257
 460 80 l 257
 460 0 l 257
254 760 m 257
 190 760 l 257
 240 940 l 257
 320 940 l 257
 254 760 l 257
EndSplineSet
PickledDataWithLists: "(dp0
Vpublic.postscript.hints\\u000d
p1
(dp2
VformatVersion\\u000d
p3
V1\\u000d
p4
sVhintSetList\\u000d
p5
(lp6
(dp7
Vstems\\u000d
p8
(lp9
Vhstem 0 80\\u000d
p10
aVhstem 620 80\\u000d
p11
aVhstem 760 180\\u000d
p12
aVvstem 50 90\\u000d
p13
aVvstem 370 90\\u000d
p14
asasVid\\u000d
p15
Vw510m460,0l50,0l50,80l370,620l50,620l50,700l460,700l460,620l140,80l460,80m254,760l190,760l240,940l320,940\\u000d
p16
ss."
EndChar

StartChar: Zcaron
Encoding: 342 381 112
GlifName: Z_caron
Width: 510
VWidth: 0
Flags: W
LayerCount: 2
Fore
SplineSet
460 0 m 257
 50 0 l 257
 50 80 l 257
 370 620 l 257
 50 620 l 257
 50 700 l 257
 460 700 l 257
 460 620 l 257
 140 80 l 257
 460 80 l 257
 460 0 l 257
215 760 m 257
 95 940 l 257
 159 940 l 257
 255 813 l 257
 351 940 l 257
 415 940 l 257
 295 760 l 257
 215 760 l 257
EndSplineSet
PickledDataWithLists: "(dp0
Vpublic.postscript.hints\\u000d
p1
(dp2
VformatVersion\\u000d
p3
V1\\u000d
p4
sVhintSetList\\u000d
p5
(lp6
(dp7
Vstems\\u000d
p8
(lp9
Vhstem 0 80\\u000d
p10
aVhstem 620 80\\u000d
p11
aVhstem 760 180\\u000d
p12
aVvstem 50 90\\u000d
p13
aVvstem 370 90\\u000d
p14
asasVid\\u000d
p15
Vc966f244cf3bea71ad633c540ec361a7a05f640e5e93857d4cc2a831efac7a51a3c232b18a9ad541400a9ab59b6c93a462a54504af82fdc613a339ded837c1b9\\u000d
p16
ss."
EndChar

StartChar: Zdotaccent
Encoding: 343 379 113
GlifName: Z_dotaccent
Width: 510
VWidth: 0
Flags: W
LayerCount: 2
Fore
SplineSet
460 0 m 257
 50 0 l 257
 50 80 l 257
 370 620 l 257
 50 620 l 257
 50 700 l 257
 460 700 l 257
 460 620 l 257
 140 80 l 257
 460 80 l 257
 460 0 l 257
295 760 m 257
 215 760 l 257
 215 840 l 257
 295 840 l 257
 295 760 l 257
EndSplineSet
PickledDataWithLists: "(dp0
Vpublic.postscript.hints\\u000d
p1
(dp2
VformatVersion\\u000d
p3
V1\\u000d
p4
sVhintSetList\\u000d
p5
(lp6
(dp7
Vstems\\u000d
p8
(lp9
Vhstem 0 80\\u000d
p10
aVhstem 620 80\\u000d
p11
aVhstem 760 80\\u000d
p12
aVvstem 50 90\\u000d
p13
aVvstem 215 80\\u000d
p14
aVvstem 370 90\\u000d
p15
asasVid\\u000d
p16
Vw510m460,0l50,0l50,80l370,620l50,620l50,700l460,700l460,620l140,80l460,80m295,760l215,760l215,840l295,840\\u000d
p17
ss."
EndChar

StartChar: a
Encoding: 97 97 114
GlifName: a
Width: 416
VWidth: 0
Flags: W
AnchorPoint: "top" 220 520 basechar 0
LayerCount: 2
Fore
SplineSet
45 123 m 256
 45 205 84 237 222 264 c 258
 350 290 l 257
 350 274 l 257
 215 246 l 258
 98 222 65 194 65 121 c 256
 65 54 124 10 191 10 c 256
 239 10 302 38 342 78 c 258
 352 88 l 257
 352 50 l 257
 339 50 l 257
 294 11 240 -10 182 -10 c 256
 101 -10 45 44 45 123 c 256
348 0 m 257
 342 54 l 257
 342 350 l 258
 342 416 300 450 217 450 c 256
 147 450 96 402 90 330 c 257
 70 330 l 257
 78 414 139 470 223 470 c 256
 307 470 362 425 362 359 c 258
 362 0 l 257
 348 0 l 257
EndSplineSet
PickledDataWithLists: "(dp0
Vpublic.postscript.hints\\u000d
p1
(dp2
VformatVersion\\u000d
p3
V1\\u000d
p4
sVhintSetList\\u000d
p5
(lp6
(dp7
Vstems\\u000d
p8
(lp9
Vhstem -10 20\\u000d
p10
aVhstem 450 20\\u000d
p11
aVvstem 45 20\\u000d
p12
aVvstem 70 20\\u000d
p13
aVvstem 342 20\\u000d
p14
asasVid\\u000d
p15
Vc984c7d90df8b9e1901f4f092efae32e980e8116da5afd0559419d9f83fab0e578a7bc407b85f52f13a62ddf5b968d983e410b1bccf36e376db71c8443c82799\\u000d
p16
ss."
Substitution2: "smcpLowercasetoSmallCapitalslookup22 subtable" a.sc
Substitution2: "SingleSubstitutionlookup28 subtable" ordfeminine
Substitution2: "aaltAccessAllAlternateslookup0 subtable" a.sc
EndChar

StartChar: a.sc
Encoding: 344 -1 115
GlifName: a.sc
Width: 450
VWidth: 0
Flags: W
LayerCount: 2
Fore
SplineSet
279 226 m 257
 227 382 l 257
 173 226 l 257
 279 226 l 257
156 161 m 257
 102 0 l 257
 20 0 l 257
 175 460 l 257
 276 460 l 257
 431 0 l 257
 351 0 l 257
 296 161 l 257
 156 161 l 257
EndSplineSet
PickledDataWithLists: "(dp0
Vpublic.postscript.hints\\u000d
p1
(dp2
VformatVersion\\u000d
p3
V1\\u000d
p4
sVhintSetList\\u000d
p5
(lp6
(dp7
Vstems\\u000d
p8
(lp9
Vhstem 161 65\\u000d
p10
aVhstem 382 78\\u000d
p11
aVvstem 20 411\\u000d
p12
asasVid\\u000d
p13
Vw450m279,226l227,382l173,226m156,161l102,0l20,0l175,460l276,460l431,0l351,0l296,161\\u000d
p14
ss."
EndChar

StartChar: acute
Encoding: 348 180 119
GlifName: acute
Width: 272
VWidth: 0
Flags: W
LayerCount: 2
Fore
SplineSet
114 520 m 257
 100 520 l 257
 150 700 l 257
 180 700 l 257
 114 520 l 257
EndSplineSet
EndChar

StartChar: acutecomb
Encoding: 349 769 120
GlifName: acutecomb
Width: 0
VWidth: 0
AnchorPoint: "top" -212 520 mark 0
AnchorPoint: "top" -201 520 basechar 0
LayerCount: 2
Fore
SplineSet
-194 520 m 257
 -208 520 l 257
 -158 700 l 257
 -128 700 l 257
 -194 520 l 257
EndSplineSet
EndChar

StartChar: ae
Encoding: 351 230 122
GlifName: ae
Width: 757
VWidth: 0
Flags: W
LayerCount: 2
Fore
SplineSet
110 136 m 256
 110 69 163 55 189 55 c 256
 234 55 307 97 327 141 c 257
 327 176 326 211 326 246 c 257
 292 238 110 231 110 136 c 256
411 290 m 257
 650 290 l 257
 637 358 602 390 532 390 c 256
 473 390 421 353 411 290 c 257
30 128 m 256
 30 270 206 274 327 294 c 257
 327 320 l 258
 327 371 271 395 227 395 c 256
 171 395 124 369 120 320 c 257
 55 320 l 257
 65 413 137 460 228 460 c 256
 284 460 342 446 376 398 c 257
 409 441 460 470 531 470 c 256
 669 470 726 350 726 210 c 257
 410 210 l 257
 417 137 450 70 532 70 c 256
 576 70 623 88 646 114 c 257
 708 98 l 257
 693 58 634 -10 532 -10 c 256
 457 -10 410 8 367 74 c 257
 308 21 257 -10 177 -10 c 256
 93 -10 30 43 30 128 c 256
EndSplineSet
PickledDataWithLists: "(dp0
Vpublic.postscript.hints\\u000d
p1
(dp2
VformatVersion\\u000d
p3
V1\\u000d
p4
sVhintSetList\\u000d
p5
(lp6
(dp7
Vstems\\u000d
p8
(lp9
Vvstem 30 80\\u000d
p10
aVhstem -10 65\\u000d
p11
aVhstem 210 80\\u000d
p12
aVhstem 390 80\\u000d
p13
asa(dp14
VpointTag\\u000d
p15
V.hr01\\u000d
p16
sg8
(lp17
Vhstem 395 65\\u000d
p18
aVhstem -10 65\\u000d
p19
aVhstem 210 80\\u000d
p20
aVvstem 30 80\\u000d
p21
asa(dp22
g15
V.hr02\\u000d
p23
sg8
(lp24
Vhstem 390 80\\u000d
p25
aVhstem 210 80\\u000d
p26
aVhstem -10 80\\u000d
p27
aVvstem 30 80\\u000d
p28
asasVid\\u000d
p29
Vecd506bd0e8d61b41d6e50441c0839ecc870300f266612984cb4b95bc3db2e46014186807cc90472bbef4c58e1ad3741d37b71e6f05bf11dcca3d8227203ead2\\u000d
p30
ss."
EndChar

StartChar: ampersand
Encoding: 38 38 125
GlifName: ampersand
Width: 699
VWidth: 0
Flags: W
LayerCount: 2
Fore
SplineSet
120 193 m 256
 120 113 201 55 257 55 c 256
 320 55 394 82 442 137 c 257
 247 373 l 257
 171 330 120 278 120 193 c 256
220 565 m 256
 220 538 239 504 277 463 c 257
 320 482 380 512 380 565 c 256
 380 611 346 645 294 645 c 256
 253 645 220 613 220 565 c 256
40 192 m 256
 40 319 112 373 199 431 c 257
 163 481 140 503 140 566 c 256
 140 652 212 710 298 710 c 256
 382 710 460 652 460 569 c 256
 460 487 402 451 325 406 c 257
 485 218 l 257
 501 254 507 284 510 330 c 257
 590 330 l 257
 586 261 570 222 540 165 c 257
 679 0 l 257
 566 0 l 257
 491 90 l 257
 434 37 360 -10 254 -10 c 256
 142 -10 40 68 40 192 c 256
EndSplineSet
PickledDataWithLists: "(dp0
Vpublic.postscript.hints\\u000d
p1
(dp2
VformatVersion\\u000d
p3
V1\\u000d
p4
sVhintSetList\\u000d
p5
(lp6
(dp7
Vstems\\u000d
p8
(lp9
Vhstem -10 65\\u000d
p10
aVhstem 645 65\\u000d
p11
aVvstem 40 80\\u000d
p12
aVvstem 140 80\\u000d
p13
aVvstem 380 80\\u000d
p14
aVvstem 510 80\\u000d
p15
asasVid\\u000d
p16
V8c561ddf100c913cba068311b4615ab2c08dba2db1aca0b062eca2f19e414757b658f902dd898345063d5aefb711069617e0db0044dae8da39fbb2424922e53c\\u000d
p17
ss."
EndChar

StartChar: aogonek
Encoding: 354 261 126
GlifName: aogonek
Width: 493
VWidth: 0
Flags: W
LayerCount: 2
Fore
SplineSet
125 126 m 256
 125 77 165 60 204 60 c 256
 248 60 326 116 342 141 c 257
 342 245 l 257
 289 219 125 231 125 126 c 256
294 -124 m 256
 294 -70 331 -25 365 0 c 257
 373 0 l 257
 354 26 349 34 342 74 c 257
 310 37 267 -10 192 -10 c 256
 108 -10 45 43 45 128 c 256
 45 279 252 269 342 294 c 257
 342 330 l 258
 342 383 284 405 242 405 c 256
 187 405 139 378 135 330 c 257
 70 330 l 257
 77 417 154 470 243 470 c 256
 340 470 423 432 423 319 c 257
 422 86 l 257
 422 54 439 26 463 0 c 257
 423 0 l 257
 382 -31 355 -69 355 -108 c 256
NamedP: ".hr03"
 355 -135 375 -154 401 -154 c 256
 415 -154 430 -149 441 -141 c 257
 463 -182 l 257
 450 -191 l 257
 431 -202 404 -209 384 -209 c 256
 334 -209 294 -180 294 -124 c 256
EndSplineSet
PickledDataWithLists: "(dp0
Vpublic.postscript.hints\\u000d
p1
(dp2
VformatVersion\\u000d
p3
V1\\u000d
p4
sVhintSetList\\u000d
p5
(lp6
(dp7
Vstems\\u000d
p8
(lp9
Vvstem 45 80\\u000d
p10
aVhstem -10 70\\u000d
p11
aVvstem 342 81\\u000d
p12
aVhstem -209 55\\u000d
p13
aVhstem 405 65\\u000d
p14
asa(dp15
VpointTag\\u000d
p16
V.hr01\\u000d
p17
sg8
(lp18
Vvstem 294 61\\u000d
p19
aVhstem -209 55\\u000d
p20
aVhstem -10 70\\u000d
p21
aVhstem 405 65\\u000d
p22
aVvstem 45 80\\u000d
p23
asa(dp24
g16
V.hr02\\u000d
p25
sg8
(lp26
Vvstem 342 81\\u000d
p27
aVhstem -10 70\\u000d
p28
aVvstem 45 80\\u000d
p29
aVhstem 405 65\\u000d
p30
aVhstem -209 55\\u000d
p31
asa(dp32
g16
V.hr03\\u000d
p33
sg8
(lp34
Vvstem 294 61\\u000d
p35
aVhstem -209 55\\u000d
p36
aVhstem -10 70\\u000d
p37
aVhstem 405 65\\u000d
p38
aVvstem 45 80\\u000d
p39
asasVid\\u000d
p40
V6b839e62ead152f723306c8c56d7eeca64ee3444665333733450f132cdf31e8b65d4119d8a6a8c52a930bd4f67e833b7f1497879119c90db3ddfd7c30fe05fe8\\u000d
p41
ss."
EndChar

StartChar: aringacute
Encoding: 356 507 128
GlifName: aringacute
Width: 493
VWidth: 0
Flags: W
LayerCount: 2
Fore
SplineSet
125 126 m 256
 125 77 165 60 204 60 c 256
 248 60 326 116 342 141 c 257
 342 245 l 257
 289 219 125 231 125 126 c 256
238 589 m 257
 255 649 l 257
 252 650 249 650 246 650 c 256
 229 650 215 636 215 619 c 256
 215 605 225 592 238 589 c 257
272 636 m 257
 257 590 l 257
 269 595 277 606 277 619 c 256
 277 625 275 631 272 636 c 257
45 128 m 256
 45 279 252 269 342 294 c 257
 342 330 l 258
 342 383 284 405 242 405 c 256
 187 405 139 378 135 330 c 257
 70 330 l 257
 77 417 154 470 243 470 c 256
 340 470 423 432 423 319 c 257
 422 86 l 257
 422 54 439 26 463 0 c 257
 373 0 l 257
 354 26 349 34 342 74 c 257
 310 37 267 -10 192 -10 c 256
 108 -10 45 43 45 128 c 256
241 541 m 257
 225 490 l 257
 211 490 l 257
 226 544 l 257
 193 553 168 583 168 619 c 256
 168 662 203 697 246 697 c 256
 289 697 324 662 324 619 c 256
 324 572 286 541 241 541 c 257
EndSplineSet
PickledDataWithLists: "(dp0
Vpublic.postscript.hints\\u000d
p1
(dp2
VformatVersion\\u000d
p3
V1\\u000d
p4
sVhintSetList\\u000d
p5
(lp6
(dp7
Vstems\\u000d
p8
(lp9
Vvstem 45 80\\u000d
p10
aVhstem -10 70\\u000d
p11
aVvstem 342 81\\u000d
p12
aVhstem 650 47\\u000d
p13
aVvstem 168 47\\u000d
p14
aVvstem 277 47\\u000d
p15
aVhstem 405 65\\u000d
p16
asa(dp17
VpointTag\\u000d
p18
V.hr01\\u000d
p19
sg8
(lp20
Vhstem 541 156\\u000d
p21
aVvstem 168 47\\u000d
p22
aVvstem 277 47\\u000d
p23
aVhstem -10 70\\u000d
p24
aVhstem 405 65\\u000d
p25
aVvstem 45 80\\u000d
p26
aVvstem 342 81\\u000d
p27
asasVid\\u000d
p28
Vbe25acfb4ebf3445544ff981d0651fb179fa0bd5b0edf6fa06b621b161ec275b7696415940fa3aad694036249c63a1e745a6efb3dbe9afc6ea05db2474546b1d\\u000d
p29
ss."
EndChar

StartChar: asciicircum
Encoding: 94 94 129
GlifName: asciicircum
Width: 402
VWidth: 0
Flags: W
LayerCount: 2
Fore
SplineSet
49 520 m 257
 189 800 l 257
 213 800 l 257
 353 520 l 257
 327 520 l 257
 195 787 l 257
 207 787 l 257
 75 520 l 257
 49 520 l 257
EndSplineSet
EndChar

StartChar: asciitilde
Encoding: 126 126 130
GlifName: asciitilde
Width: 510
VWidth: 0
Flags: W
LayerCount: 2
Fore
SplineSet
100 183 m 257
 50 183 l 257
 74 270 133 303 180 303 c 256
 188 303 196 302 204 301 c 257
 252 293 299 263 340 263 c 256
 369 263 400 271 410 303 c 257
NamedP: ".hr03"
 460 303 l 257
 436 207 387 183 340 183 c 256
 286 183 233 223 180 223 c 256
 153 223 110 211 100 183 c 257
EndSplineSet
PickledDataWithLists: "(dp0
Vpublic.postscript.hints\\u000d
p1
(dp2
VformatVersion\\u000d
p3
V1\\u000d
p4
sVhintSetList\\u000d
p5
(lp6
(dp7
Vstems\\u000d
p8
(lp9
Vhstem 183 80\\u000d
p10
aVvstem 50 410\\u000d
p11
asa(dp12
VpointTag\\u000d
p13
V.hr01\\u000d
p14
sg8
(lp15
Vhstem 223 80\\u000d
p16
aVvstem 50 410\\u000d
p17
asa(dp18
g13
V.hr02\\u000d
p19
sg8
(lp20
Vhstem 183 80\\u000d
p21
aVvstem 50 410\\u000d
p22
asa(dp23
g13
V.hr03\\u000d
p24
sg8
(lp25
Vhstem 223 80\\u000d
p26
aVvstem 50 410\\u000d
p27
asa(dp28
g13
V.hr04\\u000d
p29
sg8
(lp30
Vhstem 183 80\\u000d
p31
aVvstem 50 410\\u000d
p32
asa(dp33
g13
V.hr05\\u000d
p34
sg8
(lp35
Vhstem 223 80\\u000d
p36
aVvstem 50 410\\u000d
p37
asa(dp38
g13
Vlsb\\u000d
p39
sg8
(lp40
Vhstem 183 80\\u000d
p41
aVvstem 50 410\\u000d
p42
asasVid\\u000d
p43
V55b21d05b048ff04a1190238013d83a4363ed8b2019c053d5d0e9d1a566bfe0ecc7443724e87b8412af7d50d8b799d38f4e3459e2382e119a556f94d3002793d\\u000d
p44
ss."
EndChar

StartChar: asterisk
Encoding: 42 42 131
GlifName: asterisk
Width: 550
VWidth: 0
Flags: W
LayerCount: 2
Fore
SplineSet
178 200 m 257
 50 200 l 257
 50 280 l 257
 178 280 l 257
 88 371 l 257
 144 427 l 257
 235 337 l 257
 235 465 l 257
 315 465 l 257
 315 337 l 257
 406 427 l 257
 462 371 l 257
 372 280 l 257
 500 280 l 257
 500 200 l 257
 372 200 l 257
 462 109 l 257
 406 53 l 257
 315 143 l 257
 315 15 l 257
 235 15 l 257
 235 143 l 257
 144 53 l 257
 88 109 l 257
 178 200 l 257
EndSplineSet
PickledDataWithLists: "(dp0
Vpublic.postscript.hints\\u000d
p1
(dp2
VformatVersion\\u000d
p3
V1\\u000d
p4
sVhintSetList\\u000d
p5
(lp6
(dp7
Vstems\\u000d
p8
(lp9
Vhstem 200 80\\u000d
p10
aVvstem 235 80\\u000d
p11
asasVid\\u000d
p12
V00589044f6577e16e4715cd7e7a616ecc198c828d853035e15f718adaec05dd33c4afe4f50957db5eee8fbe9d247628cef4bcc7139c011668e423dfb65e54a59\\u000d
p13
ss."
EndChar

StartChar: at
Encoding: 64 64 132
GlifName: at
Width: 1020
VWidth: 0
Flags: W
LayerCount: 2
Fore
SplineSet
396 289 m 256
 396 245 412 219 459 219 c 256
 498 219 538 242 545 261 c 258
 573 339 l 258
 578 353 581 366 581 378 c 256
 581 411 561 436 515 436 c 256
 472 436 439 408 408 349 c 256
 400 334 396 311 396 289 c 256
181 312 m 256
 181 543 360 648 508 648 c 256
 651 648 839 579 839 367 c 256
 839 248 773 175 697 143 c 256
 673 133 650 128 631 128 c 256
NamedP: ".hr01"
 581 128 548 158 548 203 c 256
NamedP: ".hr02"
 548 207 549 211 549 216 c 257
 522 191 469 158 420 158 c 256
 354 158 325 218 325 276 c 256
 325 385 407 491 522 491 c 256
 575 491 602 458 602 426 c 258
NamedP: ".hr03"
 602 421 l 257
 617 465 l 257
 677 465 l 257
 612 283 l 258
 606 265 600 243 600 224 c 256
NamedP: ".hr04"
 600 199 610 179 643 179 c 256
 660 179 681 185 699 193 c 257
 756 216 775 304 775 366 c 256
 775 546 594 580 508 580 c 256
 404 580 253 502 253 313 c 256
 253 173 357 57 514 57 c 256
 566 57 609 68 663 96 c 257
 663 44 l 257
 614 15 554 -2 485 -2 c 256
 313 -2 181 136 181 312 c 256
EndSplineSet
PickledDataWithLists: "(dp0
Vpublic.postscript.hints\\u000d
p1
(dp2
VformatVersion\\u000d
p3
V1\\u000d
p4
sVhintSetList\\u000d
p5
(lp6
(dp7
Vstems\\u000d
p8
(lp9
Vvstem 325 71\\u000d
p10
aVhstem 158 61\\u000d
p11
aVvstem 581 21\\u000d
p12
aVhstem 436 55\\u000d
p13
aVvstem 181 72\\u000d
p14
aVhstem 580 68\\u000d
p15
aVvstem 775 64\\u000d
p16
aVhstem -2 59\\u000d
p17
asa(dp18
VpointTag\\u000d
p19
V.hr01\\u000d
p20
sg8
(lp21
Vhstem 128 51\\u000d
p22
aVvstem 581 21\\u000d
p23
aVhstem -2 59\\u000d
p24
aVhstem 436 55\\u000d
p25
aVhstem 580 68\\u000d
p26
aVvstem 181 72\\u000d
p27
aVvstem 325 71\\u000d
p28
aVvstem 775 64\\u000d
p29
asa(dp30
g19
V.hr02\\u000d
p31
sg8
(lp32
Vhstem 158 61\\u000d
p33
aVvstem 548 52\\u000d
p34
aVvstem 325 71\\u000d
p35
aVhstem 436 55\\u000d
p36
aVhstem -2 59\\u000d
p37
aVhstem 580 68\\u000d
p38
aVvstem 181 72\\u000d
p39
aVvstem 775 64\\u000d
p40
asa(dp41
g19
V.hr03\\u000d
p42
sg8
(lp43
Vvstem 581 21\\u000d
p44
aVhstem -2 59\\u000d
p45
aVhstem 128 51\\u000d
p46
aVhstem 436 55\\u000d
p47
aVhstem 580 68\\u000d
p48
aVvstem 181 72\\u000d
p49
aVvstem 325 71\\u000d
p50
aVvstem 775 64\\u000d
p51
asa(dp52
g19
V.hr04\\u000d
p53
sg8
(lp54
Vvstem 548 52\\u000d
p55
aVhstem 128 51\\u000d
p56
aVvstem 775 64\\u000d
p57
aVhstem 580 68\\u000d
p58
aVvstem 181 72\\u000d
p59
aVhstem -2 59\\u000d
p60
aVhstem 436 55\\u000d
p61
aVvstem 325 71\\u000d
p62
asasVid\\u000d
p63
V32b06c1d4703d6925d269e2a13ae9af4fde32627809533e85531ae2a695539af507638bf3c006b940cf78b097c2fbcff68a3e59b5a26a2e9849a3416b3d425be\\u000d
p64
ss."
EndChar

StartChar: b
Encoding: 98 98 134
GlifName: b
Width: 491
VWidth: 0
Flags: W
LayerCount: 2
Fore
SplineSet
90 252 m 258
 90 226 l 258
 90 76 196 10 265 10 c 256
 348 10 444 87 444 235 c 256
 444 373 365 450 265 450 c 256
 179 450 90 359 90 252 c 258
81 121 m 257
 81 304 l 257
 90 329 l 258
 123 419 186 470 265 470 c 256
 376 470 464 377 464 235 c 256
 464 75 351 -10 265 -10 c 256
 197 -10 123 31 90 121 c 257
 81 121 l 257
70 0 m 257
 70 700 l 257
 90 700 l 257
 90 121 l 257
 88 121 l 257
 76 0 l 257
 70 0 l 257
EndSplineSet
PickledDataWithLists: "(dp0
Vpublic.postscript.hints\\u000d
p1
(dp2
VformatVersion\\u000d
p3
V1\\u000d
p4
sVhintSetList\\u000d
p5
(lp6
(dp7
Vstems\\u000d
p8
(lp9
Vhstem -10 20\\u000d
p10
aVhstem 450 20\\u000d
p11
aVvstem 70 20\\u000d
p12
aVvstem 444 20\\u000d
p13
asasVid\\u000d
p14
V65dc68a2d3dec2b25e95572c286bb99cad075056f6d153aad22c9313a11c66b08689ce86840ab46c67ca3afef1d58c74b38fa808ffa916fd06c9a54edeea8c41\\u000d
p15
ss."
Substitution2: "smcpLowercasetoSmallCapitalslookup22 subtable" b.sc
Substitution2: "aaltAccessAllAlternateslookup0 subtable" b.sc
EndChar

StartChar: b.sc
Encoding: 358 -1 135
GlifName: b.sc
Width: 437
VWidth: 0
Flags: W
LayerCount: 2
Fore
SplineSet
200 395 m 258
 113 395 l 257
 113 281 l 257
 200 281 l 258
 260 281 281 297 281 337 c 256
 281 377 260 395 200 395 c 258
197 216 m 258
 113 216 l 257
 113 65 l 257
 197 65 l 258
 260 65 325 78 325 138 c 256
NamedP: ".hr01"
 325 198 266 216 197 216 c 258
197 0 m 258
 33 0 l 257
 33 460 l 257
 197 460 l 258
 304 460 361 441 361 337 c 256
 361 301 333 268 280 251 c 257
 349 242 405 218 405 138 c 256
 405 16 313 0 197 0 c 258
EndSplineSet
PickledDataWithLists: "(dp0
Vpublic.postscript.hints\\u000d
p1
(dp2
VformatVersion\\u000d
p3
V1\\u000d
p4
sVhintSetList\\u000d
p5
(lp6
(dp7
Vstems\\u000d
p8
(lp9
Vhstem 395 65\\u000d
p10
aVvstem 33 80\\u000d
p11
aVhstem 216 65\\u000d
p12
aVvstem 281 80\\u000d
p13
aVhstem 0 65\\u000d
p14
asa(dp15
VpointTag\\u000d
p16
V.hr01\\u000d
p17
sg8
(lp18
Vvstem 325 80\\u000d
p19
aVhstem 216 65\\u000d
p20
aVhstem 0 65\\u000d
p21
aVvstem 33 80\\u000d
p22
aVhstem 395 65\\u000d
p23
asa(dp24
g16
V.hr02\\u000d
p25
sg8
(lp26
Vvstem 281 80\\u000d
p27
aVhstem 0 65\\u000d
p28
aVhstem 216 65\\u000d
p29
aVhstem 395 65\\u000d
p30
aVvstem 33 80\\u000d
p31
asa(dp32
g16
V.hr03\\u000d
p33
sg8
(lp34
Vvstem 325 80\\u000d
p35
aVhstem 0 65\\u000d
p36
aVhstem 216 65\\u000d
p37
aVhstem 395 65\\u000d
p38
aVvstem 33 80\\u000d
p39
asasVid\\u000d
p40
Vfc8ad8a3737a38c4070e9c5e83d20b8aaa183cad8b7bff0d236bb03530234b81f6ef194782ee7cf66f485efb893153610ea5b0312e36085da44c4a641f0c83e6\\u000d
p41
ss."
EndChar

StartChar: backslash
Encoding: 92 92 136
GlifName: backslash
Width: 490
VWidth: 0
Flags: W
LayerCount: 2
Fore
SplineSet
407 0 m 257
 60 700 l 257
 83 700 l 257
 430 0 l 257
 407 0 l 257
EndSplineSet
EndChar

StartChar: bar
Encoding: 124 124 137
GlifName: bar
Width: 220
VWidth: 0
Flags: W
LayerCount: 2
Fore
SplineSet
150 -80 m 257
 70 -80 l 257
 70 780 l 257
 150 780 l 257
 150 -80 l 257
EndSplineSet
PickledDataWithLists: "(dp0
Vpublic.postscript.hints\\u000d
p1
(dp2
VformatVersion\\u000d
p3
V1\\u000d
p4
sVhintSetList\\u000d
p5
(lp6
(dp7
Vstems\\u000d
p8
(lp9
Vhstem -80 860\\u000d
p10
aVvstem 70 80\\u000d
p11
asasVid\\u000d
p12
Vw220m150,-80l70,-80l70,780l150,780\\u000d
p13
ss."
EndChar

StartChar: braceleft
Encoding: 123 123 138
GlifName: braceleft
Width: 324
VWidth: 0
Flags: W
LayerCount: 2
Fore
SplineSet
40 326 m 257
 40 374 l 257
 91 389 110 409 110 468 c 258
 110 615 l 258
 110 774 186 780 284 780 c 257
 284 722 l 257
 212 722 190 701 190 628 c 258
 190 460 l 258
 190 404 164 371 126 348 c 257
 162 330 190 287 190 234 c 258
 190 74 l 258
 190 4 214 -26 284 -26 c 257
 284 -80 l 257
 132 -80 110 -42 110 97 c 258
 110 230 l 258
 110 287 92 312 40 326 c 257
EndSplineSet
PickledDataWithLists: "(dp0
Vpublic.postscript.hints\\u000d
p1
(dp2
VformatVersion\\u000d
p3
V1\\u000d
p4
sVhintSetList\\u000d
p5
(lp6
(dp7
Vstems\\u000d
p8
(lp9
Vhstem -80 54\\u000d
p10
aVhstem 722 58\\u000d
p11
aVvstem 110 80\\u000d
p12
asasVid\\u000d
p13
Vfa63d1e720441c9c6516ced2efc1f77c81ce9e20bc5e610e2d3e1c2133f9f9791f4931e21e3dd9636aa9e5dc8a5d8f21fd75d718fa69283d7d378fa3cebfccd6\\u000d
p14
ss."
EndChar

StartChar: braceright
Encoding: 125 125 139
GlifName: braceright
Width: 324
VWidth: 0
Flags: W
LayerCount: 2
Fore
SplineSet
40 -80 m 257
 40 -26 l 257
 124 -26 134 12 134 101 c 258
 134 234 l 258
 134 287 162 330 198 348 c 257
 155 374 134 409 134 460 c 258
 134 628 l 258
 134 701 112 722 40 722 c 257
 40 780 l 257
 83 780 146 774 179 749 c 256
 210 725 214 682 214 615 c 258
 214 468 l 258
 214 408 235 389 284 374 c 257
 284 326 l 257
 232 312 214 287 214 230 c 258
 214 97 l 258
 214 -55 180 -80 40 -80 c 257
EndSplineSet
PickledDataWithLists: "(dp0
Vpublic.postscript.hints\\u000d
p1
(dp2
VformatVersion\\u000d
p3
V1\\u000d
p4
sVhintSetList\\u000d
p5
(lp6
(dp7
Vstems\\u000d
p8
(lp9
Vhstem -80 54\\u000d
p10
aVhstem 722 58\\u000d
p11
aVvstem 134 80\\u000d
p12
asasVid\\u000d
p13
Vf5683d7e4256a71254cfc1f0e72809312f3c18705e6feefae64ed1cde00e42a37158b120689b40e3c0520aca69525738a4443bc934e686bf0a109c57c401c031\\u000d
p14
ss."
EndChar

StartChar: bracketleft
Encoding: 91 91 140
GlifName: bracketleft
Width: 360
VWidth: 0
Flags: W
LayerCount: 2
Fore
SplineSet
70 780 m 257
 290 780 l 257
 290 760 l 257
 90 760 l 257
 90 -61 l 257
 290 -61 l 257
 290 -81 l 257
 70 -81 l 257
 70 780 l 257
EndSplineSet
EndChar

StartChar: bracketright
Encoding: 93 93 141
GlifName: bracketright
Width: 360
VWidth: 0
Flags: W
LayerCount: 2
Fore
SplineSet
70 -81 m 257
 70 -61 l 257
 270 -61 l 257
 270 760 l 257
 70 760 l 257
 70 780 l 257
 290 780 l 257
 290 -81 l 257
 70 -81 l 257
EndSplineSet
EndChar

StartChar: breve
Encoding: 359 728 142
GlifName: breve
Width: 410
VWidth: 0
Flags: W
LayerCount: 2
Fore
SplineSet
50 660 m 257
 130 660 l 257
 130 600 170 580 205 580 c 256
 240 580 280 600 280 660 c 257
 360 660 l 257
 360 560 285 520 205 520 c 256
 125 520 50 560 50 660 c 257
EndSplineSet
PickledDataWithLists: "(dp0
Vpublic.postscript.hints\\u000d
p1
(dp2
VformatVersion\\u000d
p3
V1\\u000d
p4
sVhintSetList\\u000d
p5
(lp6
(dp7
Vstems\\u000d
p8
(lp9
Vhstem 520 60\\u000d
p10
aVvstem 50 80\\u000d
p11
aVvstem 280 80\\u000d
p12
asasVid\\u000d
p13
Vw410m50,660l130,660c130,600 170,580 205,580c240,580 280,600 280,660l360,660c360,560 285,520 205,520c125,520 50,560 50,660\\u000d
p14
ss."
EndChar

StartChar: brokenbar
Encoding: 360 166 143
GlifName: brokenbar
Width: 180
VWidth: 0
Flags: W
LayerCount: 2
Fore
SplineSet
130 -156 m 257
 50 -156 l 257
 50 156 l 257
 130 156 l 257
 130 -156 l 257
130 289 m 257
 50 289 l 257
 50 601 l 257
 130 601 l 257
 130 289 l 257
EndSplineSet
PickledDataWithLists: "(dp0
Vpublic.postscript.hints\\u000d
p1
(dp2
VformatVersion\\u000d
p3
V1\\u000d
p4
sVhintSetList\\u000d
p5
(lp6
(dp7
Vstems\\u000d
p8
(lp9
Vhstem -156 312\\u000d
p10
aVhstem -156 757\\u000d
p11
aVhstem 289 312\\u000d
p12
aVvstem 50 80\\u000d
p13
asasVid\\u000d
p14
Vw180m130,-156l50,-156l50,156l130,156m130,289l50,289l50,601l130,601\\u000d
p15
ss."
EndChar

StartChar: bullet
Encoding: 361 8226 144
GlifName: bullet
Width: 311
VWidth: 0
Flags: W
LayerCount: 2
Fore
SplineSet
45 311 m 256
 45 373 95 422 156 422 c 256
 216 422 266 373 266 311 c 256
 266 251 216 202 156 202 c 256
 95 202 45 251 45 311 c 256
EndSplineSet
PickledDataWithLists: "(dp0
Vpublic.postscript.hints\\u000d
p1
(dp2
VformatVersion\\u000d
p3
V1\\u000d
p4
sVhintSetList\\u000d
p5
(lp6
(dp7
Vstems\\u000d
p8
(lp9
Vhstem 202 220\\u000d
p10
aVvstem 45 221\\u000d
p11
asasVid\\u000d
p12
Vw311m45,311c45,373 95,422 156,422c216,422 266,373 266,311c266,251 216,202 156,202c95,202 45,251 45,311\\u000d
p13
ss."
EndChar

StartChar: c
Encoding: 99 99 145
GlifName: c
Width: 510
VWidth: 0
Flags: W
LayerCount: 2
Fore
SplineSet
50 230 m 256
 50 348 95 470 259 470 c 256
 378 470 437 405 459 320 c 257
 370 320 l 257
 367 335 338 402 259 402 c 256
 168 402 134 335 134 230 c 256
 134 147 160 58 259 58 c 256
 336 58 365 118 372 150 c 257
 460 150 l 257
 440 79 387 -10 259 -10 c 256
 94 -10 50 122 50 230 c 256
EndSplineSet
PickledDataWithLists: "(dp0
Vpublic.postscript.hints\\u000d
p1
(dp2
VformatVersion\\u000d
p3
V1\\u000d
p4
sVhintSetList\\u000d
p5
(lp6
(dp7
Vstems\\u000d
p8
(lp9
Vhstem -10 68\\u000d
p10
aVhstem 402 68\\u000d
p11
aVvstem 50 84\\u000d
p12
asasVid\\u000d
p13
V4535be27102a238f6b4bb677cf254acd59b13b28834c99d70f26ce3f263339bed74bc6d4be55e262ec5dfb42861a9f1b82bd192b3ee407c26f35ce305e3702f9\\u000d
p14
ss."
Substitution2: "smcpLowercasetoSmallCapitalslookup22 subtable" c.sc
Substitution2: "aaltAccessAllAlternateslookup0 subtable" c.sc
EndChar

StartChar: c.sc
Encoding: 362 -1 146
GlifName: c.sc
Width: 466
VWidth: 0
Flags: W
LayerCount: 2
Fore
SplineSet
33 230 m 256
 33 368 103 470 237 470 c 256
 348 470 409 408 434 310 c 257
 355 310 l 257
 339 366 307 402 237 402 c 256
 146 402 113 320 113 230 c 256
 113 145 140 59 237 59 c 256
 291 59 322 89 342 127 c 257
 425 127 l 257
 400 42 338 -10 241 -10 c 256
 100 -10 33 90 33 230 c 256
EndSplineSet
PickledDataWithLists: "(dp0
Vpublic.postscript.hints\\u000d
p1
(dp2
VformatVersion\\u000d
p3
V1\\u000d
p4
sVhintSetList\\u000d
p5
(lp6
(dp7
Vstems\\u000d
p8
(lp9
Vhstem -10 69\\u000d
p10
aVhstem 402 68\\u000d
p11
aVvstem 33 80\\u000d
p12
asasVid\\u000d
p13
Vaedfae3b0feebfa8c11917bab6a4b2ca16a89d4cbafcfefa0779be40027f7e6b65db463317ce707c09f4f78e2b406887381c28d69f50b8a647359b4442228034\\u000d
p14
ss."
EndChar

StartChar: cacute
Encoding: 363 263 147
GlifName: cacute
Width: 510
VWidth: 0
Flags: W
LayerCount: 2
Fore
SplineSet
287 520 m 257
 223 520 l 257
 273 680 l 257
 353 680 l 257
 287 520 l 257
50 230 m 256
 50 348 95 470 259 470 c 256
 378 470 437 405 459 320 c 257
 370 320 l 257
 367 335 338 402 259 402 c 256
 168 402 134 335 134 230 c 256
 134 147 160 58 259 58 c 256
 336 58 365 118 372 150 c 257
 460 150 l 257
 440 79 387 -10 259 -10 c 256
 94 -10 50 122 50 230 c 256
EndSplineSet
PickledDataWithLists: "(dp0
Vpublic.postscript.hints\\u000d
p1
(dp2
VformatVersion\\u000d
p3
V1\\u000d
p4
sVhintSetList\\u000d
p5
(lp6
(dp7
Vstems\\u000d
p8
(lp9
Vhstem -10 68\\u000d
p10
aVhstem 402 68\\u000d
p11
aVhstem 520 160\\u000d
p12
aVvstem 50 84\\u000d
p13
asasVid\\u000d
p14
V504233b44c0588d5bbd5bf4d2b9e18bb17fadfc6e325c1c63641279f1b15a44d15cbb78a1dd328e0ec68c3cfbb31001167a5046a2910de59c83626374b45bf5a\\u000d
p15
ss."
EndChar

StartChar: caron
Encoding: 364 711 148
GlifName: caron
Width: 340
VWidth: 0
Flags: W
LayerCount: 2
Fore
SplineSet
210 520 m 257
 130 520 l 257
 30 680 l 257
 94 680 l 257
 170 595 l 257
 246 680 l 257
 310 680 l 257
 210 520 l 257
EndSplineSet
PickledDataWithLists: "(dp0
Vpublic.postscript.hints\\u000d
p1
(dp2
VformatVersion\\u000d
p3
V1\\u000d
p4
sVhintSetList\\u000d
p5
(lp6
(dp7
Vstems\\u000d
p8
(lp9
Vhstem 520 160\\u000d
p10
aVvstem 30 280\\u000d
p11
asasVid\\u000d
p12
Vw340m210,520l130,520l30,680l94,680l170,595l246,680l310,680\\u000d
p13
ss."
EndChar

StartChar: caroncmb.cap
Encoding: 365 -1 149
GlifName: caroncmb.cap
Width: 0
VWidth: 0
LayerCount: 2
Fore
SplineSet
-180 700 m 257
 -260 700 l 257
 -360 860 l 257
 -296 860 l 257
 -220 775 l 257
 -144 860 l 257
 -80 860 l 257
 -180 700 l 257
EndSplineSet
PickledDataWithLists: "(dp0
Vpublic.postscript.hints\\u000d
p1
(dp2
VformatVersion\\u000d
p3
V1\\u000d
p4
sVhintSetList\\u000d
p5
(lp6
(dp7
Vstems\\u000d
p8
(lp9
Vhstem 700 160\\u000d
p10
aVvstem -360 280\\u000d
p11
asasVid\\u000d
p12
Vw0m-180,700l-260,700l-360,860l-296,860l-220,775l-144,860l-80,860\\u000d
p13
ss."
EndChar

StartChar: ccaron
Encoding: 366 269 150
GlifName: ccaron
Width: 510
VWidth: 0
Flags: W
LayerCount: 2
Fore
SplineSet
50 230 m 256
 50 348 95 470 259 470 c 256
 378 470 437 405 459 320 c 257
 370 320 l 257
 367 335 338 402 259 402 c 256
 168 402 134 335 134 230 c 256
 134 147 160 58 259 58 c 256
 336 58 365 118 372 150 c 257
 460 150 l 257
 440 79 387 -10 259 -10 c 256
 94 -10 50 122 50 230 c 256
295 520 m 257
 215 520 l 257
 115 680 l 257
 179 680 l 257
 255 595 l 257
 331 680 l 257
 395 680 l 257
 295 520 l 257
EndSplineSet
PickledDataWithLists: "(dp0
Vpublic.postscript.hints\\u000d
p1
(dp2
VformatVersion\\u000d
p3
V1\\u000d
p4
sVhintSetList\\u000d
p5
(lp6
(dp7
Vstems\\u000d
p8
(lp9
Vhstem -10 68\\u000d
p10
aVhstem 402 68\\u000d
p11
aVhstem 520 160\\u000d
p12
aVvstem 50 84\\u000d
p13
asasVid\\u000d
p14
Vcc73d71e189cd9dc8c15c7785287db2b92d94eaa898ff5b8a7cf14dc466ece4f124a7cf540b0ee4fdc5de65d595919c8da653880323dfa958dbe16726651cecd\\u000d
p15
ss."
EndChar

StartChar: ccedilla
Encoding: 367 231 151
GlifName: ccedilla
Width: 452
VWidth: 0
Flags: W
LayerCount: 2
Fore
SplineSet
34 230 m 256
 34 348 96 470 234 470 c 256
 328 470 399 420 415 334 c 257
 338 333 l 257
 315 369 279 390 233 390 c 256
 164 390 113 328 113 230 c 256
 113 156 148 70 233 70 c 256
 273 70 303 88 324 114 c 257
 416 114 l 257
 381 55 340 2 262 -8 c 257
 242 -49 l 257
 265 -57 309 -73 309 -126 c 256
 309 -180 264 -212 209 -212 c 256
 176 -212 147 -202 139 -196 c 257
 139 -167 l 257
 150 -170 169 -173 187 -173 c 258
 193 -173 l 258
 236 -173 252 -150 252 -121 c 256
 252 -85 201 -73 173 -70 c 257
 202 -8 l 257
 78 10 34 130 34 230 c 256
EndSplineSet
PickledDataWithLists: "(dp0
Vpublic.postscript.hints\\u000d
p1
(dp2
VformatVersion\\u000d
p3
V1\\u000d
p4
sVhintSetList\\u000d
p5
(lp6
(dp7
Vstems\\u000d
p8
(lp9
Vhstem -212 39\\u000d
p10
aVhstem -8 78\\u000d
p11
aVhstem 390 80\\u000d
p12
aVvstem 34 79\\u000d
p13
aVvstem 252 57\\u000d
p14
asasVid\\u000d
p15
V537d77ff725c439336e63c181d03f312c6bf441cbe12cb4e75e23c8e5c3bfa59a25b73495473e20e7e9acb2efc93bbdf6ffc2d8048c692561832aed01e77be6f\\u000d
p16
ss."
EndChar

StartChar: ccircumflex
Encoding: 368 265 152
GlifName: ccircumflex
Width: 510
VWidth: 0
Flags: W
LayerCount: 2
Fore
SplineSet
50 230 m 256
 50 348 95 470 259 470 c 256
 378 470 437 405 459 320 c 257
 370 320 l 257
 367 335 338 402 259 402 c 256
 168 402 134 335 134 230 c 256
 134 147 160 58 259 58 c 256
 336 58 365 118 372 150 c 257
 460 150 l 257
 440 79 387 -10 259 -10 c 256
 94 -10 50 122 50 230 c 256
255 656 m 257
 135 520 l 257
 115 520 l 257
 235 680 l 257
 275 680 l 257
 395 520 l 257
 375 520 l 257
 255 656 l 257
EndSplineSet
PickledDataWithLists: "(dp0
Vpublic.postscript.hints\\u000d
p1
(dp2
VformatVersion\\u000d
p3
V1\\u000d
p4
sVhintSetList\\u000d
p5
(lp6
(dp7
Vstems\\u000d
p8
(lp9
Vhstem -10 68\\u000d
p10
aVhstem 402 68\\u000d
p11
aVhstem 656 24\\u000d
p12
aVvstem 50 84\\u000d
p13
asasVid\\u000d
p14
V30114d29b9041f442d87e889f2ce7356cdf51c12401f4dda40e5121402edcd61c074b3cfb4a0562dc1d6e893f1498d1a87aad0b6c06a1e4b10385d443c5f73f7\\u000d
p15
ss."
EndChar

StartChar: cdotaccent
Encoding: 369 267 153
GlifName: cdotaccent
Width: 510
VWidth: 0
Flags: W
LayerCount: 2
Fore
SplineSet
265 560 m 257
 245 560 l 257
 245 640 l 257
 265 640 l 257
 265 560 l 257
50 230 m 256
 50 348 95 470 259 470 c 256
 378 470 437 405 459 320 c 257
 370 320 l 257
 367 335 338 402 259 402 c 256
 168 402 134 335 134 230 c 256
 134 147 160 58 259 58 c 256
 336 58 365 118 372 150 c 257
 460 150 l 257
 440 79 387 -10 259 -10 c 256
 94 -10 50 122 50 230 c 256
EndSplineSet
PickledDataWithLists: "(dp0
Vpublic.postscript.hints\\u000d
p1
(dp2
VformatVersion\\u000d
p3
V1\\u000d
p4
sVhintSetList\\u000d
p5
(lp6
(dp7
Vstems\\u000d
p8
(lp9
Vhstem -10 68\\u000d
p10
aVhstem 402 68\\u000d
p11
aVhstem 560 80\\u000d
p12
aVvstem 50 84\\u000d
p13
aVvstem 245 20\\u000d
p14
asasVid\\u000d
p15
V8750610c0b3194874aec4ba42d81255d051d55c4d0045f1f58255485b7b315d0188abb314613109b786adff92eda70a280409ad749e233c18a33aa79099daee1\\u000d
p16
ss."
EndChar

StartChar: cedilla
Encoding: 370 184 154
GlifName: cedilla
Width: 452
VWidth: 0
Flags: W
LayerCount: 2
Fore
SplineSet
141 -193 m 257
 141 -164 l 257
 154 -167 175 -170 195 -170 c 256
 236 -170 254 -148 254 -118 c 256
 254 -82 205 -70 175 -67 c 257
 206 0 l 257
 267 0 l 257
 244 -46 l 257
 267 -54 311 -70 311 -123 c 256
 311 -177 266 -209 211 -209 c 256
 178 -209 155 -200 141 -193 c 257
EndSplineSet
PickledDataWithLists: "(dp0
Vpublic.postscript.hints\\u000d
p1
(dp2
VformatVersion\\u000d
p3
V1\\u000d
p4
sVhintSetList\\u000d
p5
(lp6
(dp7
Vstems\\u000d
p8
(lp9
Vhstem -209 39\\u000d
p10
aVhstem -46 46\\u000d
p11
aVvstem 254 57\\u000d
p12
asasVid\\u000d
p13
Ve1a52304300e924f0b9755555d51a6f836536abd5c6354fa0a3cef04d385f8050de8052ef1e2cf1d35fdedc456699aa9dcccd4f17fe521945c255c10500d371f\\u000d
p14
ss."
EndChar

StartChar: cent
Encoding: 371 162 155
GlifName: cent
Width: 495
VWidth: 0
Flags: W
LayerCount: 2
Fore
SplineSet
129 232 m 256
 129 210 128 116 182 77 c 257
 279 409 l 257
 145 420 129 298 129 232 c 256
49 228 m 256
 49 448 202 473 253 473 c 256
 258 473 269 473 296 469 c 257
 346 637 l 257
 393 623 l 257
 345 455 l 257
 405 429 426 385 436 353 c 257
 443 326 l 257
 367 314 l 257
 363 333 355 363 326 388 c 257
 229 55 l 257
 237 53 243 52 255 52 c 256
 310 52 362 88 374 169 c 257
 451 160 l 257
 431 61 363 -12 256 -12 c 256
 236 -12 223 -9 212 -6 c 257
 161 -178 l 257
 112 -164 l 257
 162 9 l 257
 95 41 49 116 49 228 c 256
EndSplineSet
PickledDataWithLists: "(dp0
Vpublic.postscript.hints\\u000d
p1
(dp2
VformatVersion\\u000d
p3
V1\\u000d
p4
sVhintSetList\\u000d
p5
(lp6
(dp7
Vstems\\u000d
p8
(lp9
Vhstem -12 64\\u000d
p10
aVhstem 409 64\\u000d
p11
aVvstem 49 80\\u000d
p12
asasVid\\u000d
p13
Vc9d9d2761d9104a3ba238a428188f57f745f7297f6d2c284add9f1ac83e9db6f039734c387166022ef78fdc1e4506dfd026de86dc01ad42eafb62451c7cc1f3a\\u000d
p14
ss."
EndChar

StartChar: circumflex
Encoding: 372 710 156
GlifName: circumflex
Width: 340
VWidth: 0
Flags: W
LayerCount: 2
Fore
SplineSet
170 676 m 257
 50 520 l 257
 30 520 l 257
 150 700 l 257
 190 700 l 257
 310 520 l 257
 290 520 l 257
 170 676 l 257
EndSplineSet
PickledDataWithLists: "(dp0
Vpublic.postscript.hints\\u000d
p1
(dp2
VformatVersion\\u000d
p3
V1\\u000d
p4
sVhintSetList\\u000d
p5
(lp6
(dp7
Vstems\\u000d
p8
(lp9
Vvstem 30 280\\u000d
p10
asasVid\\u000d
p11
Vw340m170,676l50,520l30,520l150,700l190,700l310,520l290,520\\u000d
p12
ss."
EndChar

StartChar: colon
Encoding: 58 58 157
GlifName: colon
Width: 180
VWidth: 0
Flags: W
LayerCount: 2
Fore
SplineSet
130 370 m 257
 50 370 l 257
 50 450 l 257
 130 450 l 257
 130 370 l 257
130 0 m 257
 50 0 l 257
 50 80 l 257
 130 80 l 257
 130 0 l 257
EndSplineSet
PickledDataWithLists: "(dp0
Vpublic.postscript.hints\\u000d
p1
(dp2
VformatVersion\\u000d
p3
V1\\u000d
p4
sVhintSetList\\u000d
p5
(lp6
(dp7
Vstems\\u000d
p8
(lp9
Vhstem 0 80\\u000d
p10
aVhstem 370 80\\u000d
p11
aVvstem 50 80\\u000d
p12
asasVid\\u000d
p13
Vw180m130,370l50,370l50,450l130,450m130,0l50,0l50,80l130,80\\u000d
p14
ss."
EndChar

StartChar: comma
Encoding: 44 44 158
GlifName: comma
Width: 180
VWidth: 0
Flags: W
LayerCount: 2
Fore
SplineSet
72 0 m 257
 50 0 l 257
 50 80 l 257
 130 80 l 257
 130 0 l 257
 84 -130 l 257
 50 -130 l 257
 72 0 l 257
EndSplineSet
PickledDataWithLists: "(dp0
Vpublic.postscript.hints\\u000d
p1
(dp2
VformatVersion\\u000d
p3
V1\\u000d
p4
sVhintSetList\\u000d
p5
(lp6
(dp7
Vstems\\u000d
p8
(lp9
Vhstem 0 80\\u000d
p10
aVvstem 50 80\\u000d
p11
asasVid\\u000d
p12
Vw180m72,0l50,0l50,80l130,80l130,0l84,-130l50,-130\\u000d
p13
ss."
EndChar

StartChar: copyright
Encoding: 373 169 159
GlifName: copyright
Width: 572
VWidth: 0
Flags: W
LayerCount: 2
Fore
SplineSet
108 228 m 256
 108 129 188 48 286 48 c 256
 384 48 464 128 464 226 c 256
 464 325 384 406 286 406 c 256
 188 406 108 326 108 228 c 256
178 220 m 256
 178 297 223 352 289 352 c 256
 343 352 375 317 386 266 c 257
 334 266 l 257
 326 296 307 303 288 303 c 256
 257 303 229 276 229 221 c 256
 229 166 256 139 287 139 c 256
 307 139 324 147 334 170 c 257
 386 170 l 257
 372 127 339 89 291 89 c 256
 221 89 178 143 178 220 c 256
50 228 m 256
 50 358 156 464 286 464 c 256
 416 464 522 357 522 226 c 256
 522 96 416 -10 286 -10 c 256
 156 -10 50 97 50 228 c 256
EndSplineSet
PickledDataWithLists: "(dp0
Vpublic.postscript.hints\\u000d
p1
(dp2
VformatVersion\\u000d
p3
V1\\u000d
p4
sVhintSetList\\u000d
p5
(lp6
(dp7
Vstems\\u000d
p8
(lp9
Vhstem -10 58\\u000d
p10
aVhstem 89 50\\u000d
p11
aVhstem 303 49\\u000d
p12
aVhstem 406 58\\u000d
p13
aVvstem 50 58\\u000d
p14
aVvstem 178 51\\u000d
p15
aVvstem 464 58\\u000d
p16
asasVid\\u000d
p17
V6d643a5ccabc93f9df254774e0879150861a586537b20135079b17c0128dd01fdedbb1a082b28a4a086aaebbd1be1d15581537cb1651b7c24bd9a54909546722\\u000d
p18
ss."
EndChar

StartChar: currency
Encoding: 374 164 160
GlifName: currency
Width: 495
VWidth: 0
Flags: W
LayerCount: 2
Fore
SplineSet
134 316 m 256
 134 256 187 203 247 203 c 256
 307 203 360 256 360 316 c 256
 360 376 307 429 247 429 c 256
 187 429 134 376 134 316 c 256
144 163 m 257
 84 102 l 257
 34 154 l 257
 94 213 l 257
 68 255 63 285 63 315 c 256
 63 345 68 376 94 417 c 257
 34 477 l 257
 84 529 l 257
 144 468 l 257
 177 490 217 500 247 500 c 256
 277 500 318 490 351 468 c 257
 411 529 l 257
 461 477 l 257
 400 417 l 257
 427 376 432 345 432 315 c 256
 432 285 427 255 400 213 c 257
 461 154 l 257
 411 102 l 257
 351 163 l 257
 318 141 277 132 247 132 c 256
 217 132 177 141 144 163 c 257
EndSplineSet
PickledDataWithLists: "(dp0
Vpublic.postscript.hints\\u000d
p1
(dp2
VformatVersion\\u000d
p3
V1\\u000d
p4
sVhintSetList\\u000d
p5
(lp6
(dp7
Vstems\\u000d
p8
(lp9
Vhstem 132 71\\u000d
p10
aVhstem 429 71\\u000d
p11
aVvstem 63 71\\u000d
p12
aVvstem 360 72\\u000d
p13
asasVid\\u000d
p14
Ve044636f162b8410b623dfb4e7d3912e261432e8b4a1d6f7e34168e9bf3e15ad28f84b1a3aec93030f1583e4b8428eed859e4552257b494966baec67f5bff9c9\\u000d
p15
ss."
EndChar

StartChar: d
Encoding: 100 100 161
GlifName: d
Width: 491
VWidth: 0
Flags: W
LayerCount: 2
Fore
SplineSet
115 230 m 256
 115 123 156 55 245 55 c 256
 324 55 365 123 365 230 c 256
 365 321 330 405 245 405 c 256
 146 405 115 320 115 230 c 256
36 231 m 256
 36 345 92 471 226 471 c 256
 286 471 338 437 366 381 c 257
 366 700 l 257
 446 700 l 257
 446 0 l 257
 386 0 l 257
 366 72 l 257
 343 21 283 -10 225 -10 c 256
 92 -10 36 125 36 231 c 256
EndSplineSet
PickledDataWithLists: "(dp0
Vpublic.postscript.hints\\u000d
p1
(dp2
VformatVersion\\u000d
p3
V1\\u000d
p4
sVhintSetList\\u000d
p5
(lp6
(dp7
Vstems\\u000d
p8
(lp9
Vhstem -10 65\\u000d
p10
aVhstem 405 66\\u000d
p11
aVvstem 36 79\\u000d
p12
aVvstem 366 80\\u000d
p13
asasVid\\u000d
p14
Va26fa5e2d5624783a67ed4a72d90114f5b8e82b6bc488c1c1337d503bf17fa0e5179a9bb5b5574a84af038831904fe53d5296488c53d2d39594d274f02236b04\\u000d
p15
ss."
Substitution2: "smcpLowercasetoSmallCapitalslookup22 subtable" d.sc
Substitution2: "aaltAccessAllAlternateslookup0 subtable" d.sc
EndChar

StartChar: d.sc
Encoding: 375 -1 162
GlifName: d.sc
Width: 475
VWidth: 0
Flags: W
LayerCount: 2
Fore
SplineSet
196 395 m 258
 113 395 l 257
 113 65 l 257
 237 65 l 258
 327 65 363 150 363 230 c 256
 363 343 327 395 196 395 c 258
236 0 m 258
 33 0 l 257
 33 460 l 257
 236 460 l 258
 375 460 443 362 443 230 c 256
 443 96 376 0 236 0 c 258
EndSplineSet
PickledDataWithLists: "(dp0
Vpublic.postscript.hints\\u000d
p1
(dp2
VformatVersion\\u000d
p3
V1\\u000d
p4
sVhintSetList\\u000d
p5
(lp6
(dp7
Vstems\\u000d
p8
(lp9
Vhstem 0 65\\u000d
p10
aVhstem 395 65\\u000d
p11
aVvstem 33 80\\u000d
p12
aVvstem 363 80\\u000d
p13
asasVid\\u000d
p14
V5de37df7b5515413a242a253d341ed6d65202db344f45fa53cb2772d083212e9f99d35938be1f207df91ab59660bf37ac1053bf85121380c2c07fdeb35a44db7\\u000d
p15
ss."
EndChar

StartChar: dagger
Encoding: 376 8224 163
GlifName: dagger
Width: 495
VWidth: 0
Flags: W
LayerCount: 2
Fore
SplineSet
208 376 m 257
 35 376 l 257
 35 446 l 257
 208 446 l 257
 218 622 l 257
 277 622 l 257
 287 446 l 257
 460 446 l 257
 460 376 l 257
 287 376 l 257
 287 240 l 257
 277 -150 l 257
 218 -150 l 257
 208 240 l 257
 208 376 l 257
EndSplineSet
PickledDataWithLists: "(dp0
Vpublic.postscript.hints\\u000d
p1
(dp2
VformatVersion\\u000d
p3
V1\\u000d
p4
sVhintSetList\\u000d
p5
(lp6
(dp7
Vstems\\u000d
p8
(lp9
Vhstem 376 70\\u000d
p10
aVvstem 208 79\\u000d
p11
asasVid\\u000d
p12
Vw495m208,376l35,376l35,446l208,446l218,622l277,622l287,446l460,446l460,376l287,376l287,240l277,-150l218,-150l208,240\\u000d
p13
ss."
EndChar

StartChar: daggerdbl
Encoding: 377 8225 164
GlifName: daggerdbl
Width: 495
VWidth: 0
Flags: W
LayerCount: 2
Fore
SplineSet
208 11 m 257
 35 11 l 257
 35 80 l 257
 208 80 l 257
 218 240 l 257
 208 396 l 257
 35 396 l 257
 35 465 l 257
 208 465 l 257
 218 628 l 257
 277 628 l 257
 287 465 l 257
 459 465 l 257
 459 396 l 257
 287 396 l 257
 277 240 l 257
 287 80 l 257
 460 80 l 257
 460 11 l 257
 287 11 l 257
 277 -150 l 257
 218 -150 l 257
 208 11 l 257
EndSplineSet
PickledDataWithLists: "(dp0
Vpublic.postscript.hints\\u000d
p1
(dp2
VformatVersion\\u000d
p3
V1\\u000d
p4
sVhintSetList\\u000d
p5
(lp6
(dp7
Vstems\\u000d
p8
(lp9
Vhstem 11 69\\u000d
p10
aVhstem 396 69\\u000d
p11
asasVid\\u000d
p12
Vab768ac7182d1afee3275f00465177ce946777d429b605ade876e7519faf9eeff5c7247982cb306b9a18fcb0b8f9d139dae08264c5bf0996416c5e832542ad79\\u000d
p13
ss."
EndChar

StartChar: dcaron
Encoding: 378 271 165
GlifName: dcaron
Width: 491
VWidth: 0
Flags: W
LayerCount: 2
Fore
SplineSet
115 230 m 256
 115 123 156 55 245 55 c 256
 324 55 365 123 365 230 c 256
 365 321 330 405 245 405 c 256
 135 405 115 305 115 230 c 256
35 230 m 257
 36 231 l 257
 36 345 92 471 226 471 c 256
 286 471 338 437 366 381 c 257
 366 700 l 257
 446 700 l 257
 446 0 l 257
 366 0 l 257
 366 72 l 257
 343 21 283 -10 225 -10 c 256
 96 -10 35 100 35 230 c 257
616 620 m 257
 570 490 l 257
 536 490 l 257
 558 620 l 257
 536 620 l 257
 536 700 l 257
 616 700 l 257
 616 620 l 257
EndSplineSet
PickledDataWithLists: "(dp0
Vpublic.postscript.hints\\u000d
p1
(dp2
VformatVersion\\u000d
p3
V1\\u000d
p4
sVhintSetList\\u000d
p5
(lp6
(dp7
Vstems\\u000d
p8
(lp9
Vhstem -10 65\\u000d
p10
aVhstem 405 66\\u000d
p11
aVhstem 620 80\\u000d
p12
aVvstem 35 80\\u000d
p13
aVvstem 366 80\\u000d
p14
aVvstem 536 80\\u000d
p15
asasVid\\u000d
p16
V4b699cc5bfa0440e5866d0ec0123e8897005e8ee60d20f5a5a0968048d035525a601274d87b2853aeebafebd4ef6c170f9da64662bc0e781182fb647ccc74f78\\u000d
p17
ss."
EndChar

StartChar: dcroat
Encoding: 379 273 166
GlifName: dcroat
Width: 491
VWidth: 0
Flags: W
LayerCount: 2
Fore
SplineSet
115 230 m 256
 115 132 166 70 245 70 c 256
 314 70 365 132 365 230 c 256
 365 304 330 390 245 390 c 256
 159 390 115 309 115 230 c 256
35 230 m 257
 36 231 l 257
 36 345 102 471 226 471 c 256
 286 471 338 437 366 381 c 257
 366 530 l 257
 250 530 l 257
 250 610 l 257
 366 610 l 257
 366 700 l 257
 446 700 l 257
NamedP: ".hr01"
 446 610 l 257
 490 610 l 257
NamedP: ".hr02"
 490 530 l 257
 446 530 l 257
 446 0 l 257
 366 0 l 257
 366 72 l 257
 343 21 283 -10 225 -10 c 256
 95 -10 35 111 35 230 c 257
EndSplineSet
PickledDataWithLists: "(dp0
Vpublic.postscript.hints\\u000d
p1
(dp2
VformatVersion\\u000d
p3
V1\\u000d
p4
sVhintSetList\\u000d
p5
(lp6
(dp7
Vstems\\u000d
p8
(lp9
Vvstem 35 80\\u000d
p10
aVhstem -10 80\\u000d
p11
aVhstem 390 81\\u000d
p12
aVvstem 366 80\\u000d
p13
aVhstem 530 80\\u000d
p14
asa(dp15
VpointTag\\u000d
p16
V.hr01\\u000d
p17
sg8
(lp18
Vhstem 530 170\\u000d
p19
aVvstem 366 80\\u000d
p20
aVhstem -10 80\\u000d
p21
aVhstem 390 81\\u000d
p22
aVvstem 35 80\\u000d
p23
asa(dp24
g16
V.hr02\\u000d
p25
sg8
(lp26
Vhstem 530 80\\u000d
p27
aVvstem 366 80\\u000d
p28
aVhstem -10 80\\u000d
p29
aVvstem 35 80\\u000d
p30
aVhstem 390 81\\u000d
p31
asasVid\\u000d
p32
Veccc4758e54b9e68af6fb1dc64d93acf58306be3b4a88814aa6e7480fdccef49dd78b9f3469ed18269ef4d890b14d94a4c0e4a7e6ca74ce2864636c22aef933d\\u000d
p33
ss."
EndChar

StartChar: degree
Encoding: 380 176 167
GlifName: degree
Width: 356
VWidth: 0
Flags: W
LayerCount: 2
Fore
SplineSet
58 525 m 256
 58 592 111 645 178 645 c 256
 245 645 298 591 298 525 c 256
 298 457 244 404 178 404 c 256
 112 404 58 457 58 525 c 256
113 525 m 256
 113 484 142 459 178 459 c 256
 213 459 243 484 243 525 c 256
 243 565 214 590 178 590 c 256
 142 590 113 565 113 525 c 256
EndSplineSet
PickledDataWithLists: "(dp0
Vpublic.postscript.hints\\u000d
p1
(dp2
VformatVersion\\u000d
p3
V1\\u000d
p4
sVhintSetList\\u000d
p5
(lp6
(dp7
Vstems\\u000d
p8
(lp9
Vhstem 404 55\\u000d
p10
aVhstem 590 55\\u000d
p11
aVvstem 58 55\\u000d
p12
aVvstem 243 55\\u000d
p13
asasVid\\u000d
p14
V6e869ef2efae6be4c7eeffd4bd9b2ca7c02447d2552347a6161a253da39d040874093db4e06fafa3c32aef800bd52beefabeebaa935f3adab13ee22dbc0876e2\\u000d
p15
ss."
EndChar

StartChar: dieresis
Encoding: 381 168 168
GlifName: dieresis
Width: 300
VWidth: 0
Flags: W
LayerCount: 2
Fore
SplineSet
80 520 m 257
 60 520 l 257
 60 600 l 257
 80 600 l 257
 80 520 l 257
240 520 m 257
 220 520 l 257
 220 600 l 257
 240 600 l 257
 240 520 l 257
EndSplineSet
PickledDataWithLists: "(dp0
Vpublic.postscript.hints\\u000d
p1
(dp2
VformatVersion\\u000d
p3
V1\\u000d
p4
sVhintSetList\\u000d
p5
(lp6
(dp7
Vstems\\u000d
p8
(lp9
Vhstem 520 80\\u000d
p10
asasVid\\u000d
p11
Vw300m80,520l60,520l60,600l80,600m240,520l220,520l220,600l240,600\\u000d
p12
ss."
EndChar

StartChar: divide
Encoding: 382 247 169
GlifName: divide
Width: 520
VWidth: 0
Flags: W
LayerCount: 2
Fore
SplineSet
471 282 m 257
 49 282 l 257
 49 347 l 257
 471 347 l 257
 471 282 l 257
300 139 m 257
 220 139 l 257
 220 219 l 257
 300 219 l 257
 300 139 l 257
300 409 m 257
 220 409 l 257
 220 489 l 257
 300 489 l 257
 300 409 l 257
EndSplineSet
PickledDataWithLists: "(dp0
Vpublic.postscript.hints\\u000d
p1
(dp2
VformatVersion\\u000d
p3
V1\\u000d
p4
sVhintSetList\\u000d
p5
(lp6
(dp7
Vstems\\u000d
p8
(lp9
Vhstem 139 80\\u000d
p10
aVhstem 282 65\\u000d
p11
aVhstem 409 80\\u000d
p12
aVvstem 220 80\\u000d
p13
asasVid\\u000d
p14
Vw520m471,282l49,282l49,347l471,347m300,139l220,139l220,219l300,219m300,409l220,409l220,489l300,489\\u000d
p15
ss."
EndChar

StartChar: dollar
Encoding: 36 36 170
GlifName: dollar
Width: 582
VWidth: 0
Flags: W
LayerCount: 2
Fore
SplineSet
374 287 m 258
 345 295 l 257
 345 81 l 257
 408 88 462 124 462 191 c 256
 462 240 417 275 374 287 c 258
233 421 m 258
 265 412 l 257
 265 620 l 257
 201 615 161 584 161 527 c 256
 161 481 183 435 233 421 c 258
265 81 m 257
 265 318 l 257
 228 328 l 258
 123 358 71 420 71 516 c 256
 71 624 149 700 265 707 c 257
 265 780 l 257
 345 780 l 257
 345 708 l 257
 460 707 551 637 551 522 c 257
 461 522 l 257
 461 587 418 620 345 621 c 257
 345 389 l 257
 383 378 l 258
 479 350 552 293 552 191 c 256
 552 67 466 -3 345 -10 c 257
 345 -80 l 257
 265 -80 l 257
 265 -11 l 257
 139 -4 60 69 60 194 c 257
 150 194 l 257
 150 118 205 86 265 81 c 257
EndSplineSet
PickledDataWithLists: "(dp0
Vpublic.postscript.hints\\u000d
p1
(dp2
VformatVersion\\u000d
p3
V1\\u000d
p4
sVhintSetList\\u000d
p5
(lp6
(dp7
Vstems\\u000d
p8
(lp9
Vvstem 265 80\\u000d
p10
aVhstem -80 161\\u000d
p11
aVvstem 462 90\\u000d
p12
aVvstem 71 90\\u000d
p13
aVhstem 621 87\\u000d
p14
asa(dp15
VpointTag\\u000d
p16
V.hr01\\u000d
p17
sg8
(lp18
Vhstem -80 161\\u000d
p19
aVvstem 265 80\\u000d
p20
aVvstem 60 90\\u000d
p21
aVhstem 621 87\\u000d
p22
aVvstem 462 90\\u000d
p23
asasVid\\u000d
p24
V376a37f4a99faf8442b71cbff66a7484350dd818871bfd83779c1135059fa542014412fe614272b6d8447d9568f137a9d65fb426f7550c3e5af50165d84789aa\\u000d
p25
ss."
EndChar

StartChar: dotaccent
Encoding: 383 729 171
GlifName: dotaccent
Width: 180
VWidth: 0
Flags: W
LayerCount: 2
Fore
SplineSet
100 520 m 257
 80 520 l 257
 80 600 l 257
 100 600 l 257
 100 520 l 257
EndSplineSet
PickledDataWithLists: "(dp0
Vpublic.postscript.hints\\u000d
p1
(dp2
VformatVersion\\u000d
p3
V1\\u000d
p4
sVhintSetList\\u000d
p5
(lp6
(dp7
Vstems\\u000d
p8
(lp9
Vhstem 520 80\\u000d
p10
aVvstem 80 20\\u000d
p11
asasVid\\u000d
p12
Vw180m100,520l80,520l80,600l100,600\\u000d
p13
ss."
EndChar

StartChar: dotlessi
Encoding: 384 305 172
GlifName: dotlessi
Width: 220
VWidth: 0
Flags: W
AnchorPoint: "top" 110 520 basechar 0
LayerCount: 2
Fore
SplineSet
120 0 m 257
 100 0 l 257
 100 460 l 257
 120 460 l 257
 120 0 l 257
EndSplineSet
PickledDataWithLists: "(dp0
Vpublic.postscript.hints\\u000d
p1
(dp2
VformatVersion\\u000d
p3
V1\\u000d
p4
sVhintSetList\\u000d
p5
(lp6
(dp7
Vstems\\u000d
p8
(lp9
Vvstem 100 20\\u000d
p10
asasVid\\u000d
p11
Vw220m120,0l100,0l100,460l120,460\\u000d
p12
ss."
EndChar

StartChar: e
Encoding: 101 101 173
GlifName: e
Width: 518
VWidth: 0
Flags: W
LayerCount: 2
Fore
SplineSet
139 278 m 257
 379 278 l 257
 379 278 371 402 259 402 c 256
 147 402 139 278 139 278 c 257
50 240 m 256
 50 360 119 470 259 470 c 256
 399 470 468 360 468 240 c 258
 468 210 l 257
 134 210 l 257
 134 140 179 58 259 58 c 256
 329 58 365 98 375 142 c 257
 458 142 l 257
 443 73 409 -10 259 -10 c 256
 109 -10 50 120 50 240 c 256
EndSplineSet
PickledDataWithLists: "(dp0
Vpublic.postscript.hints\\u000d
p1
(dp2
VformatVersion\\u000d
p3
V1\\u000d
p4
sVhintSetList\\u000d
p5
(lp6
(dp7
Vstems\\u000d
p8
(lp9
Vhstem -10 68\\u000d
p10
aVhstem 210 68\\u000d
p11
aVhstem 402 68\\u000d
p12
aVvstem 50 84\\u000d
p13
aVvstem 379 89\\u000d
p14
asasVid\\u000d
p15
Veb105b6c5966d3175e4ac8cfd4e9f4078de26bc4d168f24127650f20d1d3e450c0ea3a3c495ae1793996b2f57f211c406639698b2ef2cc30795ce63f823ffcf9\\u000d
p16
ss."
Substitution2: "smcpLowercasetoSmallCapitalslookup22 subtable" e.sc
Substitution2: "aaltAccessAllAlternateslookup0 subtable" e.sc
EndChar

StartChar: e.sc
Encoding: 385 -1 174
GlifName: e.sc
Width: 355
VWidth: 0
Flags: W
LayerCount: 2
Fore
SplineSet
323 0 m 257
 33 0 l 257
 33 460 l 257
 323 460 l 257
 323 395 l 257
 113 395 l 257
 113 267 l 257
 297 267 l 257
 297 202 l 257
 113 202 l 257
 113 65 l 257
 323 65 l 257
 323 0 l 257
EndSplineSet
PickledDataWithLists: "(dp0
Vpublic.postscript.hints\\u000d
p1
(dp2
VformatVersion\\u000d
p3
V1\\u000d
p4
sVhintSetList\\u000d
p5
(lp6
(dp7
Vstems\\u000d
p8
(lp9
Vhstem 0 65\\u000d
p10
aVhstem 202 65\\u000d
p11
aVhstem 395 65\\u000d
p12
aVvstem 33 80\\u000d
p13
asasVid\\u000d
p14
Vw355m323,0l33,0l33,460l323,460l323,395l113,395l113,267l297,267l297,202l113,202l113,65l323,65\\u000d
p15
ss."
EndChar

StartChar: ebreve
Encoding: 387 277 176
GlifName: ebreve
Width: 518
VWidth: 0
Flags: W
LayerCount: 2
Fore
SplineSet
139 278 m 257
 379 278 l 257
 379 278 371 402 259 402 c 256
 147 402 139 278 139 278 c 257
50 240 m 256
 50 360 119 470 259 470 c 256
 399 470 468 360 468 240 c 258
 468 210 l 257
 134 210 l 257
 134 140 179 58 259 58 c 256
 329 58 365 98 375 142 c 257
 458 142 l 257
 443 73 409 -10 259 -10 c 256
 109 -10 50 120 50 240 c 256
105 660 m 257
 185 660 l 257
 185 600 225 580 260 580 c 256
 295 580 335 600 335 660 c 257
 415 660 l 257
 415 560 340 520 260 520 c 256
 180 520 105 560 105 660 c 257
EndSplineSet
PickledDataWithLists: "(dp0
Vpublic.postscript.hints\\u000d
p1
(dp2
VformatVersion\\u000d
p3
V1\\u000d
p4
sVhintSetList\\u000d
p5
(lp6
(dp7
Vstems\\u000d
p8
(lp9
Vhstem 210 68\\u000d
p10
aVvstem 379 89\\u000d
p11
aVhstem 402 68\\u000d
p12
aVvstem 50 84\\u000d
p13
aVhstem -10 68\\u000d
p14
aVhstem 520 60\\u000d
p15
asa(dp16
VpointTag\\u000d
p17
V.hr01\\u000d
p18
sg8
(lp19
Vvstem 105 80\\u000d
p20
aVhstem 520 60\\u000d
p21
aVvstem 335 80\\u000d
p22
aVhstem -10 68\\u000d
p23
aVhstem 210 68\\u000d
p24
aVhstem 402 68\\u000d
p25
asasVid\\u000d
p26
V5eb27bac5a795b067534b265e0d173f38159799a5500631cbdc72a3d0019e2a4369646cf13e1d79ba1fe9e8c6a3c954d0a6ed83e873d3b1bcb6f0deee66d6ee3\\u000d
p27
ss."
EndChar

StartChar: ecaron
Encoding: 388 283 177
GlifName: ecaron
Width: 518
VWidth: 0
Flags: W
LayerCount: 2
Fore
SplineSet
139 278 m 257
 379 278 l 257
 379 278 371 402 259 402 c 256
 147 402 139 278 139 278 c 257
50 240 m 256
 50 360 119 470 259 470 c 256
 399 470 468 360 468 240 c 258
 468 210 l 257
 134 210 l 257
 134 140 179 58 259 58 c 256
 329 58 365 98 375 142 c 257
 458 142 l 257
 443 73 409 -10 259 -10 c 256
 109 -10 50 120 50 240 c 256
300 520 m 257
 220 520 l 257
 120 680 l 257
 184 680 l 257
 260 595 l 257
 336 680 l 257
 400 680 l 257
 300 520 l 257
EndSplineSet
PickledDataWithLists: "(dp0
Vpublic.postscript.hints\\u000d
p1
(dp2
VformatVersion\\u000d
p3
V1\\u000d
p4
sVhintSetList\\u000d
p5
(lp6
(dp7
Vstems\\u000d
p8
(lp9
Vhstem -10 68\\u000d
p10
aVhstem 210 68\\u000d
p11
aVhstem 402 68\\u000d
p12
aVhstem 520 160\\u000d
p13
aVvstem 50 84\\u000d
p14
aVvstem 379 89\\u000d
p15
asasVid\\u000d
p16
V54f097b99be1ac8ffad5392f9674d57e47cf54df9e4247f3a885edf5a58906eab39fe2bb165205163f2f4c477ac5cef98383b55688e33c98bc0acdd3540ce249\\u000d
p17
ss."
EndChar

StartChar: edotaccent
Encoding: 391 279 180
GlifName: edotaccent
Width: 518
VWidth: 0
Flags: W
LayerCount: 2
Fore
SplineSet
139 278 m 257
 379 278 l 257
 379 278 371 402 259 402 c 256
 147 402 139 278 139 278 c 257
50 240 m 256
 50 360 119 470 259 470 c 256
 399 470 468 360 468 240 c 258
 468 210 l 257
 134 210 l 257
 134 140 179 58 259 58 c 256
 329 58 365 98 375 142 c 257
 458 142 l 257
 443 73 409 -10 259 -10 c 256
 109 -10 50 120 50 240 c 256
270 640 m 257
 270 560 l 257
 250 560 l 257
 250 640 l 257
 270 640 l 257
EndSplineSet
PickledDataWithLists: "(dp0
Vpublic.postscript.hints\\u000d
p1
(dp2
VformatVersion\\u000d
p3
V1\\u000d
p4
sVhintSetList\\u000d
p5
(lp6
(dp7
Vstems\\u000d
p8
(lp9
Vhstem -10 68\\u000d
p10
aVhstem 210 68\\u000d
p11
aVhstem 402 68\\u000d
p12
aVhstem 560 80\\u000d
p13
aVvstem 50 84\\u000d
p14
aVvstem 250 20\\u000d
p15
aVvstem 379 89\\u000d
p16
asasVid\\u000d
p17
V9865c4417a30905e2db0e7b9bd0b90481fd5aaee5f4daf063b889ab38143356a694d11aa27974ecd3b578a62c876f5e14500854ebe7d2175a99a5f894e4b5e14\\u000d
p18
ss."
EndChar

StartChar: eight
Encoding: 56 56 182
GlifName: eight
Width: 553
VWidth: 0
Flags: W
LayerCount: 2
Fore
SplineSet
129 205 m 256
 129 115 175 70 265 70 c 256
 355 70 404 115 404 205 c 256
 404 296 352 338 265 339 c 257
 187 339 129 280 129 205 c 256
140 520 m 256
 140 460 175 403 265 403 c 256
 355 403 390 460 390 520 c 256
 390 580 355 630 265 630 c 256
 175 630 140 580 140 520 c 256
40 200 m 256
 40 290 89 341 140 370 c 257
 114 380 50 407 50 527 c 256
 50 630 136 710 265 710 c 256
 411 710 480 630 480 527 c 256
 480 407 423 386 367 370 c 257
 436 342 493 290 493 200 c 256
 493 70 415 -10 265 -10 c 256
 115 -10 40 70 40 200 c 256
EndSplineSet
PickledDataWithLists: "(dp0
Vpublic.postscript.hints\\u000d
p1
(dp2
VformatVersion\\u000d
p3
V1\\u000d
p4
sVhintSetList\\u000d
p5
(lp6
(dp7
Vstems\\u000d
p8
(lp9
Vvstem 40 89\\u000d
p10
aVhstem -10 80\\u000d
p11
aVvstem 404 89\\u000d
p12
aVhstem 339 64\\u000d
p13
aVhstem 630 80\\u000d
p14
asa(dp15
VpointTag\\u000d
p16
V.hr01\\u000d
p17
sg8
(lp18
Vvstem 50 90\\u000d
p19
aVhstem 339 64\\u000d
p20
aVvstem 390 90\\u000d
p21
aVhstem 630 80\\u000d
p22
aVhstem -10 80\\u000d
p23
asa(dp24
g16
V.hr02\\u000d
p25
sg8
(lp26
Vvstem 40 89\\u000d
p27
aVhstem -10 80\\u000d
p28
aVhstem 339 64\\u000d
p29
aVhstem 630 80\\u000d
p30
aVvstem 390 90\\u000d
p31
asa(dp32
g16
V.hr03\\u000d
p33
sg8
(lp34
Vvstem 50 90\\u000d
p35
aVhstem 630 80\\u000d
p36
aVvstem 390 90\\u000d
p37
aVhstem -10 80\\u000d
p38
aVhstem 339 64\\u000d
p39
asa(dp40
g16
V.hr04\\u000d
p41
sg8
(lp42
Vvstem 404 89\\u000d
p43
aVhstem -10 80\\u000d
p44
aVvstem 40 89\\u000d
p45
aVhstem 339 64\\u000d
p46
aVhstem 630 80\\u000d
p47
asasVid\\u000d
p48
V269615ea78d7876241bbdc47b64c0acd75ec97dbc6c171b8bbe39ccec15e7bec2f393d5509f4c5a72d8446e51382576981319e08bdff4f61c6cb853583097e28\\u000d
p49
ss."
Substitution2: "Single Substitution lookup 21 subtable" eight.dnom
Substitution2: "SingleSubstitutionlookup26 subtable" eight.numr
Substitution2: "dnomDenominatorslookup7 subtable" eight.dnom
Substitution2: "numrNumeratorslookup6 subtable" eight.numr
Substitution2: "subsSubscriptlookup5 subtable" eight.subscript
Substitution2: "supsSuperscriptlookup4 subtable" eight.superior
Substitution2: "sinfScientificInferiorslookup3 subtable" eight.inferior
AlternateSubs2: "aaltAccessAllAlternateslookup1 subtable" eight.inferior eight.superior eight.subscript eight.numr eight.dnom
EndChar

StartChar: eight.dnom
Encoding: 393 -1 183
GlifName: eight.dnom
Width: 390
VWidth: 0
Flags: W
LayerCount: 2
Fore
SplineSet
103 115 m 256
 103 77 127 41 188 41 c 256
 249 41 273 77 273 115 c 256
 273 165 234 184 188 184 c 256
 127 184 103 153 103 115 c 256
94 -92 m 256
 94 -149 126 -177 188 -177 c 256
 250 -177 284 -149 284 -92 c 256
 284 -35 248 -9 188 -8 c 257
 134 -8 94 -45 94 -92 c 256
27 -97 m 256
 27 -37 63 -3 101 16 c 257
 82 23 35 40 35 121 c 256
 35 190 96 244 188 244 c 256
 292 244 341 190 341 121 c 256
 341 40 298 27 257 16 c 257
 308 -3 351 -37 351 -97 c 256
 351 -183 295 -237 188 -237 c 256
 98 -237 27 -199 27 -97 c 256
EndSplineSet
PickledDataWithLists: "(dp0
Vpublic.postscript.hints\\u000d
p1
(dp2
VformatVersion\\u000d
p3
V1\\u000d
p4
sVhintSetList\\u000d
p5
(lp6
(dp7
Vstems\\u000d
p8
(lp9
Vvstem 35 68\\u000d
p10
aVhstem -8 49\\u000d
p11
aVvstem 273 68\\u000d
p12
aVhstem 184 60\\u000d
p13
aVhstem -237 60\\u000d
p14
asa(dp15
VpointTag\\u000d
p16
V.hr01\\u000d
p17
sg8
(lp18
Vvstem 27 67\\u000d
p19
aVhstem -237 60\\u000d
p20
aVvstem 284 67\\u000d
p21
aVhstem -8 49\\u000d
p22
aVhstem 184 60\\u000d
p23
asa(dp24
g16
V.hr02\\u000d
p25
sg8
(lp26
Vvstem 35 68\\u000d
p27
aVhstem 184 60\\u000d
p28
aVvstem 273 68\\u000d
p29
aVhstem -237 60\\u000d
p30
aVhstem -8 49\\u000d
p31
asa(dp32
g16
V.hr03\\u000d
p33
sg8
(lp34
Vvstem 284 67\\u000d
p35
aVhstem -237 60\\u000d
p36
aVvstem 27 67\\u000d
p37
aVhstem -8 49\\u000d
p38
aVhstem 184 60\\u000d
p39
asasVid\\u000d
p40
V13e8ea587a07ad55e5be4e7de05738d1d102b8465a09c57c22ffb7fb53f85cd24fc05ea69590957c0e9dade2fad863b70b62162666cf59e6efa000d54f143c51\\u000d
p41
ss."
EndChar

StartChar: eight.inferior
Encoding: 394 -1 184
GlifName: eight.inferior
Width: 390
VWidth: 0
Flags: W
LayerCount: 2
Fore
SplineSet
103 -115 m 256
 103 -153 127 -189 188 -189 c 256
 249 -189 273 -153 273 -115 c 256
 273 -65 234 -46 188 -46 c 256
 127 -46 103 -77 103 -115 c 256
94 -322 m 256
 94 -379 126 -407 188 -407 c 256
 250 -407 284 -379 284 -322 c 256
 284 -265 248 -239 188 -238 c 257
 134 -238 94 -275 94 -322 c 256
27 -327 m 256
 27 -267 63 -233 101 -214 c 257
 82 -207 35 -190 35 -109 c 256
 35 -40 96 14 188 14 c 256
 292 14 341 -40 341 -109 c 256
 341 -190 298 -203 257 -214 c 257
 308 -233 351 -267 351 -327 c 256
 351 -413 295 -467 188 -467 c 256
 98 -467 27 -429 27 -327 c 256
EndSplineSet
PickledDataWithLists: "(dp0
Vpublic.postscript.hints\\u000d
p1
(dp2
VformatVersion\\u000d
p3
V1\\u000d
p4
sVhintSetList\\u000d
p5
(lp6
(dp7
Vstems\\u000d
p8
(lp9
Vvstem 35 68\\u000d
p10
aVhstem -238 49\\u000d
p11
aVvstem 273 68\\u000d
p12
aVhstem -46 60\\u000d
p13
aVhstem -467 60\\u000d
p14
asa(dp15
VpointTag\\u000d
p16
V.hr01\\u000d
p17
sg8
(lp18
Vvstem 27 67\\u000d
p19
aVhstem -467 60\\u000d
p20
aVvstem 284 67\\u000d
p21
aVhstem -238 49\\u000d
p22
aVhstem -46 60\\u000d
p23
asa(dp24
g16
V.hr02\\u000d
p25
sg8
(lp26
Vvstem 35 68\\u000d
p27
aVhstem -46 60\\u000d
p28
aVvstem 273 68\\u000d
p29
aVhstem -467 60\\u000d
p30
aVhstem -238 49\\u000d
p31
asa(dp32
g16
V.hr03\\u000d
p33
sg8
(lp34
Vvstem 284 67\\u000d
p35
aVhstem -467 60\\u000d
p36
aVvstem 27 67\\u000d
p37
aVhstem -238 49\\u000d
p38
aVhstem -46 60\\u000d
p39
asasVid\\u000d
p40
V539bbf6ef64d1272df956854ccb1b19c8219cde98616df41aa09dd9d68e019727ab175d90380483ef6cab4e48b0e16db1e94e2d08327029a183c031bcc7b8756\\u000d
p41
ss."
EndChar

StartChar: eight.numr
Encoding: 395 -1 185
GlifName: eight.numr
Width: 390
VWidth: 0
Flags: W
LayerCount: 2
Fore
SplineSet
94 368 m 256
 94 311 126 283 188 283 c 256
 250 283 284 311 284 368 c 256
 284 425 248 451 188 452 c 257
 134 452 94 415 94 368 c 256
103 575 m 256
 103 537 127 501 188 501 c 256
 249 501 273 537 273 575 c 256
 273 625 234 644 188 644 c 256
 127 644 103 613 103 575 c 256
27 363 m 256
 27 423 63 457 101 476 c 257
 82 483 35 500 35 581 c 256
 35 650 96 704 188 704 c 256
 292 704 341 650 341 581 c 256
 341 500 298 487 257 476 c 257
 308 457 351 423 351 363 c 256
 351 277 295 223 188 223 c 256
 98 223 27 261 27 363 c 256
EndSplineSet
PickledDataWithLists: "(dp0
Vpublic.postscript.hints\\u000d
p1
(dp2
VformatVersion\\u000d
p3
V1\\u000d
p4
sVhintSetList\\u000d
p5
(lp6
(dp7
Vstems\\u000d
p8
(lp9
Vvstem 27 67\\u000d
p10
aVhstem 223 60\\u000d
p11
aVvstem 284 67\\u000d
p12
aVhstem 452 49\\u000d
p13
aVhstem 644 60\\u000d
p14
asa(dp15
VpointTag\\u000d
p16
V.hr01\\u000d
p17
sg8
(lp18
Vvstem 35 68\\u000d
p19
aVhstem 452 49\\u000d
p20
aVvstem 273 68\\u000d
p21
aVhstem 644 60\\u000d
p22
aVhstem 223 60\\u000d
p23
asa(dp24
g16
V.hr02\\u000d
p25
sg8
(lp26
Vvstem 27 67\\u000d
p27
aVhstem 223 60\\u000d
p28
aVhstem 452 49\\u000d
p29
aVhstem 644 60\\u000d
p30
aVvstem 273 68\\u000d
p31
asa(dp32
g16
V.hr03\\u000d
p33
sg8
(lp34
Vvstem 35 68\\u000d
p35
aVhstem 644 60\\u000d
p36
aVvstem 273 68\\u000d
p37
aVhstem 223 60\\u000d
p38
aVhstem 452 49\\u000d
p39
asa(dp40
g16
V.hr04\\u000d
p41
sg8
(lp42
Vvstem 284 67\\u000d
p43
aVhstem 223 60\\u000d
p44
aVvstem 27 67\\u000d
p45
aVhstem 452 49\\u000d
p46
aVhstem 644 60\\u000d
p47
asasVid\\u000d
p48
V63c4029804b5417b9c4edf0b050b097e7ffd299f11e46122c299029d951d6290150f6457106b7d8e0f3aa7e8c3d9e3562e43419e68bdc4ba3f7f2ca571660c63\\u000d
p49
ss."
EndChar

StartChar: eight.subscript
Encoding: 396 -1 186
GlifName: eight.subscript
Width: 390
VWidth: 0
Flags: W
LayerCount: 2
Fore
SplineSet
103 23 m 256
 103 -15 127 -51 188 -51 c 256
 249 -51 273 -15 273 23 c 256
 273 73 234 92 188 92 c 256
 127 92 103 61 103 23 c 256
94 -184 m 256
 94 -241 126 -269 188 -269 c 256
 250 -269 284 -241 284 -184 c 256
 284 -127 248 -101 188 -100 c 257
 134 -100 94 -137 94 -184 c 256
27 -189 m 256
 27 -129 63 -95 101 -76 c 257
 82 -69 35 -52 35 29 c 256
 35 98 96 152 188 152 c 256
 292 152 341 98 341 29 c 256
 341 -52 298 -65 257 -76 c 257
 308 -95 351 -129 351 -189 c 256
 351 -275 295 -329 188 -329 c 256
 98 -329 27 -291 27 -189 c 256
EndSplineSet
PickledDataWithLists: "(dp0
Vpublic.postscript.hints\\u000d
p1
(dp2
VformatVersion\\u000d
p3
V1\\u000d
p4
sVhintSetList\\u000d
p5
(lp6
(dp7
Vstems\\u000d
p8
(lp9
Vvstem 35 68\\u000d
p10
aVhstem -100 49\\u000d
p11
aVvstem 273 68\\u000d
p12
aVhstem 92 60\\u000d
p13
aVhstem -329 60\\u000d
p14
asa(dp15
VpointTag\\u000d
p16
V.hr01\\u000d
p17
sg8
(lp18
Vvstem 27 67\\u000d
p19
aVhstem -329 60\\u000d
p20
aVvstem 284 67\\u000d
p21
aVhstem -100 49\\u000d
p22
aVhstem 92 60\\u000d
p23
asa(dp24
g16
V.hr02\\u000d
p25
sg8
(lp26
Vvstem 35 68\\u000d
p27
aVhstem 92 60\\u000d
p28
aVvstem 273 68\\u000d
p29
aVhstem -329 60\\u000d
p30
aVhstem -100 49\\u000d
p31
asa(dp32
g16
V.hr03\\u000d
p33
sg8
(lp34
Vvstem 284 67\\u000d
p35
aVhstem -329 60\\u000d
p36
aVvstem 27 67\\u000d
p37
aVhstem -100 49\\u000d
p38
aVhstem 92 60\\u000d
p39
asasVid\\u000d
p40
Vb27b0af27d6850766768a0625225a56d2e4fbdac9d22950ecc39e18ce1ff7180bcbea8c3f48854a07a0ce9ad6fe98a95095d4b7c63c06c0ced88893827aa3d9f\\u000d
p41
ss."
EndChar

StartChar: eight.superior
Encoding: 397 -1 187
GlifName: eight.superior
Width: 390
VWidth: 0
Flags: W
LayerCount: 2
Fore
SplineSet
94 552 m 256
 94 495 126 467 188 467 c 256
 250 467 284 495 284 552 c 256
 284 609 248 635 188 636 c 257
 134 636 94 599 94 552 c 256
103 759 m 256
 103 721 127 685 188 685 c 256
 249 685 273 721 273 759 c 256
 273 809 234 828 188 828 c 256
 127 828 103 797 103 759 c 256
27 547 m 256
 27 607 63 641 101 660 c 257
 82 667 35 684 35 765 c 256
 35 834 96 888 188 888 c 256
 292 888 341 834 341 765 c 256
 341 684 298 671 257 660 c 257
 308 641 351 607 351 547 c 256
 351 461 295 407 188 407 c 256
 98 407 27 445 27 547 c 256
EndSplineSet
PickledDataWithLists: "(dp0
Vpublic.postscript.hints\\u000d
p1
(dp2
VformatVersion\\u000d
p3
V1\\u000d
p4
sVhintSetList\\u000d
p5
(lp6
(dp7
Vstems\\u000d
p8
(lp9
Vvstem 27 67\\u000d
p10
aVhstem 407 60\\u000d
p11
aVvstem 284 67\\u000d
p12
aVhstem 636 49\\u000d
p13
aVhstem 828 60\\u000d
p14
asa(dp15
VpointTag\\u000d
p16
V.hr01\\u000d
p17
sg8
(lp18
Vvstem 35 68\\u000d
p19
aVhstem 636 49\\u000d
p20
aVvstem 273 68\\u000d
p21
aVhstem 828 60\\u000d
p22
aVhstem 407 60\\u000d
p23
asa(dp24
g16
V.hr02\\u000d
p25
sg8
(lp26
Vvstem 27 67\\u000d
p27
aVhstem 407 60\\u000d
p28
aVhstem 636 49\\u000d
p29
aVhstem 828 60\\u000d
p30
aVvstem 273 68\\u000d
p31
asa(dp32
g16
V.hr03\\u000d
p33
sg8
(lp34
Vvstem 35 68\\u000d
p35
aVhstem 828 60\\u000d
p36
aVvstem 273 68\\u000d
p37
aVhstem 407 60\\u000d
p38
aVhstem 636 49\\u000d
p39
asa(dp40
g16
V.hr04\\u000d
p41
sg8
(lp42
Vvstem 284 67\\u000d
p43
aVhstem 407 60\\u000d
p44
aVvstem 27 67\\u000d
p45
aVhstem 636 49\\u000d
p46
aVhstem 828 60\\u000d
p47
asasVid\\u000d
p48
Vd03fd004e06f28a4301b9ef206e127d36be9f48661d585def921be25bd63c6950215730de517a5103ad8030c7e83e98471e2cd4d0c5d713f3a2ff7555cdc3e8b\\u000d
p49
ss."
EndChar

StartChar: ellipsis
Encoding: 398 8230 188
GlifName: ellipsis
Width: 560
VWidth: 0
Flags: W
LayerCount: 2
Fore
SplineSet
130 0 m 257
 50 0 l 257
 50 80 l 257
 130 80 l 257
 130 0 l 257
320 0 m 257
 240 0 l 257
 240 80 l 257
 320 80 l 257
 320 0 l 257
510 0 m 257
 430 0 l 257
 430 80 l 257
 510 80 l 257
 510 0 l 257
EndSplineSet
PickledDataWithLists: "(dp0
Vpublic.postscript.hints\\u000d
p1
(dp2
VformatVersion\\u000d
p3
V1\\u000d
p4
sVhintSetList\\u000d
p5
(lp6
(dp7
Vstems\\u000d
p8
(lp9
Vhstem 0 80\\u000d
p10
aVvstem 50 80\\u000d
p11
aVvstem 240 80\\u000d
p12
aVvstem 430 80\\u000d
p13
asasVid\\u000d
p14
Vw560m130,0l50,0l50,80l130,80m320,0l240,0l240,80l320,80m510,0l430,0l430,80l510,80\\u000d
p15
ss."
EndChar

StartChar: emacron
Encoding: 399 275 189
GlifName: emacron
Width: 518
VWidth: 0
Flags: W
LayerCount: 2
Fore
SplineSet
139 278 m 257
 379 278 l 257
 379 278 371 402 259 402 c 256
 147 402 139 278 139 278 c 257
50 240 m 256
 50 360 119 470 259 470 c 256
 399 470 468 360 468 240 c 258
 468 210 l 257
 134 210 l 257
 134 140 179 58 259 58 c 256
 329 58 365 98 375 142 c 257
 458 142 l 257
 443 73 409 -10 259 -10 c 256
 109 -10 50 120 50 240 c 256
395 640 m 257
 395 570 l 257
 125 570 l 257
 125 640 l 257
 395 640 l 257
EndSplineSet
PickledDataWithLists: "(dp0
Vpublic.postscript.hints\\u000d
p1
(dp2
VformatVersion\\u000d
p3
V1\\u000d
p4
sVhintSetList\\u000d
p5
(lp6
(dp7
Vstems\\u000d
p8
(lp9
Vhstem -10 68\\u000d
p10
aVhstem 210 68\\u000d
p11
aVhstem 402 68\\u000d
p12
aVhstem 570 70\\u000d
p13
aVvstem 50 84\\u000d
p14
aVvstem 379 89\\u000d
p15
asasVid\\u000d
p16
V0713994c998fcc3c2d0ae95e912d84a52142eaa4d5e7a6a72559629e250cad68c9d8b026a83294d9828d7189b3115415ee873c5d2a9b87aed900274f9a35cf2f\\u000d
p17
ss."
EndChar

StartChar: emdash
Encoding: 400 8212 190
GlifName: emdash
Width: 550
VWidth: 0
Flags: W
LayerCount: 2
Fore
SplineSet
500 210 m 257
 50 210 l 257
 50 275 l 257
 500 275 l 257
 500 210 l 257
EndSplineSet
PickledDataWithLists: "(dp0
Vpublic.postscript.hints\\u000d
p1
(dp2
VformatVersion\\u000d
p3
V1\\u000d
p4
sVhintSetList\\u000d
p5
(lp6
(dp7
Vstems\\u000d
p8
(lp9
Vhstem 210 65\\u000d
p10
aVvstem 50 450\\u000d
p11
asasVid\\u000d
p12
Vw550m500,210l50,210l50,275l500,275\\u000d
p13
ss."
EndChar

StartChar: endash
Encoding: 401 8211 191
GlifName: endash
Width: 450
VWidth: 0
Flags: W
LayerCount: 2
Fore
SplineSet
400 210 m 257
 50 210 l 257
 50 275 l 257
 400 275 l 257
 400 210 l 257
EndSplineSet
PickledDataWithLists: "(dp0
Vpublic.postscript.hints\\u000d
p1
(dp2
VformatVersion\\u000d
p3
V1\\u000d
p4
sVhintSetList\\u000d
p5
(lp6
(dp7
Vstems\\u000d
p8
(lp9
Vhstem 210 65\\u000d
p10
aVvstem 50 350\\u000d
p11
asasVid\\u000d
p12
Vw450m400,210l50,210l50,275l400,275\\u000d
p13
ss."
EndChar

StartChar: eng
Encoding: 402 331 192
GlifName: eng
Width: 478
VWidth: 0
Flags: W
LayerCount: 2
Fore
SplineSet
125 0 m 257
 46 0 l 257
 46 460 l 257
 126 460 l 257
 126 370 l 257
 167 417 237 470 307 470 c 256
 428 470 433 382 433 300 c 258
 433 -62 l 258
 433 -139 366 -200 303 -200 c 258
 283 -200 l 257
 283 -120 l 257
 367 -120 353 -46 353 12 c 258
 353 270 l 258
 353 353 353 405 287 405 c 256
 223 405 125 343 125 230 c 256
 125 153 125 77 125 0 c 257
EndSplineSet
PickledDataWithLists: "(dp0
Vpublic.postscript.hints\\u000d
p1
(dp2
VformatVersion\\u000d
p3
V1\\u000d
p4
sVhintSetList\\u000d
p5
(lp6
(dp7
Vstems\\u000d
p8
(lp9
Vhstem -200 80\\u000d
p10
aVhstem 405 65\\u000d
p11
aVvstem 46 80\\u000d
p12
aVvstem 353 80\\u000d
p13
asasVid\\u000d
p14
V82846541842da768c900a5ccea77b9ca8d70c885fe0e87a3c67becf30e5ccecd6a8b0ab82a0bd4b008b42ae147827d79d1971303b46bda67ef6cced822f2941d\\u000d
p15
ss."
EndChar

StartChar: eogonek
Encoding: 403 281 193
GlifName: eogonek
Width: 471
VWidth: 0
Flags: W
LayerCount: 2
Fore
SplineSet
119 290 m 257
 358 290 l 257
 345 358 310 390 240 390 c 256
 181 390 129 353 119 290 c 257
34 240 m 256
 34 348 95 470 240 470 c 256
 379 470 435 350 435 210 c 257
 119 210 l 257
 126 141 157 70 241 70 c 256
 285 70 332 88 355 114 c 257
 416 98 l 257
 401 62 352 2 267 -8 c 257
 226 -40 202 -76 202 -114 c 256
 202 -145 224 -160 248 -160 c 256
 264 -160 277 -155 288 -147 c 257
 310 -188 l 257
 291 -203 256 -215 231 -215 c 256
 181 -215 141 -186 141 -130 c 256
 141 -78 177 -34 209 -8 c 257
 77 8 34 130 34 240 c 256
EndSplineSet
PickledDataWithLists: "(dp0
Vpublic.postscript.hints\\u000d
p1
(dp2
VformatVersion\\u000d
p3
V1\\u000d
p4
sVhintSetList\\u000d
p5
(lp6
(dp7
Vstems\\u000d
p8
(lp9
Vhstem -215 55\\u000d
p10
aVhstem -8 78\\u000d
p11
aVhstem 210 80\\u000d
p12
aVhstem 390 80\\u000d
p13
aVvstem 34 85\\u000d
p14
aVvstem 141 61\\u000d
p15
asasVid\\u000d
p16
V130e8b25fb348c58bea2bb4f04e90bfec5cc391e989b0a7ae5fda6c05b4881bfec8a76698cbd99aa210a35015b9e9ccd65c076302114d925750c88a7b6b75751\\u000d
p17
ss."
EndChar

StartChar: equal
Encoding: 61 61 194
GlifName: equal
Width: 450
VWidth: 0
Flags: W
LayerCount: 2
Fore
SplineSet
400 130 m 257
 50 130 l 257
 50 195 l 257
 400 195 l 257
 400 130 l 257
400 285 m 257
 50 285 l 257
 50 350 l 257
 400 350 l 257
 400 285 l 257
EndSplineSet
PickledDataWithLists: "(dp0
Vpublic.postscript.hints\\u000d
p1
(dp2
VformatVersion\\u000d
p3
V1\\u000d
p4
sVhintSetList\\u000d
p5
(lp6
(dp7
Vstems\\u000d
p8
(lp9
Vhstem 130 65\\u000d
p10
aVhstem 285 65\\u000d
p11
aVvstem 50 350\\u000d
p12
asasVid\\u000d
p13
Vw450m400,130l50,130l50,195l400,195m400,285l50,285l50,350l400,350\\u000d
p14
ss."
EndChar

StartChar: exclam
Encoding: 33 33 195
GlifName: exclam
Width: 190
VWidth: 0
Flags: W
LayerCount: 2
Fore
SplineSet
70 150 m 257
 50 410 l 257
 50 700 l 257
 140 700 l 257
 140 410 l 257
 120 150 l 257
 70 150 l 257
135 0 m 257
NamedP: ".hr01"
 55 0 l 257
 55 80 l 257
 135 80 l 257
 135 0 l 257
NamedP: ".hr01"
EndSplineSet
PickledDataWithLists: "(dp0
Vpublic.postscript.hints\\u000d
p1
(dp2
VformatVersion\\u000d
p3
V1\\u000d
p4
sVhintSetList\\u000d
p5
(lp6
(dp7
Vstems\\u000d
p8
(lp9
Vvstem 50 90\\u000d
p10
aVhstem 0 80\\u000d
p11
asa(dp12
VpointTag\\u000d
p13
V.hr01\\u000d
p14
sg8
(lp15
Vhstem 0 80\\u000d
p16
aVvstem 55 80\\u000d
p17
asasVid\\u000d
p18
Vw190m70,150l50,410l50,700l140,700l140,410l120,150m135,0l55,0l55,80l135,80\\u000d
p19
ss."
EndChar

StartChar: exclamdown
Encoding: 404 161 196
GlifName: exclamdown
Width: 190
VWidth: 0
Flags: W
LayerCount: 2
Fore
SplineSet
50 -240 m 257
 50 50 l 257
 70 310 l 257
 120 310 l 257
 140 50 l 257
 140 -240 l 257
 50 -240 l 257
135 380 m 257
NamedP: ".hr01"
 55 380 l 257
 55 460 l 257
 135 460 l 257
 135 380 l 257
NamedP: ".hr01"
EndSplineSet
PickledDataWithLists: "(dp0
Vpublic.postscript.hints\\u000d
p1
(dp2
VformatVersion\\u000d
p3
V1\\u000d
p4
sVhintSetList\\u000d
p5
(lp6
(dp7
Vstems\\u000d
p8
(lp9
Vvstem 50 90\\u000d
p10
aVhstem 380 80\\u000d
p11
asa(dp12
VpointTag\\u000d
p13
V.hr01\\u000d
p14
sg8
(lp15
Vhstem 380 80\\u000d
p16
aVvstem 55 80\\u000d
p17
asasVid\\u000d
p18
Vw190m50,-240l50,50l70,310l120,310l140,50l140,-240m135,380l55,380l55,460l135,460\\u000d
p19
ss."
EndChar

StartChar: f
Encoding: 102 102 197
GlifName: f
Width: 341
VWidth: 0
Flags: W
LayerCount: 2
Fore
SplineSet
110 400 m 257
 35 400 l 257
 35 460 l 257
 110 460 l 257
 110 500 l 258
 110 642 121 692 272 700 c 257
 306 700 l 257
 306 635 l 257
 272 635 l 257
 203 634 190 606 190 500 c 258
 190 460 l 257
 274 460 l 257
 274 400 l 257
 190 400 l 257
 190 0 l 257
 110 0 l 257
 110 400 l 257
EndSplineSet
PickledDataWithLists: "(dp0
Vpublic.postscript.hints\\u000d
p1
(dp2
VformatVersion\\u000d
p3
V1\\u000d
p4
sVhintSetList\\u000d
p5
(lp6
(dp7
Vstems\\u000d
p8
(lp9
Vhstem 400 60\\u000d
p10
aVhstem 635 65\\u000d
p11
aVvstem 110 80\\u000d
p12
asasVid\\u000d
p13
V9226e2f0c0de42a091b3c9016180ad842dfe49ced0efa01bf696d983a90dd26f0a337e0e8c3281f12ee5b4cf67207433560f9662d0077764110ba332892876dd\\u000d
p14
ss."
Substitution2: "smcpLowercasetoSmallCapitalslookup22 subtable" f.sc
Substitution2: "aaltAccessAllAlternateslookup0 subtable" f.sc
EndChar

StartChar: f.sc
Encoding: 405 -1 198
GlifName: f.sc
Width: 355
VWidth: 0
Flags: W
LayerCount: 2
Fore
SplineSet
113 0 m 257
 33 0 l 257
 33 460 l 257
 323 460 l 257
 323 395 l 257
 113 395 l 257
 113 260 l 257
 297 260 l 257
 297 195 l 257
 113 195 l 257
 113 0 l 257
EndSplineSet
PickledDataWithLists: "(dp0
Vpublic.postscript.hints\\u000d
p1
(dp2
VformatVersion\\u000d
p3
V1\\u000d
p4
sVhintSetList\\u000d
p5
(lp6
(dp7
Vstems\\u000d
p8
(lp9
Vhstem 195 65\\u000d
p10
aVhstem 395 65\\u000d
p11
aVvstem 33 80\\u000d
p12
asasVid\\u000d
p13
Vw355m113,0l33,0l33,460l323,460l323,395l113,395l113,260l297,260l297,195l113,195\\u000d
p14
ss."
EndChar

StartChar: fi
Encoding: 406 64257 199
GlifName: fi
Width: 439
VWidth: 0
Flags: W
LayerCount: 2
Fore
SplineSet
115 380 m 257
 50 380 l 257
 50 460 l 257
 115 460 l 257
 115 500 l 258
 115 642 126 692 277 700 c 257
 311 700 l 257
 311 635 l 257
 277 635 l 258
 208 635 195 606 195 500 c 258
 195 460 l 257
 389 460 l 257
 389 0 l 257
 309 0 l 257
 309 127 309 253 309 380 c 257
 195 380 l 257
 195 0 l 257
 115 0 l 257
 115 380 l 257
EndSplineSet
PickledDataWithLists: "(dp0
Vpublic.postscript.hints\\u000d
p1
(dp2
VformatVersion\\u000d
p3
V1\\u000d
p4
sVhintSetList\\u000d
p5
(lp6
(dp7
Vstems\\u000d
p8
(lp9
Vhstem 380 80\\u000d
p10
aVhstem 635 65\\u000d
p11
aVvstem 115 80\\u000d
p12
aVvstem 309 80\\u000d
p13
asasVid\\u000d
p14
V79830ccd4cec7a0a940e5877dbe448c6a9f7a27073e994b92af511bffd0904489b2417d26d2571d0f3b3dcccc832556eca5aa7c200565a9a84e606805da0624b\\u000d
p15
ss."
EndChar

StartChar: five
Encoding: 53 53 200
GlifName: five
Width: 528
VWidth: 0
Flags: W
LayerCount: 2
Fore
SplineSet
53 148 m 257
 133 148 l 257
 148 100 182 70 262 70 c 256
 356 70 400 164 400 250 c 256
 400 375 340 420 293 420 c 256
 231 420 157 393 145 300 c 257
 56 296 l 257
 56 700 l 257
 422 700 l 257
 422 630 l 257
 143 630 l 257
 143 403 l 257
 144 403 145 403 146 403 c 257
 172 456 225 493 295 493 c 256
 413 493 489 392 489 243 c 256
 489 101 395 -10 266 -10 c 256
 142 -10 80 51 53 148 c 257
EndSplineSet
PickledDataWithLists: "(dp0
Vpublic.postscript.hints\\u000d
p1
(dp2
VformatVersion\\u000d
p3
V1\\u000d
p4
sVhintSetList\\u000d
p5
(lp6
(dp7
Vstems\\u000d
p8
(lp9
Vhstem -10 80\\u000d
p10
aVhstem 420 73\\u000d
p11
aVhstem 630 70\\u000d
p12
aVvstem 56 87\\u000d
p13
aVvstem 400 89\\u000d
p14
asasVid\\u000d
p15
V91fa8084f7164a4485b11a934970578bf9ce761c2c390080d63c049f5da6a53bba06f11a48dbc0a6a823d0d93c8a9ad11cf66d129b3e8bbd69c53fda55a289e9\\u000d
p16
ss."
Substitution2: "Single Substitution lookup 21 subtable" five.dnom
Substitution2: "SingleSubstitutionlookup26 subtable" five.numr
Substitution2: "dnomDenominatorslookup7 subtable" five.dnom
Substitution2: "numrNumeratorslookup6 subtable" five.numr
Substitution2: "subsSubscriptlookup5 subtable" five.subscript
Substitution2: "supsSuperscriptlookup4 subtable" five.superior
Substitution2: "sinfScientificInferiorslookup3 subtable" five.inferior
AlternateSubs2: "aaltAccessAllAlternateslookup1 subtable" five.inferior five.superior five.subscript five.numr five.dnom
EndChar

StartChar: five.dnom
Encoding: 407 -1 201
GlifName: five.dnom
Width: 366
VWidth: 0
Flags: W
LayerCount: 2
Fore
SplineSet
35 -128 m 257
 95 -128 l 257
 105 -158 130 -177 181 -177 c 256
 244 -177 273 -117 273 -63 c 256
 273 16 233 44 202 44 c 256
 160 44 112 24 104 -32 c 257
 37 -34 l 257
 37 237 l 257
 290 237 l 257
 290 184 l 257
 102 184 l 257
 102 33 l 257
 103 33 103 33 104 33 c 257
 122 72 159 100 207 100 c 256
 288 100 340 33 340 -67 c 256
 340 -162 274 -237 184 -237 c 256
 98 -237 53 -194 35 -128 c 257
EndSplineSet
PickledDataWithLists: "(dp0
Vpublic.postscript.hints\\u000d
p1
(dp2
VformatVersion\\u000d
p3
V1\\u000d
p4
sVhintSetList\\u000d
p5
(lp6
(dp7
Vstems\\u000d
p8
(lp9
Vhstem -237 60\\u000d
p10
aVhstem 44 56\\u000d
p11
aVhstem 184 53\\u000d
p12
aVvstem 37 65\\u000d
p13
aVvstem 273 67\\u000d
p14
asasVid\\u000d
p15
V31a814c0054adc0116e8fc1e0f4ce3d6eee15fd02dd7f540c2160fe4b1cedf4ee27e7ab8015b42e43c918e22b95ade56e6778e31b6b30de33d1ad0d013dc5d66\\u000d
p16
ss."
EndChar

StartChar: five.inferior
Encoding: 408 -1 202
GlifName: five.inferior
Width: 366
VWidth: 0
Flags: W
LayerCount: 2
Fore
SplineSet
35 -358 m 257
 95 -358 l 257
 105 -388 130 -407 181 -407 c 256
 244 -407 273 -347 273 -293 c 256
 273 -214 233 -186 202 -186 c 257
 156 -188 111 -208 104 -262 c 257
 37 -264 l 257
 37 7 l 257
 290 7 l 257
 290 -46 l 257
 102 -46 l 257
 102 -197 l 257
 103 -197 103 -197 104 -197 c 257
 122 -158 159 -130 207 -130 c 256
 288 -130 340 -197 340 -297 c 256
 340 -392 274 -467 184 -467 c 256
 98 -467 53 -424 35 -358 c 257
EndSplineSet
PickledDataWithLists: "(dp0
Vpublic.postscript.hints\\u000d
p1
(dp2
VformatVersion\\u000d
p3
V1\\u000d
p4
sVhintSetList\\u000d
p5
(lp6
(dp7
Vstems\\u000d
p8
(lp9
Vhstem -467 60\\u000d
p10
aVhstem -186 56\\u000d
p11
aVhstem -46 53\\u000d
p12
aVvstem 37 65\\u000d
p13
aVvstem 273 67\\u000d
p14
asasVid\\u000d
p15
Vc75c9d380e4cd47be14bcbf5c3ff45828b34837ba28a408f03c85adca2d434e04a8526a362d44ea3f6b213e784a9ccd201f467950e29b5a80c4bff8a445f6307\\u000d
p16
ss."
EndChar

StartChar: five.numr
Encoding: 409 -1 203
GlifName: five.numr
Width: 366
VWidth: 0
Flags: W
LayerCount: 2
Fore
SplineSet
35 332 m 257
 95 332 l 257
 105 302 130 283 181 283 c 256
 244 283 273 343 273 397 c 256
 273 476 233 504 202 504 c 257
 156 502 111 482 104 428 c 257
 37 426 l 257
 37 697 l 257
 290 697 l 257
 290 644 l 257
 102 644 l 257
 102 493 l 257
 103 493 103 493 104 493 c 257
 122 532 159 560 207 560 c 256
 288 560 340 493 340 393 c 256
 340 298 274 223 184 223 c 256
 98 223 53 266 35 332 c 257
EndSplineSet
PickledDataWithLists: "(dp0
Vpublic.postscript.hints\\u000d
p1
(dp2
VformatVersion\\u000d
p3
V1\\u000d
p4
sVhintSetList\\u000d
p5
(lp6
(dp7
Vstems\\u000d
p8
(lp9
Vhstem 223 60\\u000d
p10
aVhstem 504 56\\u000d
p11
aVhstem 644 53\\u000d
p12
aVvstem 37 65\\u000d
p13
aVvstem 273 67\\u000d
p14
asasVid\\u000d
p15
V2444af5ab5a5e338c42c998602137a11b20cb96eed9e155c6af9d106d0a9a92bece85edba7e2bc3cf7f1a70e2e3ea82c9a8d23e25d3d2132c8266b5f41130e87\\u000d
p16
ss."
EndChar

StartChar: five.subscript
Encoding: 410 -1 204
GlifName: five.subscript
Width: 366
VWidth: 0
Flags: W
LayerCount: 2
Fore
SplineSet
35 -220 m 257
 95 -220 l 257
 105 -250 130 -269 181 -269 c 256
 244 -269 273 -209 273 -155 c 256
 273 -76 233 -48 202 -48 c 256
 160 -48 112 -68 104 -124 c 257
 37 -126 l 257
 37 145 l 257
 290 145 l 257
 290 92 l 257
 102 92 l 257
 102 -59 l 257
 103 -59 103 -59 104 -59 c 257
 122 -20 159 8 207 8 c 256
 288 8 340 -59 340 -159 c 256
 340 -254 274 -329 184 -329 c 256
 98 -329 53 -286 35 -220 c 257
EndSplineSet
PickledDataWithLists: "(dp0
Vpublic.postscript.hints\\u000d
p1
(dp2
VformatVersion\\u000d
p3
V1\\u000d
p4
sVhintSetList\\u000d
p5
(lp6
(dp7
Vstems\\u000d
p8
(lp9
Vhstem -329 60\\u000d
p10
aVhstem -48 56\\u000d
p11
aVhstem 92 53\\u000d
p12
aVvstem 37 65\\u000d
p13
aVvstem 273 67\\u000d
p14
asasVid\\u000d
p15
V4332f507adbf1cb924a309d196ccabbdb18bceb7bb5371159c2926e1658507977cc4a8d94640439c9562015edc06f24d294b7f979081255ded990905d25abcd4\\u000d
p16
ss."
EndChar

StartChar: five.superior
Encoding: 411 -1 205
GlifName: five.superior
Width: 366
VWidth: 0
Flags: W
LayerCount: 2
Fore
SplineSet
35 516 m 257
 95 516 l 257
 105 486 130 467 181 467 c 256
 244 467 273 527 273 581 c 256
 273 660 233 688 202 688 c 257
 156 686 111 666 104 612 c 257
 37 610 l 257
 37 881 l 257
 290 881 l 257
 290 828 l 257
 102 828 l 257
 102 677 l 257
 103 677 103 677 104 677 c 257
 122 716 159 744 207 744 c 256
 288 744 340 677 340 577 c 256
 340 482 274 407 184 407 c 256
 98 407 53 450 35 516 c 257
EndSplineSet
PickledDataWithLists: "(dp0
Vpublic.postscript.hints\\u000d
p1
(dp2
VformatVersion\\u000d
p3
V1\\u000d
p4
sVhintSetList\\u000d
p5
(lp6
(dp7
Vstems\\u000d
p8
(lp9
Vhstem 407 60\\u000d
p10
aVhstem 688 56\\u000d
p11
aVhstem 828 53\\u000d
p12
aVvstem 37 65\\u000d
p13
aVvstem 273 67\\u000d
p14
asasVid\\u000d
p15
V9b2b2a5c981fbd3e202712f182b2d78312802ae387f0743d02c2bf696b441199bef5fb921ef825c5eef407af2e738be8d214c97d54ef9391fc52ef73a7138967\\u000d
p16
ss."
EndChar

StartChar: fl
Encoding: 412 64258 206
GlifName: fl
Width: 501
VWidth: 0
Flags: W
LayerCount: 2
Fore
SplineSet
146 381 m 257
 81 381 l 257
 81 461 l 257
 146 461 l 257
 146 501 l 258
 146 643 157 693 308 700 c 257
 431 700 l 257
 431 0 l 257
 351 0 l 257
 351 635 l 257
 352 636 l 257
 308 636 l 257
 239 635 226 607 226 501 c 258
 226 461 l 257
 300 461 l 257
 300 381 l 257
 226 381 l 257
 226 1 l 257
 146 1 l 257
 146 381 l 257
EndSplineSet
PickledDataWithLists: "(dp0
Vpublic.postscript.hints\\u000d
p1
(dp2
VformatVersion\\u000d
p3
V1\\u000d
p4
sVhintSetList\\u000d
p5
(lp6
(dp7
Vstems\\u000d
p8
(lp9
Vhstem 381 80\\u000d
p10
aVhstem 636 64\\u000d
p11
aVvstem 146 80\\u000d
p12
aVvstem 351 80\\u000d
p13
asasVid\\u000d
p14
Vfb630c6a5c66df0a317481cd2708e35b215d1548ed1fe11e3b0d8a0cac814705c996025e97e9b81fe87d4228333f4c7c1dd2eef9592adde11a7e0079881ce22e\\u000d
p15
ss."
EndChar

StartChar: florin
Encoding: 413 402 207
GlifName: florin
Width: 495
VWidth: 0
Flags: W
LayerCount: 2
Fore
SplineSet
22 -176 m 257
 36 -109 l 257
 65 -114 l 258
 82 -117 94 -118 103 -118 c 256
 159 -118 157 -60 164 -20 c 258
 236 392 l 257
 149 392 l 257
 158 452 l 257
 247 452 l 257
 256 511 l 257
 270 590 294 640 380 640 c 256
 415 640 440 631 465 625 c 258
 473 623 l 257
 458 556 l 257
 427 563 412 567 392 567 c 256
 381 567 374 566 367 563 c 256
 347 554 342 532 335 498 c 258
 326 452 l 257
 415 452 l 257
 404 392 l 257
 315 392 l 257
 238 -43 l 257
 221 -127 210 -172 151 -184 c 256
 141 -186 131 -187 119 -187 c 256
 113 -187 78 -187 22 -176 c 257
EndSplineSet
PickledDataWithLists: "(dp0
Vpublic.postscript.hints\\u000d
p1
(dp2
VformatVersion\\u000d
p3
V1\\u000d
p4
sVhintSetList\\u000d
p5
(lp6
(dp7
Vstems\\u000d
p8
(lp9
Vhstem -187 69\\u000d
p10
aVhstem 392 60\\u000d
p11
aVhstem 567 73\\u000d
p12
aVvstem 22 451\\u000d
p13
asasVid\\u000d
p14
V371e9d9b551e8813da7fa7a353fbfb44a96a252a58387a8dc7c1ba93f5075804ddbdc1089771a43943630b819f56e64a9f42eff6864f2c1811589926f10ff0ca\\u000d
p15
ss."
EndChar

StartChar: four
Encoding: 52 52 208
GlifName: four
Width: 521
VWidth: 0
Flags: W
LayerCount: 2
Fore
SplineSet
370 620 m 257
 360 620 l 257
 140 253 l 257
 370 253 l 257
 370 620 l 257
370 0 m 257
 370 173 l 257
 50 173 l 257
 50 253 l 257
 318 700 l 257
 460 700 l 257
 460 253 l 257
 520 253 l 257
 520 173 l 257
 460 173 l 257
 460 0 l 257
 370 0 l 257
EndSplineSet
PickledDataWithLists: "(dp0
Vpublic.postscript.hints\\u000d
p1
(dp2
VformatVersion\\u000d
p3
V1\\u000d
p4
sVhintSetList\\u000d
p5
(lp6
(dp7
Vstems\\u000d
p8
(lp9
Vhstem 173 80\\u000d
p10
aVhstem 620 80\\u000d
p11
aVvstem 50 90\\u000d
p12
aVvstem 370 90\\u000d
p13
asasVid\\u000d
p14
Vw521m370,620l360,620l140,253l370,253m370,0l370,173l50,173l50,253l318,700l460,700l460,253l520,253l520,173l460,173l460,0\\u000d
p15
ss."
Substitution2: "Single Substitution lookup 21 subtable" four.dnom
Substitution2: "SingleSubstitutionlookup26 subtable" four.numr
Substitution2: "dnomDenominatorslookup7 subtable" four.dnom
Substitution2: "numrNumeratorslookup6 subtable" four.numr
Substitution2: "subsSubscriptlookup5 subtable" four.subscript
Substitution2: "supsSuperscriptlookup4 subtable" four.superior
Substitution2: "sinfScientificInferiorslookup3 subtable" four.inferior
AlternateSubs2: "aaltAccessAllAlternateslookup1 subtable" four.inferior four.superior four.subscript four.numr four.dnom
EndChar

StartChar: four.dnom
Encoding: 414 -1 209
GlifName: four.dnom
Width: 355
VWidth: 0
Flags: W
LayerCount: 2
Fore
SplineSet
246 179 m 257
 240 179 l 257
 93 -55 l 257
 246 -55 l 257
 246 179 l 257
246 -116 m 257
 33 -116 l 257
 33 -63 l 257
 212 237 l 257
 314 237 l 257
 314 -55 l 257
 354 -55 l 257
 354 -116 l 257
 314 -116 l 257
 314 -230 l 257
 246 -230 l 257
 246 -116 l 257
EndSplineSet
PickledDataWithLists: "(dp0
Vpublic.postscript.hints\\u000d
p1
(dp2
VformatVersion\\u000d
p3
V1\\u000d
p4
sVhintSetList\\u000d
p5
(lp6
(dp7
Vstems\\u000d
p8
(lp9
Vhstem -116 61\\u000d
p10
aVhstem 179 58\\u000d
p11
aVvstem 246 68\\u000d
p12
asasVid\\u000d
p13
Vw355m246,179l240,179l93,-55l246,-55m246,-116l33,-116l33,-63l212,237l314,237l314,-55l354,-55l354,-116l314,-116l314,-230l246,-230\\u000d
p14
ss."
EndChar

StartChar: four.inferior
Encoding: 415 -1 210
GlifName: four.inferior
Width: 355
VWidth: 0
Flags: W
LayerCount: 2
Fore
SplineSet
246 -51 m 257
 240 -51 l 257
 93 -285 l 257
 246 -285 l 257
 246 -51 l 257
246 -346 m 257
 33 -346 l 257
 33 -293 l 257
 212 7 l 257
 314 7 l 257
 314 -285 l 257
 354 -285 l 257
 354 -346 l 257
 314 -346 l 257
 314 -460 l 257
 246 -460 l 257
 246 -346 l 257
EndSplineSet
PickledDataWithLists: "(dp0
Vpublic.postscript.hints\\u000d
p1
(dp2
VformatVersion\\u000d
p3
V1\\u000d
p4
sVhintSetList\\u000d
p5
(lp6
(dp7
Vstems\\u000d
p8
(lp9
Vhstem -346 61\\u000d
p10
aVhstem -51 58\\u000d
p11
aVvstem 246 68\\u000d
p12
asasVid\\u000d
p13
V3220fa46b84af55d57c16e375eb556ac5a2f44a12c0f370bba96b88a1f91e056fbd3bf9b4beb629ff55d323bfa6cbf6d6381c3a906e140951177ac7efa71fc52\\u000d
p14
ss."
EndChar

StartChar: four.numr
Encoding: 416 -1 211
GlifName: four.numr
Width: 355
VWidth: 0
Flags: W
LayerCount: 2
Fore
SplineSet
246 639 m 257
 240 639 l 257
 93 405 l 257
 246 405 l 257
 246 639 l 257
246 230 m 257
 246 344 l 257
 33 344 l 257
 33 397 l 257
 212 697 l 257
 314 697 l 257
 314 405 l 257
 354 405 l 257
 354 344 l 257
 314 344 l 257
 314 230 l 257
 246 230 l 257
EndSplineSet
PickledDataWithLists: "(dp0
Vpublic.postscript.hints\\u000d
p1
(dp2
VformatVersion\\u000d
p3
V1\\u000d
p4
sVhintSetList\\u000d
p5
(lp6
(dp7
Vstems\\u000d
p8
(lp9
Vhstem 344 61\\u000d
p10
aVhstem 639 58\\u000d
p11
aVvstem 246 68\\u000d
p12
asasVid\\u000d
p13
Vw355m246,639l240,639l93,405l246,405m246,230l246,344l33,344l33,397l212,697l314,697l314,405l354,405l354,344l314,344l314,230\\u000d
p14
ss."
EndChar

StartChar: four.subscript
Encoding: 417 -1 212
GlifName: four.subscript
Width: 355
VWidth: 0
Flags: W
LayerCount: 2
Fore
SplineSet
93 -147 m 257
 246 -147 l 257
 246 87 l 257
 221 87 117 -109 93 -147 c 257
246 -208 m 257
 33 -208 l 257
 33 -155 l 257
 212 145 l 257
 314 145 l 257
 314 -147 l 257
 354 -147 l 257
 354 -208 l 257
 314 -208 l 257
 314 -322 l 257
 246 -322 l 257
 246 -208 l 257
EndSplineSet
PickledDataWithLists: "(dp0
Vpublic.postscript.hints\\u000d
p1
(dp2
VformatVersion\\u000d
p3
V1\\u000d
p4
sVhintSetList\\u000d
p5
(lp6
(dp7
Vstems\\u000d
p8
(lp9
Vhstem -208 61\\u000d
p10
aVhstem 87 58\\u000d
p11
aVvstem 246 68\\u000d
p12
asasVid\\u000d
p13
V9c631093800593da32853f7c67f9e4ff1f19d3a16e1a2a4318dce3f55a70ad33ef5e34989ba3c61a94c036e72e41fa3db700cd05df3a5506c078f30932ab87f1\\u000d
p14
ss."
EndChar

StartChar: four.superior
Encoding: 418 -1 213
GlifName: four.superior
Width: 355
VWidth: 0
Flags: W
LayerCount: 2
Fore
SplineSet
246 823 m 257
 240 823 l 257
 93 589 l 257
 246 589 l 257
 246 823 l 257
246 414 m 257
 246 528 l 257
 33 528 l 257
 33 581 l 257
 212 881 l 257
 314 881 l 257
 314 589 l 257
 354 589 l 257
 354 528 l 257
 314 528 l 257
 314 414 l 257
 246 414 l 257
EndSplineSet
PickledDataWithLists: "(dp0
Vpublic.postscript.hints\\u000d
p1
(dp2
VformatVersion\\u000d
p3
V1\\u000d
p4
sVhintSetList\\u000d
p5
(lp6
(dp7
Vstems\\u000d
p8
(lp9
Vhstem 528 61\\u000d
p10
aVhstem 823 58\\u000d
p11
aVvstem 246 68\\u000d
p12
asasVid\\u000d
p13
Vw355m246,823l240,823l93,589l246,589m246,414l246,528l33,528l33,581l212,881l314,881l314,589l354,589l354,528l314,528l314,414\\u000d
p14
ss."
EndChar

StartChar: fraction
Encoding: 419 8260 214
GlifName: fraction
Width: 555
VWidth: 0
Flags: W
LayerCount: 2
Fore
SplineSet
121 0 m 257
 30 0 l 257
 441 700 l 257
 528 700 l 257
 121 0 l 257
EndSplineSet
PickledDataWithLists: "(dp0
Vpublic.postscript.hints\\u000d
p1
(dp2
VformatVersion\\u000d
p3
V1\\u000d
p4
sVhintSetList\\u000d
p5
(lp6
(dp7
Vstems\\u000d
p8
(lp9
Vvstem 30 498\\u000d
p10
asasVid\\u000d
p11
Vw555m121,0l30,0l441,700l528,700\\u000d
p12
ss."
EndChar

StartChar: g
Encoding: 103 103 215
GlifName: g
Width: 492
VWidth: 0
Flags: W
LayerCount: 2
Fore
SplineSet
115 230 m 256
 115 159 141 65 246 65 c 256
 331 65 367 143 367 210 c 258
 367 245 l 258
 367 347 311 405 246 405 c 256
 156 405 115 337 115 230 c 256
35 230 m 256
 35 355 96 470 226 470 c 256
 284 470 344 439 367 388 c 257
 387 459 l 257
 447 459 l 257
 447 27 l 258
 447 -146 362 -200 244 -200 c 256
 114 -200 62 -106 52 -54 c 257
 135 -54 l 257
 153 -113 206 -134 244 -134 c 256
 316 -134 367 -91 367 27 c 258
 367 89 l 257
 339 33 286 -1 227 -1 c 256
 56 -1 35 144 35 230 c 256
EndSplineSet
PickledDataWithLists: "(dp0
Vpublic.postscript.hints\\u000d
p1
(dp2
VformatVersion\\u000d
p3
V1\\u000d
p4
sVhintSetList\\u000d
p5
(lp6
(dp7
Vstems\\u000d
p8
(lp9
Vhstem -200 66\\u000d
p10
aVhstem -1 66\\u000d
p11
aVhstem 405 65\\u000d
p12
aVvstem 35 80\\u000d
p13
aVvstem 367 80\\u000d
p14
asasVid\\u000d
p15
Vfb3342ed50a9331b817e84d6e3599dad962a69355e7792be56e908e9716d9003e2cb5ead426e1087213b719120ecc96347e51037363d417bcf3e7b8baf7a6c9c\\u000d
p16
ss."
Substitution2: "smcpLowercasetoSmallCapitalslookup22 subtable" g.sc
Substitution2: "aaltAccessAllAlternateslookup0 subtable" g.sc
EndChar

StartChar: g.sc
Encoding: 420 -1 216
GlifName: g.sc
Width: 468
VWidth: 0
Flags: W
LayerCount: 2
Fore
SplineSet
33 230 m 256
 33 368 104 470 238 470 c 256
 343 470 411 418 436 318 c 257
 357 318 l 257
 340 371 308 405 238 405 c 256
 143 405 113 312 113 230 c 256
 113 141 143 55 236 55 c 256
 306 55 348 91 348 143 c 257
 236 143 l 257
 236 215 l 257
 427 215 l 257
 427 0 l 257
NamedP: ".hr01"
 348 0 l 257
 348 37 l 257
 318 7 280 -10 233 -10 c 256
 97 -10 33 90 33 230 c 256
EndSplineSet
PickledDataWithLists: "(dp0
Vpublic.postscript.hints\\u000d
p1
(dp2
VformatVersion\\u000d
p3
V1\\u000d
p4
sVhintSetList\\u000d
p5
(lp6
(dp7
Vstems\\u000d
p8
(lp9
Vvstem 33 80\\u000d
p10
aVhstem 405 65\\u000d
p11
aVhstem -10 65\\u000d
p12
aVvstem 348 79\\u000d
p13
aVhstem 143 72\\u000d
p14
asa(dp15
VpointTag\\u000d
p16
V.hr01\\u000d
p17
sg8
(lp18
Vhstem 0 215\\u000d
p19
aVvstem 348 79\\u000d
p20
aVhstem 405 65\\u000d
p21
aVvstem 33 80\\u000d
p22
asa(dp23
g16
V.hr02\\u000d
p24
sg8
(lp25
Vhstem -10 65\\u000d
p26
aVvstem 33 80\\u000d
p27
aVhstem 143 72\\u000d
p28
aVhstem 405 65\\u000d
p29
aVvstem 348 79\\u000d
p30
asasVid\\u000d
p31
Vfdda94289f84369df88e3e62bc2b42c37e31cd283ccbf76dd48147ff908cca4693e2ec5972d64c168e52363540d5947580d455c4635e703ad9b47589732413fc\\u000d
p32
ss."
EndChar

StartChar: gbreve
Encoding: 421 287 217
GlifName: gbreve
Width: 492
VWidth: 0
Flags: W
LayerCount: 2
Fore
SplineSet
115 230 m 256
 115 159 141 65 246 65 c 256
 331 65 367 143 367 210 c 258
 367 245 l 258
 367 347 311 405 246 405 c 256
 156 405 115 337 115 230 c 256
35 230 m 256
 35 355 96 470 226 470 c 256
 284 470 344 439 367 388 c 257
 387 459 l 257
 447 459 l 257
 447 27 l 258
 447 -146 362 -200 244 -200 c 256
 114 -200 62 -106 52 -54 c 257
 135 -54 l 257
 153 -113 206 -134 244 -134 c 256
 316 -134 367 -91 367 27 c 258
NamedP: ".hr02"
 367 89 l 257
 339 33 286 -1 227 -1 c 256
 56 -1 35 144 35 230 c 256
86 660 m 257
 166 660 l 257
 166 600 206 580 241 580 c 256
 276 580 316 600 316 660 c 257
 396 660 l 257
 396 560 321 520 241 520 c 256
 161 520 86 560 86 660 c 257
EndSplineSet
PickledDataWithLists: "(dp0
Vpublic.postscript.hints\\u000d
p1
(dp2
VformatVersion\\u000d
p3
V1\\u000d
p4
sVhintSetList\\u000d
p5
(lp6
(dp7
Vstems\\u000d
p8
(lp9
Vvstem 35 80\\u000d
p10
aVhstem -1 66\\u000d
p11
aVvstem 367 80\\u000d
p12
aVhstem 405 65\\u000d
p13
aVhstem -200 66\\u000d
p14
aVhstem 520 60\\u000d
p15
asa(dp16
VpointTag\\u000d
p17
V.hr01\\u000d
p18
sg8
(lp19
Vhstem -200 66\\u000d
p20
aVvstem 316 80\\u000d
p21
aVhstem -1 66\\u000d
p22
aVhstem 405 65\\u000d
p23
aVhstem 520 60\\u000d
p24
aVvstem 35 80\\u000d
p25
asa(dp26
g17
V.hr02\\u000d
p27
sg8
(lp28
Vvstem 367 80\\u000d
p29
aVhstem -1 66\\u000d
p30
aVvstem 35 80\\u000d
p31
aVhstem -200 66\\u000d
p32
aVhstem 405 65\\u000d
p33
aVhstem 520 60\\u000d
p34
asa(dp35
g17
V.hr03\\u000d
p36
sg8
(lp37
Vvstem 86 80\\u000d
p38
aVhstem 520 60\\u000d
p39
aVvstem 316 80\\u000d
p40
aVhstem -200 66\\u000d
p41
aVhstem -1 66\\u000d
p42
aVhstem 405 65\\u000d
p43
asasVid\\u000d
p44
V25a5be09d63ead11138853f327893017c3e38b4b2716b4743de62670aee12a5428580030d6dd787dfadeaaae733d36e34a88b50b17b9472d7dafeaa22cb7ec57\\u000d
p45
ss."
EndChar

StartChar: gcaron
Encoding: 422 487 218
GlifName: gcaron
Width: 492
VWidth: 0
Flags: W
LayerCount: 2
Fore
SplineSet
115 230 m 256
 115 159 141 65 246 65 c 256
 331 65 367 143 367 210 c 258
 367 245 l 258
 367 347 311 405 246 405 c 256
 156 405 115 337 115 230 c 256
35 230 m 256
 35 355 96 470 226 470 c 256
 284 470 344 439 367 388 c 257
 387 459 l 257
 447 459 l 257
 447 27 l 258
 447 -146 362 -200 244 -200 c 256
 114 -200 62 -106 52 -54 c 257
 135 -54 l 257
 153 -113 206 -134 244 -134 c 256
 316 -134 367 -91 367 27 c 258
 367 89 l 257
 339 33 286 -1 227 -1 c 256
 56 -1 35 144 35 230 c 256
281 520 m 257
 201 520 l 257
 101 680 l 257
 165 680 l 257
 241 595 l 257
 317 680 l 257
 381 680 l 257
 281 520 l 257
EndSplineSet
PickledDataWithLists: "(dp0
Vpublic.postscript.hints\\u000d
p1
(dp2
VformatVersion\\u000d
p3
V1\\u000d
p4
sVhintSetList\\u000d
p5
(lp6
(dp7
Vstems\\u000d
p8
(lp9
Vhstem -200 66\\u000d
p10
aVhstem -1 66\\u000d
p11
aVhstem 405 65\\u000d
p12
aVhstem 520 160\\u000d
p13
aVvstem 35 80\\u000d
p14
aVvstem 367 80\\u000d
p15
asasVid\\u000d
p16
V55fb5fa623426879bcaf7cae7ea79dbd27577332165e716e671877e304fbad8f3ae930d8d3fbddbbc87c7872613c4b8d1a865e99fa03a9ce399b8714f0bf83ce\\u000d
p17
ss."
EndChar

StartChar: gcircumflex
Encoding: 423 285 219
GlifName: gcircumflex
Width: 492
VWidth: 0
Flags: W
LayerCount: 2
Fore
SplineSet
115 230 m 256
 115 159 141 65 246 65 c 256
 331 65 367 143 367 210 c 258
 367 245 l 258
 367 347 311 405 246 405 c 256
 156 405 115 337 115 230 c 256
35 230 m 256
 35 355 96 470 226 470 c 256
 284 470 344 439 367 388 c 257
 387 459 l 257
 447 459 l 257
 447 27 l 258
 447 -146 362 -200 244 -200 c 256
 114 -200 62 -106 52 -54 c 257
 135 -54 l 257
 153 -113 206 -134 244 -134 c 256
 316 -134 367 -91 367 27 c 258
 367 89 l 257
 339 33 286 -1 227 -1 c 256
 56 -1 35 144 35 230 c 256
241 656 m 257
 121 520 l 257
 101 520 l 257
 221 680 l 257
 261 680 l 257
 381 520 l 257
 361 520 l 257
 241 656 l 257
EndSplineSet
PickledDataWithLists: "(dp0
Vpublic.postscript.hints\\u000d
p1
(dp2
VformatVersion\\u000d
p3
V1\\u000d
p4
sVhintSetList\\u000d
p5
(lp6
(dp7
Vstems\\u000d
p8
(lp9
Vhstem -200 66\\u000d
p10
aVhstem -1 66\\u000d
p11
aVhstem 405 65\\u000d
p12
aVhstem 656 24\\u000d
p13
aVvstem 35 80\\u000d
p14
aVvstem 367 80\\u000d
p15
asasVid\\u000d
p16
V4cf2302e89d47fed52bd578ad7732833b4c547ab1bf7f2ce1e51131c86e30acad528f7c1f1eaf51af0d69d481420bf1219dd4597942992ed6c8af6ddb58bc026\\u000d
p17
ss."
EndChar

StartChar: gdotaccent
Encoding: 424 289 220
GlifName: gdotaccent
Width: 492
VWidth: 0
Flags: W
LayerCount: 2
Fore
SplineSet
115 230 m 256
 115 159 141 65 246 65 c 256
 331 65 367 143 367 210 c 258
 367 245 l 258
 367 347 311 405 246 405 c 256
 156 405 115 337 115 230 c 256
35 230 m 256
 35 355 96 470 226 470 c 256
 284 470 344 439 367 388 c 257
 387 459 l 257
 447 459 l 257
 447 27 l 258
 447 -146 362 -200 244 -200 c 256
 114 -200 62 -106 52 -54 c 257
 135 -54 l 257
 153 -113 206 -134 244 -134 c 256
 316 -134 367 -91 367 27 c 258
 367 89 l 257
 339 33 286 -1 227 -1 c 256
 56 -1 35 144 35 230 c 256
251 640 m 257
 251 560 l 257
 231 560 l 257
 231 640 l 257
 251 640 l 257
EndSplineSet
PickledDataWithLists: "(dp0
Vpublic.postscript.hints\\u000d
p1
(dp2
VformatVersion\\u000d
p3
V1\\u000d
p4
sVhintSetList\\u000d
p5
(lp6
(dp7
Vstems\\u000d
p8
(lp9
Vhstem -200 66\\u000d
p10
aVhstem -1 66\\u000d
p11
aVhstem 405 65\\u000d
p12
aVhstem 560 80\\u000d
p13
aVvstem 35 80\\u000d
p14
aVvstem 231 20\\u000d
p15
aVvstem 367 80\\u000d
p16
asasVid\\u000d
p17
Vb55bd5eaef583c279d1222649fcd877dcd7528354330bc93a0717fb9305d10732a91fb4e86595552027a123d5b03fe40642f2350939180e73457252d0b8dd63d\\u000d
p18
ss."
EndChar

StartChar: germandbls
Encoding: 425 223 221
GlifName: germandbls
Width: 536
VWidth: 0
Flags: W
LayerCount: 2
Fore
SplineSet
125 -30 m 257
 45 -30 l 257
 45 492 l 258
 45 604 116 700 248 700 c 256
 378 700 458 628 458 518 c 256
 458 421 391 387 365 370 c 257
 445 347 491 255 491 190 c 256
 491 48 382 -10 239 -10 c 256
 211 -10 200 -8 186 -4 c 257
 186 63 l 257
 201 58 216 55 230 55 c 256
 319 55 411 81 411 190 c 256
 411 292 338 327 230 327 c 258
 214 327 l 257
 214 397 l 257
 289 397 378 416 378 510 c 256
 378 583 334 635 247 635 c 256
 150 635 125 573 125 480 c 258
 125 -30 l 257
EndSplineSet
PickledDataWithLists: "(dp0
Vpublic.postscript.hints\\u000d
p1
(dp2
VformatVersion\\u000d
p3
V1\\u000d
p4
sVhintSetList\\u000d
p5
(lp6
(dp7
Vstems\\u000d
p8
(lp9
Vvstem 45 80\\u000d
p10
aVhstem 635 65\\u000d
p11
aVvstem 378 80\\u000d
p12
aVhstem -10 65\\u000d
p13
aVhstem 327 70\\u000d
p14
asa(dp15
VpointTag\\u000d
p16
V.hr01\\u000d
p17
sg8
(lp18
Vvstem 411 80\\u000d
p19
aVhstem -10 65\\u000d
p20
aVhstem 327 70\\u000d
p21
aVhstem 635 65\\u000d
p22
aVvstem 45 80\\u000d
p23
asa(dp24
g16
V.hr02\\u000d
p25
sg8
(lp26
Vvstem 378 80\\u000d
p27
aVhstem 635 65\\u000d
p28
aVvstem 45 80\\u000d
p29
aVhstem -10 65\\u000d
p30
aVhstem 327 70\\u000d
p31
asasVid\\u000d
p32
Vf5915084078e959dc8e9a1dbce3daaf85aeb01504d4e97c2ec0f15532424279f0dcfaf9a2894e9b7e19368f586ac5c4a134fc19493b6cfa5db9dfea5e9c37a45\\u000d
p33
ss."
EndChar

StartChar: grave
Encoding: 96 96 222
GlifName: grave
Width: 230
VWidth: 0
Flags: W
LayerCount: 2
Fore
SplineSet
116 520 m 257
 50 700 l 257
 80 700 l 257
 130 520 l 257
 116 520 l 257
EndSplineSet
EndChar

StartChar: gravecomb
Encoding: 426 768 223
GlifName: gravecomb
Width: 0
VWidth: 0
AnchorPoint: "top" -250 520 mark 0
AnchorPoint: "top" -238 520 basechar 0
LayerCount: 2
Fore
SplineSet
-244 520 m 257
 -310 680 l 257
 -280 680 l 257
 -230 520 l 257
 -244 520 l 257
EndSplineSet
PickledDataWithLists: "(dp0
Vpublic.postscript.hints\\u000d
p1
(dp2
VformatVersion\\u000d
p3
V1\\u000d
p4
sVhintSetList\\u000d
p5
(lp6
(dp7
Vstems\\u000d
p8
(lp9
Vhstem 520 160\\u000d
p10
asasVid\\u000d
p11
Vw0m-244,520l-310,680l-280,680l-230,520\\u000d
p12
ss."
EndChar

StartChar: greater
Encoding: 62 62 224
GlifName: greater
Width: 514
VWidth: 0
Flags: W
LayerCount: 2
Fore
SplineSet
468 300 m 257
 34 100 l 257
 34 172 l 257
 392 336 l 257
 34 500 l 257
 34 570 l 257
 468 370 l 257
 468 300 l 257
EndSplineSet
PickledDataWithLists: "(dp0
Vpublic.postscript.hints\\u000d
p1
(dp2
VformatVersion\\u000d
p3
V1\\u000d
p4
sVhintSetList\\u000d
p5
(lp6
(dp7
Vstems\\u000d
p8
(lp9
Vhstem 100 470\\u000d
p10
aVvstem 34 434\\u000d
p11
asasVid\\u000d
p12
Vw514m468,300l34,100l34,172l392,336l34,500l34,570l468,370\\u000d
p13
ss."
EndChar

StartChar: guillemotleft
Encoding: 427 171 225
GlifName: guillemotleft
Width: 495
VWidth: 0
Flags: W
LayerCount: 2
Fore
SplineSet
199 31 m 257
 61 230 l 257
 199 428 l 257
 263 428 l 257
 150 230 l 257
 263 31 l 257
 199 31 l 257
369 31 m 257
 231 230 l 257
 369 428 l 257
 433 428 l 257
 320 230 l 257
 433 31 l 257
 369 31 l 257
EndSplineSet
PickledDataWithLists: "(dp0
Vpublic.postscript.hints\\u000d
p1
(dp2
VformatVersion\\u000d
p3
V1\\u000d
p4
sVhintSetList\\u000d
p5
(lp6
(dp7
Vstems\\u000d
p8
(lp9
Vhstem 31 397\\u000d
p10
aVvstem 61 372\\u000d
p11
asasVid\\u000d
p12
Vw495m199,31l61,230l199,428l263,428l150,230l263,31m369,31l231,230l369,428l433,428l320,230l433,31\\u000d
p13
ss."
EndChar

StartChar: guillemotright
Encoding: 428 187 226
GlifName: guillemotright
Width: 495
VWidth: 0
Flags: W
LayerCount: 2
Fore
SplineSet
125 31 m 257
 61 31 l 257
 174 230 l 257
 61 428 l 257
 125 428 l 257
 263 230 l 257
 125 31 l 257
295 31 m 257
 231 31 l 257
 344 230 l 257
 231 428 l 257
 295 428 l 257
 433 230 l 257
 295 31 l 257
EndSplineSet
PickledDataWithLists: "(dp0
Vpublic.postscript.hints\\u000d
p1
(dp2
VformatVersion\\u000d
p3
V1\\u000d
p4
sVhintSetList\\u000d
p5
(lp6
(dp7
Vstems\\u000d
p8
(lp9
Vhstem 31 397\\u000d
p10
aVvstem 61 372\\u000d
p11
asasVid\\u000d
p12
Vw495m125,31l61,31l174,230l61,428l125,428l263,230m295,31l231,31l344,230l231,428l295,428l433,230\\u000d
p13
ss."
EndChar

StartChar: guilsinglleft
Encoding: 429 8249 227
GlifName: guilsinglleft
Width: 296
VWidth: 0
Flags: W
LayerCount: 2
Fore
SplineSet
177 31 m 257
 39 230 l 257
 177 428 l 257
 241 428 l 257
 128 230 l 257
 241 31 l 257
 177 31 l 257
EndSplineSet
PickledDataWithLists: "(dp0
Vpublic.postscript.hints\\u000d
p1
(dp2
VformatVersion\\u000d
p3
V1\\u000d
p4
sVhintSetList\\u000d
p5
(lp6
(dp7
Vstems\\u000d
p8
(lp9
Vhstem 31 397\\u000d
p10
aVvstem 39 202\\u000d
p11
asasVid\\u000d
p12
Vw296m177,31l39,230l177,428l241,428l128,230l241,31\\u000d
p13
ss."
EndChar

StartChar: guilsinglright
Encoding: 430 8250 228
GlifName: guilsinglright
Width: 296
VWidth: 0
Flags: W
LayerCount: 2
Fore
SplineSet
119 31 m 257
 55 31 l 257
 168 230 l 257
 55 428 l 257
 119 428 l 257
 257 230 l 257
 119 31 l 257
EndSplineSet
PickledDataWithLists: "(dp0
Vpublic.postscript.hints\\u000d
p1
(dp2
VformatVersion\\u000d
p3
V1\\u000d
p4
sVhintSetList\\u000d
p5
(lp6
(dp7
Vstems\\u000d
p8
(lp9
Vhstem 31 397\\u000d
p10
aVvstem 55 202\\u000d
p11
asasVid\\u000d
p12
Vw296m119,31l55,31l168,230l55,428l119,428l257,230\\u000d
p13
ss."
EndChar

StartChar: h
Encoding: 104 104 229
GlifName: h
Width: 519
VWidth: 0
Flags: W
LayerCount: 2
Fore
SplineSet
96 300 m 257
 96 362 l 257
 110 362 l 257
 150 430 216 470 284 470 c 256
 370 470 429 407 429 315 c 258
 429 0 l 257
 409 0 l 257
 409 315 l 258
 409 398 355 454 275 454 c 256
 193 454 110 376 110 300 c 257
 96 300 l 257
90 0 m 257
 90 700 l 257
 110 700 l 257
 110 0 l 257
 90 0 l 257
EndSplineSet
PickledDataWithLists: "(dp0
Vpublic.postscript.hints\\u000d
p1
(dp2
VformatVersion\\u000d
p3
V1\\u000d
p4
sVhintSetList\\u000d
p5
(lp6
(dp7
Vstems\\u000d
p8
(lp9
Vhstem 454 16\\u000d
p10
aVvstem 90 20\\u000d
p11
aVvstem 409 20\\u000d
p12
asasVid\\u000d
p13
Vc060c7ddd57a7e5106ca2823ace8818b8547ca216710dae7df5048f1198d577007b8b24f26cef1069fab72d6709b69d55d90855ba303379ef3f491c38b6a48f8\\u000d
p14
ss."
Substitution2: "smcpLowercasetoSmallCapitalslookup22 subtable" h.sc
Substitution2: "aaltAccessAllAlternateslookup0 subtable" h.sc
EndChar

StartChar: h.sc
Encoding: 431 -1 230
GlifName: h.sc
Width: 409
VWidth: 0
Flags: W
LayerCount: 2
Fore
SplineSet
113 0 m 257
 33 0 l 257
 33 460 l 257
 113 460 l 257
 113 265 l 257
 297 265 l 257
 297 460 l 257
 377 460 l 257
 377 0 l 257
 297 0 l 257
 297 200 l 257
 113 200 l 257
 113 0 l 257
EndSplineSet
PickledDataWithLists: "(dp0
Vpublic.postscript.hints\\u000d
p1
(dp2
VformatVersion\\u000d
p3
V1\\u000d
p4
sVhintSetList\\u000d
p5
(lp6
(dp7
Vstems\\u000d
p8
(lp9
Vhstem 200 65\\u000d
p10
aVvstem 33 80\\u000d
p11
aVvstem 297 80\\u000d
p12
asasVid\\u000d
p13
Vw409m113,0l33,0l33,460l113,460l113,265l297,265l297,460l377,460l377,0l297,0l297,200l113,200\\u000d
p14
ss."
EndChar

StartChar: hbar
Encoding: 432 295 231
GlifName: hbar
Width: 478
VWidth: 0
Flags: W
LayerCount: 2
Fore
SplineSet
45 530 m 257
 15 530 l 257
 15 610 l 257
 45 610 l 257
 45 700 l 257
NamedP: ".hr01"
 125 700 l 257
 125 610 l 257
NamedP: ".hr02"
 305 610 l 257
 305 530 l 257
 125 530 l 257
 125 380 l 257
 163 422 230 470 295 470 c 256
 413 470 433 384 433 304 c 258
 433 0 l 257
 353 0 l 257
 353 271 l 258
 353 341 353 390 293 390 c 256
 226 390 183 364 126 310 c 257
 126 207 125 103 125 0 c 257
 45 0 l 257
 45 530 l 257
EndSplineSet
PickledDataWithLists: "(dp0
Vpublic.postscript.hints\\u000d
p1
(dp2
VformatVersion\\u000d
p3
V1\\u000d
p4
sVhintSetList\\u000d
p5
(lp6
(dp7
Vstems\\u000d
p8
(lp9
Vhstem 530 80\\u000d
p10
aVvstem 45 80\\u000d
p11
aVhstem 390 80\\u000d
p12
aVvstem 353 80\\u000d
p13
asa(dp14
VpointTag\\u000d
p15
V.hr01\\u000d
p16
sg8
(lp17
Vhstem 530 170\\u000d
p18
aVvstem 45 80\\u000d
p19
aVhstem 390 80\\u000d
p20
aVvstem 353 80\\u000d
p21
asa(dp22
g15
V.hr02\\u000d
p23
sg8
(lp24
Vhstem 530 80\\u000d
p25
aVvstem 45 80\\u000d
p26
aVhstem 390 80\\u000d
p27
aVvstem 353 80\\u000d
p28
asasVid\\u000d
p29
Vfbf441c6e12a57294dca3be26407dc1b14cd1f98b2b4b87e7aba75cd5a4a3fd6707d5fa93fbac6760e7143215f253c23ca5a192197d909ad6314ea2828b88cd2\\u000d
p30
ss."
EndChar

StartChar: hcircumflex
Encoding: 433 293 232
GlifName: hcircumflex
Width: 478
VWidth: 0
Flags: W
LayerCount: 2
Fore
SplineSet
143 760 m 257
 79 760 l 257
 199 940 l 257
 279 940 l 257
 399 760 l 257
 335 760 l 257
 239 887 l 257
 143 760 l 257
125 0 m 257
 45 0 l 257
 45 700 l 257
 125 700 l 257
 125 380 l 257
 163 422 230 470 295 470 c 256
 413 470 433 384 433 304 c 258
 433 0 l 257
 353 0 l 257
 353 271 l 258
 353 344 352 390 293 390 c 256
 226 390 183 364 126 310 c 257
 126 207 125 103 125 0 c 257
EndSplineSet
PickledDataWithLists: "(dp0
Vpublic.postscript.hints\\u000d
p1
(dp2
VformatVersion\\u000d
p3
V1\\u000d
p4
sVhintSetList\\u000d
p5
(lp6
(dp7
Vstems\\u000d
p8
(lp9
Vhstem 390 80\\u000d
p10
aVhstem 760 180\\u000d
p11
aVvstem 45 80\\u000d
p12
aVvstem 353 80\\u000d
p13
asasVid\\u000d
p14
V15744d5abfed4ad921ac9fef72ee281eb1400f07962076ecfe89c409a1651cf2c7d547bd83ee6cb5a3c646347863fc58e37910483d1832bfc148a0679f0ee53e\\u000d
p15
ss."
EndChar

StartChar: hungarumlaut
Encoding: 434 733 233
GlifName: hungarumlaut
Width: 350
VWidth: 0
Flags: W
LayerCount: 2
Fore
SplineSet
234 520 m 257
 170 520 l 257
 220 680 l 257
 300 680 l 257
 234 520 l 257
114 520 m 257
 50 520 l 257
 100 680 l 257
 180 680 l 257
 114 520 l 257
EndSplineSet
PickledDataWithLists: "(dp0
Vpublic.postscript.hints\\u000d
p1
(dp2
VformatVersion\\u000d
p3
V1\\u000d
p4
sVhintSetList\\u000d
p5
(lp6
(dp7
Vstems\\u000d
p8
(lp9
Vhstem 520 160\\u000d
p10
aVvstem 50 250\\u000d
p11
asasVid\\u000d
p12
Vw350m234,520l170,520l220,680l300,680m114,520l50,520l100,680l180,680\\u000d
p13
ss."
EndChar

StartChar: hyphen
Encoding: 45 45 234
GlifName: hyphen
Width: 320
VWidth: 0
Flags: W
LayerCount: 2
Fore
SplineSet
270 210 m 257
 50 210 l 257
 50 275 l 257
 270 275 l 257
 270 210 l 257
EndSplineSet
PickledDataWithLists: "(dp0
Vpublic.postscript.hints\\u000d
p1
(dp2
VformatVersion\\u000d
p3
V1\\u000d
p4
sVhintSetList\\u000d
p5
(lp6
(dp7
Vstems\\u000d
p8
(lp9
Vhstem 210 65\\u000d
p10
aVvstem 50 220\\u000d
p11
asasVid\\u000d
p12
Vw320m270,210l50,210l50,275l270,275\\u000d
p13
ss."
EndChar

StartChar: i
Encoding: 105 105 235
GlifName: i
Width: 220
VWidth: 0
Flags: W
LayerCount: 2
Fore
SplineSet
120 0 m 257
 100 0 l 257
 100 460 l 257
 120 460 l 257
 120 0 l 257
120 520 m 257
 100 520 l 257
 100 600 l 257
 120 600 l 257
 120 520 l 257
EndSplineSet
PickledDataWithLists: "(dp0
Vpublic.postscript.hints\\u000d
p1
(dp2
VformatVersion\\u000d
p3
V1\\u000d
p4
sVhintSetList\\u000d
p5
(lp6
(dp7
Vstems\\u000d
p8
(lp9
Vhstem 520 80\\u000d
p10
aVvstem 100 20\\u000d
p11
asasVid\\u000d
p12
Vw220m120,0l100,0l100,460l120,460m120,520l100,520l100,600l120,600\\u000d
p13
ss."
Substitution2: "smcpLowercasetoSmallCapitalslookup22 subtable" i.sc
Substitution2: "aaltAccessAllAlternateslookup0 subtable" i.sc
EndChar

StartChar: i.sc
Encoding: 435 -1 236
GlifName: i.sc
Width: 145
VWidth: 0
Flags: W
LayerCount: 2
Fore
SplineSet
113 0 m 257
 33 0 l 257
 33 460 l 257
 113 460 l 257
 113 0 l 257
EndSplineSet
PickledDataWithLists: "(dp0
Vpublic.postscript.hints\\u000d
p1
(dp2
VformatVersion\\u000d
p3
V1\\u000d
p4
sVhintSetList\\u000d
p5
(lp6
(dp7
Vstems\\u000d
p8
(lp9
Vvstem 33 80\\u000d
p10
asasVid\\u000d
p11
Vw145m113,0l33,0l33,460l113,460\\u000d
p12
ss."
EndChar

StartChar: ibreve
Encoding: 437 301 238
GlifName: ibreve
Width: 280
VWidth: 0
Flags: W
LayerCount: 2
Fore
SplineSet
-15 660 m 257
 65 660 l 257
 65 600 105 580 140 580 c 256
 175 580 215 600 215 660 c 257
 295 660 l 257
 295 560 220 520 140 520 c 256
 60 520 -15 560 -15 660 c 257
120 0 m 257
 100 0 l 257
 100 460 l 257
 120 460 l 257
 120 0 l 257
EndSplineSet
PickledDataWithLists: "(dp0
Vpublic.postscript.hints\\u000d
p1
(dp2
VformatVersion\\u000d
p3
V1\\u000d
p4
sVhintSetList\\u000d
p5
(lp6
(dp7
Vstems\\u000d
p8
(lp9
Vhstem 520 60\\u000d
p10
aVvstem -15 80\\u000d
p11
aVvstem 100 20\\u000d
p12
aVvstem 215 80\\u000d
p13
asasVid\\u000d
p14
V43f98929a0277188792b970c13f6ada495678ac2e96fa122f7732ffd0b118dd384e7653c3f54752673afe00b8adac65cfc0a8491a37133d4805ce8a1014907a4\\u000d
p15
ss."
EndChar

StartChar: ij
Encoding: 441 307 242
GlifName: ij
Width: 330
VWidth: 0
Flags: W
LayerCount: 2
Fore
SplineSet
260 530 m 257
 180 530 l 257
 180 610 l 257
 260 610 l 257
 260 530 l 257
32 -100 m 257
 97 -100 l 257
 97 -132 124 -135 140 -135 c 256
 167 -135 180 -109 180 -15 c 256
 180 143 180 302 180 460 c 257
 260 460 l 257
 260 9 l 258
 260 -171 203 -200 138 -200 c 256
 81 -200 32 -158 32 -100 c 257
100 530 m 257
 20 530 l 257
NamedP: ".hr01"
 20 610 l 257
 100 610 l 257
 100 530 l 257
100 0 m 257
 20 0 l 257
 20 460 l 257
 100 460 l 257
 100 0 l 257
EndSplineSet
PickledDataWithLists: "(dp0
Vpublic.postscript.hints\\u000d
p1
(dp2
VformatVersion\\u000d
p3
V1\\u000d
p4
sVhintSetList\\u000d
p5
(lp6
(dp7
Vstems\\u000d
p8
(lp9
Vhstem 530 80\\u000d
p10
aVvstem 180 80\\u000d
p11
aVvstem 32 65\\u000d
p12
aVhstem -200 65\\u000d
p13
asa(dp14
VpointTag\\u000d
p15
V.hr01\\u000d
p16
sg8
(lp17
Vhstem 530 80\\u000d
p18
aVvstem 20 80\\u000d
p19
aVhstem -200 65\\u000d
p20
aVvstem 180 80\\u000d
p21
asasVid\\u000d
p22
V177167f01e782937f3cb476cc3df873165fcbb28be7f2ad75054fc584c6cee6eead1761b9ceb12e315f29ee1bb2fc5f2b9117ab18632695635dbb05f5ac8a8cc\\u000d
p23
ss."
EndChar

StartChar: imacron
Encoding: 442 299 243
GlifName: imacron
Width: 280
VWidth: 0
Flags: W
LayerCount: 2
Fore
SplineSet
275 570 m 257
 5 570 l 257
 5 640 l 257
 275 640 l 257
 275 570 l 257
120 0 m 257
 100 0 l 257
 100 460 l 257
 120 460 l 257
 120 0 l 257
EndSplineSet
PickledDataWithLists: "(dp0
Vpublic.postscript.hints\\u000d
p1
(dp2
VformatVersion\\u000d
p3
V1\\u000d
p4
sVhintSetList\\u000d
p5
(lp6
(dp7
Vstems\\u000d
p8
(lp9
Vhstem 570 70\\u000d
p10
aVvstem 100 20\\u000d
p11
asasVid\\u000d
p12
Vw280m275,570l5,570l5,640l275,640m120,0l100,0l100,460l120,460\\u000d
p13
ss."
EndChar

StartChar: iogonek
Encoding: 443 303 244
GlifName: iogonek
Width: 220
VWidth: 0
Flags: W
LayerCount: 2
Fore
SplineSet
150 460 m 257
 150 0 l 257
 134 0 l 257
 94 -31 71 -67 71 -104 c 256
 71 -135 93 -150 117 -150 c 256
 133 -150 146 -145 157 -137 c 257
 179 -178 l 257
 160 -193 125 -205 100 -205 c 256
 50 -205 10 -176 10 -120 c 256
 10 -69 44 -26 76 0 c 257
 70 0 l 257
NamedP: ".hr02"
 70 460 l 257
 150 460 l 257
150 610 m 257
 150 530 l 257
 70 530 l 257
 70 610 l 257
 150 610 l 257
EndSplineSet
PickledDataWithLists: "(dp0
Vpublic.postscript.hints\\u000d
p1
(dp2
VformatVersion\\u000d
p3
V1\\u000d
p4
sVhintSetList\\u000d
p5
(lp6
(dp7
Vstems\\u000d
p8
(lp9
Vvstem 70 80\\u000d
p10
aVhstem -205 55\\u000d
p11
aVhstem 530 80\\u000d
p12
asa(dp13
VpointTag\\u000d
p14
V.hr01\\u000d
p15
sg8
(lp16
Vvstem 10 61\\u000d
p17
aVhstem -205 55\\u000d
p18
aVhstem 530 80\\u000d
p19
asa(dp20
g14
V.hr02\\u000d
p21
sg8
(lp22
Vvstem 70 80\\u000d
p23
aVhstem 530 80\\u000d
p24
aVhstem -205 55\\u000d
p25
asasVid\\u000d
p26
Vab381b4f8e9906c95e19c69c94fa141681e514b767e4ae0f74f58c49b38d83b32c11f0a94c8fd030538212a855502cf1679bcae7b92025b66dd65139f1b1f409\\u000d
p27
ss."
EndChar

StartChar: itilde
Encoding: 444 297 245
GlifName: itilde
Width: 280
VWidth: 0
Flags: W
LayerCount: 2
Fore
SplineSet
37 540 m 257
 -13 540 l 257
 1 627 37 660 77 660 c 256
 102 660 124 650 146 639 c 257
 162 630 183 620 203 620 c 256
 223 620 238 632 243 660 c 257
NamedP: ".hr03"
 293 660 l 257
 279 573 243 540 203 540 c 256
 178 540 157 549 136 560 c 256
 119 569 97 580 77 580 c 256
 57 580 42 568 37 540 c 257
120 0 m 257
NamedP: ".hr06"
 100 0 l 257
 100 460 l 257
 120 460 l 257
 120 0 l 257
NamedP: ".hr06"
EndSplineSet
PickledDataWithLists: "(dp0
Vpublic.postscript.hints\\u000d
p1
(dp2
VformatVersion\\u000d
p3
V1\\u000d
p4
sVhintSetList\\u000d
p5
(lp6
(dp7
Vstems\\u000d
p8
(lp9
Vhstem 540 80\\u000d
p10
aVvstem 100 20\\u000d
p11
asa(dp12
VpointTag\\u000d
p13
V.hr01\\u000d
p14
sg8
(lp15
Vhstem 580 80\\u000d
p16
aVvstem 100 20\\u000d
p17
asa(dp18
g13
V.hr02\\u000d
p19
sg8
(lp20
Vhstem 540 80\\u000d
p21
aVvstem 100 20\\u000d
p22
asa(dp23
g13
V.hr03\\u000d
p24
sg8
(lp25
Vhstem 580 80\\u000d
p26
aVvstem 100 20\\u000d
p27
asa(dp28
g13
V.hr04\\u000d
p29
sg8
(lp30
Vhstem 540 80\\u000d
p31
aVvstem 100 20\\u000d
p32
asa(dp33
g13
V.hr05\\u000d
p34
sg8
(lp35
Vhstem 580 80\\u000d
p36
aVvstem 100 20\\u000d
p37
asa(dp38
g13
V.hr06\\u000d
p39
sg8
(lp40
Vhstem 540 80\\u000d
p41
aVvstem 100 20\\u000d
p42
asasVid\\u000d
p43
Vf8c319da9b4a698bbac75d4ac353a5fe4fd02ce91e59cefd9384adaf61be1f60c2fb8e76697f732f735e80a8d76599aabf83471f906b1f1c55b2bb023e0aa3cd\\u000d
p44
ss."
EndChar

StartChar: j
Encoding: 106 106 246
GlifName: j
Width: 230
VWidth: 0
Flags: W
LayerCount: 2
Fore
SplineSet
160 560 m 257
 80 560 l 257
 80 640 l 257
 160 640 l 257
 160 560 l 257
-68 -100 m 257
 -3 -100 l 257
 0 -132 21 -140 36 -140 c 256
 60 -140 80 -136 80 -80 c 258
 80 460 l 257
 160 460 l 257
 160 -60 l 258
 160 -181 104 -200 40 -200 c 256
 -16 -200 -64 -162 -68 -100 c 257
EndSplineSet
PickledDataWithLists: "(dp0
Vpublic.postscript.hints\\u000d
p1
(dp2
VformatVersion\\u000d
p3
V1\\u000d
p4
sVhintSetList\\u000d
p5
(lp6
(dp7
Vstems\\u000d
p8
(lp9
Vhstem -200 60\\u000d
p10
aVhstem 560 80\\u000d
p11
aVvstem -68 65\\u000d
p12
aVvstem 80 80\\u000d
p13
asasVid\\u000d
p14
V0655f001f4f731858b0e8392c3b427e6ef7be497ded0ce67f4721fb57e9ef2ffa042db306cacf405e9f3da2249678e664edab520bf1ee6b446697c73ac384a51\\u000d
p15
ss."
Substitution2: "smcpLowercasetoSmallCapitalslookup22 subtable" j.sc
Substitution2: "aaltAccessAllAlternateslookup0 subtable" j.sc
EndChar

StartChar: j.sc
Encoding: 445 -1 247
GlifName: j.sc
Width: 208
VWidth: 0
Flags: W
LayerCount: 2
Fore
SplineSet
94 0 m 258
 33 0 l 257
 33 65 l 257
 69 65 l 258
 84 65 97 84 97 108 c 258
 97 460 l 257
 177 460 l 257
 177 91 l 258
 177 37 166 0 94 0 c 258
EndSplineSet
PickledDataWithLists: "(dp0
Vpublic.postscript.hints\\u000d
p1
(dp2
VformatVersion\\u000d
p3
V1\\u000d
p4
sVhintSetList\\u000d
p5
(lp6
(dp7
Vstems\\u000d
p8
(lp9
Vhstem 0 65\\u000d
p10
aVvstem 97 80\\u000d
p11
asasVid\\u000d
p12
Vw208m94,0l33,0l33,65l69,65c84,65 97,84 97,108l97,460l177,460l177,91c177,37 166,0 94,0\\u000d
p13
ss."
EndChar

